  0
SECTION
  2
ENTITIES
999
DXF created from WinEPDraw
999
Program Version,EPDraw, Version 3.0
999
Polygon Action,TRIANGULATE 3DFACE
999
Text - True North
  0
TEXT
  8
1
  6
Continuous
 62
  3
 10
      -11.60960
 20
      -11.67188
 30
        0.10000
 40
 .25
  1
True North
 41
 0.0
  7
MONOTXT
210
0.0
220
0.0
230
1.0
999
Text - Building Title
  0
TEXT
  8
1
  6
Continuous
 62
  3
 10
      -14.60960
 20
      -15.67188
 30
        0.10000
 40
 .4
  1
Building - BUILDING 1
 41
 0.0
  7
MONOTXT
210
0.0
220
0.0
230
1.0
999
North Arrow Stem
  0
3DFACE
  8
1
 62
  3
 10
      -10.60960
 20
      -11.67188
 30
        0.10000
 11
      -10.60960
 21
      -11.67188
 31
        0.00000
 12
      -10.60960
 22
      -14.67188
 32
        0.00000
 13
      -10.60960
 23
      -14.67188
 33
        0.10000
999
North Arrow Head 1
  0
3DFACE
  8
1
 62
  3
 10
      -10.60960
 20
      -11.67188
 30
        0.10000
 11
      -10.60960
 21
      -11.67188
 31
        0.00000
 12
      -11.10960
 22
      -12.53790
 32
        0.00000
 13
      -11.10960
 23
      -12.53790
 33
        0.10000
999
North Arrow Head 2
  0
3DFACE
  8
1
 62
  3
 10
      -10.60960
 20
      -11.67188
 30
        0.10000
 11
      -10.60960
 21
      -11.67188
 31
        0.00000
 12
      -10.10960
 22
      -12.53790
 32
        0.00000
 13
      -10.10960
 23
      -12.53790
 33
        0.10000
999
North Arrow Side 1
  0
3DFACE
  8
1
 62
  3
 10
      -11.10960
 20
      -10.17188
 30
        0.10000
 11
      -11.10960
 21
      -10.17188
 31
        0.00000
 12
      -11.10960
 22
      -11.17188
 32
        0.00000
 13
      -11.10960
 23
      -11.17188
 33
        0.10000
999
North Arrow Side 2
  0
3DFACE
  8
1
 62
  3
 10
      -11.10960
 20
      -10.17188
 30
        0.10000
 11
      -11.10960
 21
      -10.17188
 31
        0.00000
 12
      -10.10960
 22
      -11.17188
 32
        0.00000
 13
      -10.10960
 23
      -11.17188
 33
        0.10000
999
North Arrow Side 3
  0
3DFACE
  8
1
 62
  3
 10
      -10.10960
 20
      -10.17188
 30
        0.10000
 11
      -10.10960
 21
      -10.17188
 31
        0.00000
 12
      -10.10960
 22
      -11.17188
 32
        0.00000
 13
      -10.10960
 23
      -11.17188
 33
        0.10000
999
Zone Names
999
Zone=1:FINISHED_BASEMENT_ZONE
999
Zone=2:LIVING_ZONE
999
Zone=3:UNFINISHED_ATTIC_ZONE
999
Building Shading:SURFACE 8 - RES EAVES
  0
3DFACE
  8
Building Shading
 62
195
 10
        0.00000
 20
      -10.70948
 30
        2.74320
 11
        2.80552
 21
      -10.70948
 31
        4.14596
 12
        2.80552
 22
      -10.09988
 32
        4.14596
 13
        0.00000
 23
      -10.09988
 33
        2.74320
999
Building Shading:SURFACE 8 - RES EAVES 1
  0
3DFACE
  8
Building Shading
 62
195
 10
        2.80552
 20
        0.60960
 30
        4.14596
 11
       -0.00000
 21
        0.60960
 31
        2.74320
 12
        0.00000
 22
        0.00000
 32
        2.74320
 13
        2.80552
 23
        0.00000
 33
        4.14596
999
Building Shading:SURFACE 8 - RES EAVES 2
  0
3DFACE
  8
Building Shading
 62
195
 10
       -0.60960
 20
       -0.00000
 30
        2.43840
 11
       -0.60960
 21
      -10.09988
 31
        2.43840
 12
        0.00000
 22
      -10.09988
 32
        2.74320
 13
        0.00000
 23
        0.00000
 33
        2.74320
999
Building Shading:SURFACE 9 - RES EAVES
  0
3DFACE
  8
Building Shading
 62
195
 10
        5.61104
 20
        0.60960
 30
        2.74320
 11
        2.80552
 21
        0.60960
 31
        4.14596
 12
        2.80552
 22
        0.00000
 32
        4.14596
 13
        5.61104
 23
        0.00000
 33
        2.74320
999
Building Shading:SURFACE 9 - RES EAVES 1
  0
3DFACE
  8
Building Shading
 62
195
 10
        2.80552
 20
      -10.70948
 30
        4.14596
 11
        5.61104
 21
      -10.70948
 31
        2.74320
 12
        5.61104
 22
      -10.09988
 32
        2.74320
 13
        2.80552
 23
      -10.09988
 33
        4.14596
999
Building Shading:SURFACE 9 - RES EAVES 2
  0
3DFACE
  8
Building Shading
 62
195
 10
        6.22064
 20
      -10.09988
 30
        2.43840
 11
        6.22064
 21
        0.00000
 31
        2.43840
 12
        5.61104
 22
        0.00000
 32
        2.74320
 13
        5.61104
 23
      -10.09988
 33
        2.74320
999
Building Shading:RES NEIGHBORS LEFT
  0
3DFACE
  8
Building Shading
 62
195
 10
       -0.00000
 20
        4.57200
 30
        0.00000
 11
       -0.00000
 21
        4.57200
 31
        3.84116
 12
        5.61104
 22
        4.57200
 32
        3.84116
 13
        5.61104
 23
        4.57200
 33
        0.00000
999
Building Shading:RES NEIGHBORS RIGHT
  0
3DFACE
  8
Building Shading
 62
195
 10
        5.61104
 20
      -14.67188
 30
        0.00000
 11
        5.61104
 21
      -14.67188
 31
        3.84116
 12
        0.00000
 22
      -14.67188
 32
        3.84116
 13
        0.00000
 23
      -14.67188
 33
        0.00000
999
Building Shading:SURFACE 2 - WINDOW 1 SHADING SURFACE
  0
3DFACE
  8
Building Shading
 62
195
 10
        3.51562
 20
        0.00000
 30
        2.13360
 11
        3.51562
 21
        0.00000
 31
        1.22767
 12
        2.83600
 22
        0.00000
 32
        1.22767
 13
        2.83600
 23
        0.00000
 33
        2.13360
999
Building Shading:SURFACE 2 - WINDOW 2 SHADING SURFACE
  0
3DFACE
  8
Building Shading
 62
195
 10
        2.77504
 20
        0.00000
 30
        2.13360
 11
        2.77504
 21
        0.00000
 31
        1.22767
 12
        2.09542
 22
        0.00000
 32
        1.22767
 13
        2.09542
 23
        0.00000
 33
        2.13360
999
Building Shading:SURFACE 3 - WINDOW 1 SHADING SURFACE
  0
3DFACE
  8
Building Shading
 62
195
 10
        5.61104
 20
       -5.99222
 30
        2.13360
 11
        5.61104
 21
       -5.99222
 31
        0.91816
 12
        5.61104
 22
       -5.08042
 32
        0.91816
 13
        5.61104
 23
       -5.08042
 33
        2.13360
999
Building Shading:SURFACE 3 - WINDOW 2 SHADING SURFACE
  0
3DFACE
  8
Building Shading
 62
195
 10
        5.61104
 20
       -5.01946
 30
        2.13360
 11
        5.61104
 21
       -5.01946
 31
        0.91816
 12
        5.61104
 22
       -4.10765
 32
        0.91816
 13
        5.61104
 23
       -4.10765
 33
        2.13360
999
Building Shading:SURFACE 4 - WINDOW 1 SHADING SURFACE
  0
3DFACE
  8
Building Shading
 62
195
 10
        2.09542
 20
      -10.09988
 30
        2.13360
 11
        2.09542
 21
      -10.09988
 31
        1.22767
 12
        2.77504
 22
      -10.09988
 32
        1.22767
 13
        2.77504
 23
      -10.09988
 33
        2.13360
999
Building Shading:SURFACE 4 - WINDOW 2 SHADING SURFACE
  0
3DFACE
  8
Building Shading
 62
195
 10
        2.83600
 20
      -10.09988
 30
        2.13360
 11
        2.83600
 21
      -10.09988
 31
        1.22767
 12
        3.51562
 22
      -10.09988
 32
        1.22767
 13
        3.51562
 23
      -10.09988
 33
        2.13360
999
Building Shading:SURFACE 5 - WINDOW 1 SHADING SURFACE
  0
3DFACE
  8
Building Shading
 62
195
 10
        0.00000
 20
       -4.63198
 30
        2.13360
 11
        0.00000
 21
       -4.63198
 31
        0.91816
 12
        0.00000
 22
       -5.54379
 32
        0.91816
 13
        0.00000
 23
       -5.54379
 33
        2.13360
999
Building Shading:SURFACE 5 - WINDOW 2 SHADING SURFACE
  0
3DFACE
  8
Building Shading
 62
195
 10
        0.00000
 20
       -5.60475
 30
        2.13360
 11
        0.00000
 21
       -5.60475
 31
        0.91816
 12
        0.00000
 22
       -6.51655
 32
        0.91816
 13
        0.00000
 23
       -6.51655
 33
        2.13360
999
FINISHED BASEMENT ZONE:SURFACE 13
  0
3DFACE
  8
FINISHED_BASEMENT_ZONE
 62
 43
 10
        5.61104
 20
        0.00000
 30
       -0.00000
 11
        5.61104
 21
        0.00000
 31
       -2.43840
 12
        0.00000
 22
        0.00000
 32
       -2.43840
 13
        0.00000
 23
        0.00000
 33
       -0.00000
999
FINISHED BASEMENT ZONE:SURFACE 14
  0
3DFACE
  8
FINISHED_BASEMENT_ZONE
 62
 43
 10
        5.61104
 20
      -10.09988
 30
       -0.00000
 11
        5.61104
 21
      -10.09988
 31
       -2.43840
 12
        5.61104
 22
        0.00000
 32
       -2.43840
 13
        5.61104
 23
        0.00000
 33
       -0.00000
999
FINISHED BASEMENT ZONE:SURFACE 15
  0
3DFACE
  8
FINISHED_BASEMENT_ZONE
 62
 43
 10
        0.00000
 20
      -10.09988
 30
       -0.00000
 11
        0.00000
 21
      -10.09988
 31
       -2.43840
 12
        5.61104
 22
      -10.09988
 32
       -2.43840
 13
        5.61104
 23
      -10.09988
 33
       -0.00000
999
FINISHED BASEMENT ZONE:SURFACE 16
  0
3DFACE
  8
FINISHED_BASEMENT_ZONE
 62
 43
 10
        0.00000
 20
        0.00000
 30
       -0.00000
 11
        0.00000
 21
        0.00000
 31
       -2.43840
 12
        0.00000
 22
      -10.09988
 32
       -2.43840
 13
        0.00000
 23
      -10.09988
 33
       -0.00000
999
FINISHED BASEMENT ZONE:SURFACE 12
  0
3DFACE
  8
FINISHED_BASEMENT_ZONE
 62
  8
 10
        0.00000
 20
        0.00000
 30
       -2.43840
 11
        5.61104
 21
        0.00000
 31
       -2.43840
 12
        5.61104
 22
      -10.09988
 32
       -2.43840
 13
        0.00000
 23
      -10.09988
 33
       -2.43840
999
FINISHED BASEMENT ZONE:SURFACE 17
  0
3DFACE
  8
FINISHED_BASEMENT_ZONE
 62
 15
 10
        0.00000
 20
      -10.09988
 30
       -0.00000
 11
        5.61104
 21
      -10.09988
 31
       -0.00000
 12
        5.61104
 22
        0.00000
 32
       -0.00000
 13
        0.00000
 23
        0.00000
 33
       -0.00000
999
LIVING ZONE:SURFACE 18
  0
3DFACE
  8
LIVING_ZONE
 62
 43
 10
        0.00000
 20
       -0.12700
 30
        2.43840
 11
        0.00000
 21
       -0.12700
 31
        0.00000
 12
        0.00000
 22
       -1.04866
 32
        0.00000
 13
        0.00000
 23
       -1.04866
 33
        2.43840
999
LIVING ZONE:UNIT 1 - SURFACE 5 - DOOR
  0
3DFACE
  8
LIVING_ZONE
 62
 45
 10
        0.00000
 20
       -0.15240
 30
        2.13360
 11
        0.00000
 21
       -0.15240
 31
        0.00000
 12
        0.00000
 22
       -1.02326
 32
        0.00000
 13
        0.00000
 23
       -1.02326
 33
        2.13360
999
LIVING ZONE:SURFACE 19
  0
3DFACE
  8
LIVING_ZONE
 62
 43
 10
        0.00000
 20
       -0.12700
 30
        0.00000
 11
        0.00000
 21
       -0.12700
 31
        2.43840
 12
        0.00000
 22
        0.00000
 32
        2.43840
 13
        0.00000
 23
        0.00000
 33
        0.00000
999
LIVING ZONE:SURFACE 2
  0
3DFACE
  8
LIVING_ZONE
 62
 43
 10
        5.61104
 20
        0.00000
 30
        2.43840
 11
        5.61104
 21
        0.00000
 31
        0.00000
 12
        0.00000
 22
        0.00000
 32
        0.00000
 13
        0.00000
 23
        0.00000
 33
        2.43840
999
LIVING ZONE:SURFACE 2 - WINDOW 1
  0
3DFACE
  8
LIVING_ZONE
 62
143
 10
        3.51562
 20
        0.00000
 30
        2.13360
 11
        3.51562
 21
        0.00000
 31
        1.22767
 12
        2.83600
 22
        0.00000
 32
        1.22767
 13
        2.83600
 23
        0.00000
 33
        2.13360
999
LIVING ZONE:SURFACE 2 - WINDOW 2
  0
3DFACE
  8
LIVING_ZONE
 62
143
 10
        2.77504
 20
        0.00000
 30
        2.13360
 11
        2.77504
 21
        0.00000
 31
        1.22767
 12
        2.09542
 22
        0.00000
 32
        1.22767
 13
        2.09542
 23
        0.00000
 33
        2.13360
999
LIVING ZONE:SURFACE 3
  0
3DFACE
  8
LIVING_ZONE
 62
 43
 10
        5.61104
 20
      -10.09988
 30
        2.43840
 11
        5.61104
 21
      -10.09988
 31
        0.00000
 12
        5.61104
 22
        0.00000
 32
        0.00000
 13
        5.61104
 23
        0.00000
 33
        2.43840
999
LIVING ZONE:SURFACE 3 - WINDOW 1
  0
3DFACE
  8
LIVING_ZONE
 62
143
 10
        5.61104
 20
       -5.99222
 30
        2.13360
 11
        5.61104
 21
       -5.99222
 31
        0.91816
 12
        5.61104
 22
       -5.08042
 32
        0.91816
 13
        5.61104
 23
       -5.08042
 33
        2.13360
999
LIVING ZONE:SURFACE 3 - WINDOW 2
  0
3DFACE
  8
LIVING_ZONE
 62
143
 10
        5.61104
 20
       -5.01946
 30
        2.13360
 11
        5.61104
 21
       -5.01946
 31
        0.91816
 12
        5.61104
 22
       -4.10765
 32
        0.91816
 13
        5.61104
 23
       -4.10765
 33
        2.13360
999
LIVING ZONE:SURFACE 4
  0
3DFACE
  8
LIVING_ZONE
 62
 43
 10
        0.00000
 20
      -10.09988
 30
        2.43840
 11
        0.00000
 21
      -10.09988
 31
        0.00000
 12
        5.61104
 22
      -10.09988
 32
        0.00000
 13
        5.61104
 23
      -10.09988
 33
        2.43840
999
LIVING ZONE:SURFACE 4 - WINDOW 1
  0
3DFACE
  8
LIVING_ZONE
 62
143
 10
        2.09542
 20
      -10.09988
 30
        2.13360
 11
        2.09542
 21
      -10.09988
 31
        1.22767
 12
        2.77504
 22
      -10.09988
 32
        1.22767
 13
        2.77504
 23
      -10.09988
 33
        2.13360
999
LIVING ZONE:SURFACE 4 - WINDOW 2
  0
3DFACE
  8
LIVING_ZONE
 62
143
 10
        2.83600
 20
      -10.09988
 30
        2.13360
 11
        2.83600
 21
      -10.09988
 31
        1.22767
 12
        3.51562
 22
      -10.09988
 32
        1.22767
 13
        3.51562
 23
      -10.09988
 33
        2.13360
999
LIVING ZONE:SURFACE 5
  0
3DFACE
  8
LIVING_ZONE
 62
 43
 10
        0.00000
 20
       -1.04866
 30
        0.00000
 11
        0.00000
 21
      -10.09988
 31
        0.00000
 12
        0.00000
 22
      -10.09988
 32
        2.43840
 13
        0.00000
 23
       -1.04866
 33
        2.43840
999
LIVING ZONE:SURFACE 5 - WINDOW 1
  0
3DFACE
  8
LIVING_ZONE
 62
143
 10
        0.00000
 20
       -4.63198
 30
        2.13360
 11
        0.00000
 21
       -4.63198
 31
        0.91816
 12
        0.00000
 22
       -5.54379
 32
        0.91816
 13
        0.00000
 23
       -5.54379
 33
        2.13360
999
LIVING ZONE:SURFACE 5 - WINDOW 2
  0
3DFACE
  8
LIVING_ZONE
 62
143
 10
        0.00000
 20
       -5.60475
 30
        2.13360
 11
        0.00000
 21
       -5.60475
 31
        0.91816
 12
        0.00000
 22
       -6.51655
 32
        0.91816
 13
        0.00000
 23
       -6.51655
 33
        2.13360
999
LIVING ZONE:SURFACE 1
  0
3DFACE
  8
LIVING_ZONE
 62
  8
 10
        0.00000
 20
        0.00000
 30
        0.00000
 11
        5.61104
 21
        0.00000
 31
        0.00000
 12
        5.61104
 22
      -10.09988
 32
        0.00000
 13
        0.00000
 23
      -10.09988
 33
        0.00000
999
LIVING ZONE:SURFACE 6
  0
3DFACE
  8
LIVING_ZONE
 62
 15
 10
        0.00000
 20
      -10.09988
 30
        2.43840
 11
        5.61104
 21
      -10.09988
 31
        2.43840
 12
        5.61104
 22
        0.00000
 32
        2.43840
 13
        0.00000
 23
        0.00000
 33
        2.43840
999
UNFINISHED ATTIC ZONE:SURFACE 10
  0
3DFACE
  8
UNFINISHED_ATTIC_ZONE
 62
 43
 10
        2.80552
 20
        0.00000
 30
        3.84116
 11
        5.61104
 21
        0.00000
 31
        2.43840
 12
        0.00000
 22
        0.00000
 32
        2.43840
 13
        0.00000
 23
        0.00000
 33
        2.43840
999
UNFINISHED ATTIC ZONE:SURFACE 11
  0
3DFACE
  8
UNFINISHED_ATTIC_ZONE
 62
 43
 10
        2.80552
 20
      -10.09988
 30
        3.84116
 11
        0.00000
 21
      -10.09988
 31
        2.43840
 12
        5.61104
 22
      -10.09988
 32
        2.43840
 13
        5.61104
 23
      -10.09988
 33
        2.43840
999
UNFINISHED ATTIC ZONE:SURFACE 7
  0
3DFACE
  8
UNFINISHED_ATTIC_ZONE
 62
  8
 10
        5.61104
 20
        0.00000
 30
        2.43840
 11
        5.61104
 21
      -10.09988
 31
        2.43840
 12
        0.00000
 22
      -10.09988
 32
        2.43840
 13
        0.00000
 23
        0.00000
 33
        2.43840
999
UNFINISHED ATTIC ZONE:SURFACE 8
  0
3DFACE
  8
UNFINISHED_ATTIC_ZONE
 62
 15
 10
        2.80552
 20
      -10.09988
 30
        4.14596
 11
        2.80552
 21
        0.00000
 31
        4.14596
 12
        0.00000
 22
        0.00000
 32
        2.74320
 13
        0.00000
 23
      -10.09988
 33
        2.74320
999
UNFINISHED ATTIC ZONE:SURFACE 9
  0
3DFACE
  8
UNFINISHED_ATTIC_ZONE
 62
 15
 10
        2.80552
 20
        0.00000
 30
        4.14596
 11
        2.80552
 21
      -10.09988
 31
        4.14596
 12
        5.61104
 22
      -10.09988
 32
        2.74320
 13
        5.61104
 23
        0.00000
 33
        2.74320
  0
ENDSEC
  0
EOF
