<?xml version="1.0"?>
<svg width="250mm" height="200mm" viewBox="0 0 2750 1500"
     xmlns="http://www.w3.org/2000/svg"
     xmlns:xlink="http://www.w3.org/1999/xlink"
     xmlns:ev="http://www.w3.org/2001/xml-events">
<g font-family="Verdana" font-size="8">
  <line x1="1300" y1="70" x2="1050" y2="150" style="stroke:silver;"/>
  <line x1="1300" y1="30" x2="1050" y2="230" style="stroke:silver;"/>
  <rect x="1200" y="60" width="200" height="20" style="fill:chartreuse; stroke: black;"/>1
  <text x="1202" y="73">FINISHED BASEMENT ZONE</text>
  <rect x="700" y="300" width="200" height="20" style="fill:wheat; stroke: black;"/>5
  <text x="702" y="313">PIPE ADIABATIC 1</text>
  <rect x="1200" y="340" width="200" height="20" style="fill:wheat; stroke: black;"/>6
  <text x="1202" y="353">PIPE ADIABATIC 2</text>
  <rect x="1450" y="340" width="200" height="20" style="fill:wheat; stroke: black;"/>7
  <text  x="1452" y="348">DOMESTIC HOT WATER LOOP DEMAND
  <tspan x="1452" y="356">INLET PIPE</tspan></text>
  <rect x="1950" y="380" width="200" height="20" style="fill:wheat; stroke: black;"/>8
  <text  x="1952" y="388">DOMESTIC HOT WATER LOOP DEMAND
  <tspan x="1952" y="396">BYPASS PIPE</tspan></text>
  <rect x="2450" y="380" width="200" height="20" style="fill:wheat; stroke: black;"/>9
  <text  x="2452" y="388">DOMESTIC HOT WATER LOOP DEMAND
  <tspan x="2452" y="396">OUTLET PIPE</tspan></text>
  <rect x="1950" y="340" width="200" height="20" style="fill:wheat; stroke: black;"/>10
  <text x="1952" y="353">WATER USE CONNECTIONS 1</text>
  <rect x="1700" y="340" width="200" height="20" style="fill:wheat; stroke: black;"/>11
  <text  x="1702" y="348">DOMESTIC HOT WATER LOOP DEMAND
  <tspan x="1702" y="356">SPLITTER</tspan></text>
  <rect x="2200" y="380" width="200" height="20" style="fill:wheat; stroke: black;"/>12
  <text x="2202" y="393">DOMESTIC HOT WATER LOOP DEMAND MIXER</text>
  <rect x="700" y="340" width="200" height="20" style="fill:orange; stroke: black;"/>13
  <text x="702" y="353">RES WH</text>
  <rect x="450" y="300" width="200" height="20" style="fill:wheat; stroke: black;"/>14
  <text  x="452" y="308">DOMESTIC HOT WATER LOOP SUPPLY
  <tspan x="452" y="316">SPLITTER</tspan></text>
  <rect x="950" y="340" width="200" height="20" style="fill:wheat; stroke: black;"/>15
  <text x="952" y="353">DOMESTIC HOT WATER LOOP SUPPLY MIXER</text>
  <rect x="700" y="20" width="200" height="20" style="fill:wheat; stroke: black;"/>16
  <text x="702" y="33">RES FUR GAS ZONE SPLITTER</text>
  <rect x="950" y="60" width="200" height="20" style="fill:snow; stroke: black;"/>17
  <text  x="952" y="68">RES FUR GAS FINISHED BASEMENT ZONE
  <tspan x="952" y="76">DIRECT AIR</tspan></text>
  <rect x="950" y="20" width="200" height="20" style="fill:snow; stroke: black;"/>18
  <text x="952" y="33">RES FUR GAS LIVING ZONE DIRECT AIR</text>
  <rect x="700" y="140" width="200" height="20" style="fill:silver; stroke: black;"/>19
  <text  x="702" y="148">RES ROOM AC FINISHED BASEMENT ZONE
  <tspan x="702" y="156">CLG SUPPLY FAN</tspan></text>
  <rect x="700" y="220" width="200" height="20" style="fill:silver; stroke: black;"/>20
  <text  x="702" y="228">RES ROOM AC LIVING ZONE CLG SUPPLY
  <tspan x="702" y="236">FAN</tspan></text>
  <rect x="200" y="20" width="200" height="20" style="fill:silver; stroke: black;"/>21
  <text x="202" y="33">RES FUR GAS HTG SUPPLY FAN</text>
  <rect x="450" y="140" width="200" height="20" style="fill:salmon; stroke: black;"/>22
  <text  x="452" y="148">RES ROOM AC ALWAYS OFF HEATING COIL
  <tspan x="452" y="156">1</tspan></text>
  <rect x="450" y="220" width="200" height="20" style="fill:salmon; stroke: black;"/>23
  <text x="452" y="233">RES ROOM AC ALWAYS OFF HEATING COIL</text>
  <rect x="450" y="20" width="200" height="20" style="fill:salmon; stroke: black;"/>24
  <text x="452" y="33">RES FUR GAS HEATING COIL</text>
  <rect x="200" y="140" width="200" height="20" style="fill:skyblue; stroke: black;"/>25
  <text x="202" y="153">RES ROOM AC COOLING COIL 1</text>
  <rect x="200" y="220" width="200" height="20" style="fill:skyblue; stroke: black;"/>26
  <text x="202" y="233">RES ROOM AC COOLING COIL</text>
  <rect x="1450" y="60" width="200" height="20" style="fill:wheat; stroke: black;"/>27
  <text x="1452" y="73">RES FUR GAS ZONE MIXER</text>
  <rect x="200" y="300" width="200" height="20" style="fill:springgreen; stroke: black;"/>28
  <text x="202" y="313">PUMP VARIABLE SPEED 1</text>
  <rect x="1200" y="20" width="200" height="20" style="fill:chartreuse; stroke: black;"/>29
  <text x="1202" y="33">LIVING ZONE</text>
  <rect x="950" y="140" width="200" height="20" style="fill:chartreuse; stroke: black;"/>30
  <text x="952" y="153">FINISHED BASEMENT ZONE</text>
  <rect x="950" y="220" width="200" height="20" style="fill:chartreuse; stroke: black;"/>31
  <text x="952" y="233">LIVING ZONE</text>
  <line x1="900" y1="310" x2="950" y2="350" style="stroke:black;"/>
  <line x1="1400" y1="350" x2="1450" y2="350" style="stroke:black;"/>
  <line x1="1650" y1="350" x2="1700" y2="350" style="stroke:black;"/>
  <line x1="2150" y1="390" x2="2200" y2="390" style="stroke:black;"/>
  <line x1="2150" y1="350" x2="2200" y2="390" style="stroke:black;"/>
  <line x1="1900" y1="350" x2="1950" y2="350" style="stroke:black;"/>
  <line x1="1900" y1="350" x2="1950" y2="390" style="stroke:black;"/>
  <line x1="2400" y1="390" x2="2450" y2="390" style="stroke:black;"/>
  <line x1="900" y1="350" x2="950" y2="350" style="stroke:black;"/>
  <line x1="650" y1="310" x2="700" y2="310" style="stroke:black;"/>
  <line x1="650" y1="310" x2="700" y2="350" style="stroke:black;"/>
  <line x1="1150" y1="350" x2="1200" y2="350" style="stroke:black;"/>
  <line x1="900" y1="30" x2="950" y2="30" style="stroke:black;"/>
  <line x1="900" y1="30" x2="950" y2="70" style="stroke:black;"/>
  <line x1="1150" y1="70" x2="1200" y2="70" style="stroke:black;"/>
  <line x1="1150" y1="30" x2="1200" y2="30" style="stroke:black;"/>
  <line x1="900" y1="150" x2="950" y2="150" style="stroke:black;"/>
  <line x1="900" y1="230" x2="950" y2="230" style="stroke:black;"/>
  <line x1="400" y1="30" x2="450" y2="30" style="stroke:black;"/>
  <line x1="650" y1="150" x2="700" y2="150" style="stroke:black;"/>
  <line x1="650" y1="230" x2="700" y2="230" style="stroke:black;"/>
  <line x1="650" y1="30" x2="700" y2="30" style="stroke:black;"/>
  <line x1="400" y1="150" x2="450" y2="150" style="stroke:black;"/>
  <line x1="400" y1="230" x2="450" y2="230" style="stroke:black;"/>
  <line x1="400" y1="310" x2="450" y2="310" style="stroke:black;"/>
  <line x1="1400" y1="70" x2="1450" y2="70" style="stroke:black;"/>
  <line x1="1400" y1="30" x2="1450" y2="70" style="stroke:black;"/>
  <line x1="200" y1="30" x2="175" y2="30" style="stroke:black;"/>
  <line x1="175" y1="30" x2="175" y2="0" style="stroke:black;"/>
  <line x1="175" y1="0" x2="1675" y2="0" style="stroke:black;"/>
  <line x1="1675" y1="0" x2="1675" y2="70" style="stroke:black;"/>
  <line x1="1675" y1="70" x2="1650" y2="70" style="stroke:black;"/>
  <line x1="200" y1="150" x2="175" y2="150" style="stroke:black;"/>
  <line x1="175" y1="150" x2="175" y2="120" style="stroke:black;"/>
  <line x1="175" y1="120" x2="1175" y2="120" style="stroke:black;"/>
  <line x1="1175" y1="120" x2="1175" y2="150" style="stroke:black;"/>
  <line x1="1175" y1="150" x2="1150" y2="150" style="stroke:black;"/>
  <line x1="200" y1="230" x2="175" y2="230" style="stroke:black;"/>
  <line x1="175" y1="230" x2="175" y2="200" style="stroke:black;"/>
  <line x1="175" y1="200" x2="1175" y2="200" style="stroke:black;"/>
  <line x1="1175" y1="200" x2="1175" y2="230" style="stroke:black;"/>
  <line x1="1175" y1="230" x2="1150" y2="230" style="stroke:black;"/>
  <line x1="200" y1="310" x2="175" y2="310" style="stroke:black;"/>
  <line x1="175" y1="310" x2="175" y2="280" style="stroke:black;"/>
  <line x1="175" y1="280" x2="2675" y2="280" style="stroke:black;"/>
  <line x1="2675" y1="280" x2="2675" y2="390" style="stroke:black;"/>
  <line x1="2675" y1="390" x2="2650" y2="390" style="stroke:black;"/>
  <text x="200" y="440">Unused Non-Parent Objects:</text>
  <text x="220" y="460">OutdoorAir:Node</text>
  <text x="220" y="480">SETPOINT MANAGER SCHEDULED 1</text>
  <text x="200" y="520">
The following are not supported: objects related to controls or ZoneHVAC:IdealLoadsAirSystem</text>
</g>
</svg>
