<?xml version="1.0"?>
<svg width="250mm" height="200mm" viewBox="0 0 2500 1500"
     xmlns="http://www.w3.org/2000/svg"
     xmlns:xlink="http://www.w3.org/1999/xlink"
     xmlns:ev="http://www.w3.org/2001/xml-events">
<g font-family="Verdana" font-size="8">
  <text x="1" y="1">ERROR - COULD NOT COMPLETE DRAWING! Examine ERR file for possible explanation. Last error message is:   "Error: No node connection found after the following object: OAEXHAUSTFAN_UNIT1_FRONTROW_BOTTOMFLOOR"</text>
  <rect x="200" y="20" width="1" height="1" style="fill:paleturquoise; stroke: black;"/>326
  <text  x="202" y="9">OA_HEAT_RECOVERY_UNIT1_FRONTROW_BOTT
  <tspan x="202" y="17">OMFLOOR</tspan></text>
  <rect x="200" y="20" width="1" height="1" style="fill:silver; stroke: black;"/>363
  <text  x="202" y="9">OAEXHAUSTFAN_UNIT1_FRONTROW_BOTTOMFL
  <tspan x="202" y="17">OOR</tspan></text>
  <line x1="201" y1="20" x2="200" y2="20" style="stroke:black;"/>
  <text x="200" y="61">Unused Non-Parent Objects:</text>
  <text x="220" y="81">LIVING_UNIT1_FRONTROW_BOTTOMFLOOR</text>
  <text x="220" y="101">LIVING_UNIT2_FRONTROW_BOTTOMFLOOR</text>
  <text x="220" y="121">LIVING_UNIT3_FRONTROW_BOTTOMFLOOR</text>
  <text x="220" y="141">LIVING_UNIT1_BACKROW_BOTTOMFLOOR</text>
  <text x="220" y="161">LIVING_UNIT2_BACKROW_BOTTOMFLOOR</text>
  <text x="220" y="181">LIVING_UNIT3_BACKROW_BOTTOMFLOOR</text>
  <text x="220" y="201">LIVING_UNIT1_FRONTROW_MIDDLEFLOOR</text>
  <text x="220" y="221">LIVING_UNIT2_FRONTROW_MIDDLEFLOOR</text>
  <text x="220" y="241">LIVING_UNIT3_FRONTROW_MIDDLEFLOOR</text>
  <text x="220" y="261">LIVING_UNIT1_BACKROW_MIDDLEFLOOR</text>
  <text x="220" y="281">LIVING_UNIT2_BACKROW_MIDDLEFLOOR</text>
  <text x="220" y="301">LIVING_UNIT3_BACKROW_MIDDLEFLOOR</text>
  <text x="220" y="321">LIVING_UNIT1_FRONTROW_TOPFLOOR</text>
  <text x="220" y="341">LIVING_UNIT2_FRONTROW_TOPFLOOR</text>
  <text x="220" y="361">LIVING_UNIT3_FRONTROW_TOPFLOOR</text>
  <text x="220" y="381">LIVING_UNIT1_BACKROW_TOPFLOOR</text>
  <text x="220" y="401">LIVING_UNIT2_BACKROW_TOPFLOOR</text>
  <text x="220" y="421">LIVING_UNIT3_BACKROW_TOPFLOOR</text>
  <text x="220" y="441">WATER HEATER_UNIT1_FRONTROW_BOTTOMFLOOR</text>
  <text x="220" y="461">WATER HEATER_UNIT2_FRONTROW_BOTTOMFLOOR</text>
  <text x="220" y="481">WATER HEATER_UNIT3_FRONTROW_BOTTOMFLOOR</text>
  <text x="220" y="501">WATER HEATER_UNIT1_BACKROW_BOTTOMFLOOR</text>
  <text x="220" y="521">WATER HEATER_UNIT2_BACKROW_BOTTOMFLOOR</text>
  <text x="220" y="541">WATER HEATER_UNIT3_BACKROW_BOTTOMFLOOR</text>
  <text x="220" y="561">WATER HEATER_UNIT1_FRONTROW_MIDDLEFLOOR</text>
  <text x="220" y="581">WATER HEATER_UNIT2_FRONTROW_MIDDLEFLOOR</text>
  <text x="220" y="601">WATER HEATER_UNIT3_FRONTROW_MIDDLEFLOOR</text>
  <text x="220" y="621">WATER HEATER_UNIT1_BACKROW_MIDDLEFLOOR</text>
  <text x="220" y="641">WATER HEATER_UNIT2_BACKROW_MIDDLEFLOOR</text>
  <text x="220" y="661">WATER HEATER_UNIT3_BACKROW_MIDDLEFLOOR</text>
  <text x="220" y="681">WATER HEATER_UNIT1_FRONTROW_TOPFLOOR</text>
  <text x="220" y="701">WATER HEATER_UNIT2_FRONTROW_TOPFLOOR</text>
  <text x="220" y="721">WATER HEATER_UNIT3_FRONTROW_TOPFLOOR</text>
  <text x="220" y="741">WATER HEATER_UNIT1_BACKROW_TOPFLOOR</text>
  <text x="220" y="761">WATER HEATER_UNIT2_BACKROW_TOPFLOOR</text>
  <text x="220" y="781">WATER HEATER_UNIT3_BACKROW_TOPFLOOR</text>
  <text x="220" y="801">OutdoorAir:NodeList</text>
  <text x="220" y="821">OutdoorAir:NodeList</text>
  <text x="220" y="841">OutdoorAir:NodeList</text>
  <text x="220" y="861">OutdoorAir:NodeList</text>
  <text x="220" y="881">OutdoorAir:NodeList</text>
  <text x="220" y="901">OutdoorAir:NodeList</text>
  <text x="220" y="921">OutdoorAir:NodeList</text>
  <text x="220" y="941">OutdoorAir:NodeList</text>
  <text x="220" y="961">OutdoorAir:NodeList</text>
  <text x="220" y="981">OutdoorAir:NodeList</text>
  <text x="220" y="1001">OutdoorAir:NodeList</text>
  <text x="220" y="1021">OutdoorAir:NodeList</text>
  <text x="220" y="1041">OutdoorAir:NodeList</text>
  <text x="220" y="1061">OutdoorAir:NodeList</text>
  <text x="220" y="1081">OutdoorAir:NodeList</text>
  <text x="220" y="1101">OutdoorAir:NodeList</text>
  <text x="220" y="1121">OutdoorAir:NodeList</text>
  <text x="220" y="1141">OutdoorAir:NodeList</text>
  <text x="220" y="1161">OutdoorAir:Node</text>
  <text x="220" y="1181">OutdoorAir:Node</text>
  <text x="220" y="1201">OutdoorAir:Node</text>
  <text x="220" y="1221">OutdoorAir:Node</text>
  <text x="220" y="1241">OutdoorAir:Node</text>
  <text x="220" y="1261">OutdoorAir:Node</text>
  <text x="220" y="1281">OutdoorAir:Node</text>
  <text x="220" y="1301">OutdoorAir:Node</text>
  <text x="220" y="1321">OutdoorAir:Node</text>
  <text x="220" y="1341">OutdoorAir:Node</text>
  <text x="220" y="1361">OutdoorAir:Node</text>
  <text x="220" y="1381">OutdoorAir:Node</text>
  <text x="220" y="1401">OutdoorAir:Node</text>
  <text x="220" y="1421">OutdoorAir:Node</text>
  <text x="220" y="1441">OutdoorAir:Node</text>
  <text x="220" y="1461">OutdoorAir:Node</text>
  <text x="220" y="1481">OutdoorAir:Node</text>
  <text x="220" y="1501">OutdoorAir:Node</text>
  <text x="220" y="1521">DHW LOOP SETPOINT MANAGER_UNIT1_FRONTROW_BOTTOMFLOOR</text>
  <text x="220" y="1541">DHW LOOP SETPOINT MANAGER_UNIT2_FRONTROW_BOTTOMFLOOR</text>
  <text x="220" y="1561">DHW LOOP SETPOINT MANAGER_UNIT3_FRONTROW_BOTTOMFLOOR</text>
  <text x="220" y="1581">DHW LOOP SETPOINT MANAGER_UNIT1_BACKROW_BOTTOMFLOOR</text>
  <text x="220" y="1601">DHW LOOP SETPOINT MANAGER_UNIT2_BACKROW_BOTTOMFLOOR</text>
  <text x="220" y="1621">DHW LOOP SETPOINT MANAGER_UNIT3_BACKROW_BOTTOMFLOOR</text>
  <text x="220" y="1641">DHW LOOP SETPOINT MANAGER_UNIT1_FRONTROW_MIDDLEFLOOR</text>
  <text x="220" y="1661">DHW LOOP SETPOINT MANAGER_UNIT2_FRONTROW_MIDDLEFLOOR</text>
  <text x="220" y="1681">DHW LOOP SETPOINT MANAGER_UNIT3_FRONTROW_MIDDLEFLOOR</text>
  <text x="220" y="1701">DHW LOOP SETPOINT MANAGER_UNIT1_BACKROW_MIDDLEFLOOR</text>
  <text x="220" y="1721">DHW LOOP SETPOINT MANAGER_UNIT2_BACKROW_MIDDLEFLOOR</text>
  <text x="220" y="1741">DHW LOOP SETPOINT MANAGER_UNIT3_BACKROW_MIDDLEFLOOR</text>
  <text x="220" y="1761">DHW LOOP SETPOINT MANAGER_UNIT1_FRONTROW_TOPFLOOR</text>
  <text x="220" y="1781">DHW LOOP SETPOINT MANAGER_UNIT2_FRONTROW_TOPFLOOR</text>
  <text x="220" y="1801">DHW LOOP SETPOINT MANAGER_UNIT3_FRONTROW_TOPFLOOR</text>
  <text x="220" y="1821">DHW LOOP SETPOINT MANAGER_UNIT1_BACKROW_TOPFLOOR</text>
  <text x="220" y="1841">DHW LOOP SETPOINT MANAGER_UNIT2_BACKROW_TOPFLOOR</text>
  <text x="220" y="1861">DHW LOOP SETPOINT MANAGER_UNIT3_BACKROW_TOPFLOOR</text>
  <text x="220" y="1881">DHW SUPPLY OUTLET PIPE_UNIT1_FRONTROW_BOTTOMFLOOR</text>
  <text x="220" y="1901">MAINS MAKEUP PIPE_UNIT1_FRONTROW_BOTTOMFLOOR</text>
  <text x="220" y="1921">DHW DEMAND INLET PIPE_UNIT1_FRONTROW_BOTTOMFLOOR</text>
  <text x="220" y="1941">DHW SUPPLY OUTLET PIPE_UNIT2_FRONTROW_BOTTOMFLOOR</text>
  <text x="220" y="1961">MAINS MAKEUP PIPE_UNIT2_FRONTROW_BOTTOMFLOOR</text>
  <text x="220" y="1981">DHW DEMAND INLET PIPE_UNIT2_FRONTROW_BOTTOMFLOOR</text>
  <text x="220" y="2001">DHW SUPPLY OUTLET PIPE_UNIT3_FRONTROW_BOTTOMFLOOR</text>
  <text x="220" y="2021">MAINS MAKEUP PIPE_UNIT3_FRONTROW_BOTTOMFLOOR</text>
  <text x="220" y="2041">DHW DEMAND INLET PIPE_UNIT3_FRONTROW_BOTTOMFLOOR</text>
  <text x="220" y="2061">DHW SUPPLY OUTLET PIPE_UNIT1_BACKROW_BOTTOMFLOOR</text>
  <text x="220" y="2081">MAINS MAKEUP PIPE_UNIT1_BACKROW_BOTTOMFLOOR</text>
  <text x="220" y="2101">DHW DEMAND INLET PIPE_UNIT1_BACKROW_BOTTOMFLOOR</text>
  <text x="220" y="2121">DHW SUPPLY OUTLET PIPE_UNIT2_BACKROW_BOTTOMFLOOR</text>
  <text x="220" y="2141">MAINS MAKEUP PIPE_UNIT2_BACKROW_BOTTOMFLOOR</text>
  <text x="220" y="2161">DHW DEMAND INLET PIPE_UNIT2_BACKROW_BOTTOMFLOOR</text>
  <text x="220" y="2181">DHW SUPPLY OUTLET PIPE_UNIT3_BACKROW_BOTTOMFLOOR</text>
  <text x="220" y="2201">MAINS MAKEUP PIPE_UNIT3_BACKROW_BOTTOMFLOOR</text>
  <text x="220" y="2221">DHW DEMAND INLET PIPE_UNIT3_BACKROW_BOTTOMFLOOR</text>
  <text x="220" y="2241">DHW SUPPLY OUTLET PIPE_UNIT1_FRONTROW_MIDDLEFLOOR</text>
  <text x="220" y="2261">MAINS MAKEUP PIPE_UNIT1_FRONTROW_MIDDLEFLOOR</text>
  <text x="220" y="2281">DHW DEMAND INLET PIPE_UNIT1_FRONTROW_MIDDLEFLOOR</text>
  <text x="220" y="2301">DHW SUPPLY OUTLET PIPE_UNIT2_FRONTROW_MIDDLEFLOOR</text>
  <text x="220" y="2321">MAINS MAKEUP PIPE_UNIT2_FRONTROW_MIDDLEFLOOR</text>
  <text x="220" y="2341">DHW DEMAND INLET PIPE_UNIT2_FRONTROW_MIDDLEFLOOR</text>
  <text x="220" y="2361">DHW SUPPLY OUTLET PIPE_UNIT3_FRONTROW_MIDDLEFLOOR</text>
  <text x="220" y="2381">MAINS MAKEUP PIPE_UNIT3_FRONTROW_MIDDLEFLOOR</text>
  <text x="220" y="2401">DHW DEMAND INLET PIPE_UNIT3_FRONTROW_MIDDLEFLOOR</text>
  <text x="220" y="2421">DHW SUPPLY OUTLET PIPE_UNIT1_BACKROW_MIDDLEFLOOR</text>
  <text x="220" y="2441">MAINS MAKEUP PIPE_UNIT1_BACKROW_MIDDLEFLOOR</text>
  <text x="220" y="2461">DHW DEMAND INLET PIPE_UNIT1_BACKROW_MIDDLEFLOOR</text>
  <text x="220" y="2481">DHW SUPPLY OUTLET PIPE_UNIT2_BACKROW_MIDDLEFLOOR</text>
  <text x="220" y="2501">MAINS MAKEUP PIPE_UNIT2_BACKROW_MIDDLEFLOOR</text>
  <text x="220" y="2521">DHW DEMAND INLET PIPE_UNIT2_BACKROW_MIDDLEFLOOR</text>
  <text x="220" y="2541">DHW SUPPLY OUTLET PIPE_UNIT3_BACKROW_MIDDLEFLOOR</text>
  <text x="220" y="2561">MAINS MAKEUP PIPE_UNIT3_BACKROW_MIDDLEFLOOR</text>
  <text x="220" y="2581">DHW DEMAND INLET PIPE_UNIT3_BACKROW_MIDDLEFLOOR</text>
  <text x="220" y="2601">DHW SUPPLY OUTLET PIPE_UNIT1_FRONTROW_TOPFLOOR</text>
  <text x="220" y="2621">MAINS MAKEUP PIPE_UNIT1_FRONTROW_TOPFLOOR</text>
  <text x="220" y="2641">DHW DEMAND INLET PIPE_UNIT1_FRONTROW_TOPFLOOR</text>
  <text x="220" y="2661">DHW SUPPLY OUTLET PIPE_UNIT2_FRONTROW_TOPFLOOR</text>
  <text x="220" y="2681">MAINS MAKEUP PIPE_UNIT2_FRONTROW_TOPFLOOR</text>
  <text x="220" y="2701">DHW DEMAND INLET PIPE_UNIT2_FRONTROW_TOPFLOOR</text>
  <text x="220" y="2721">DHW SUPPLY OUTLET PIPE_UNIT3_FRONTROW_TOPFLOOR</text>
  <text x="220" y="2741">MAINS MAKEUP PIPE_UNIT3_FRONTROW_TOPFLOOR</text>
  <text x="220" y="2761">DHW DEMAND INLET PIPE_UNIT3_FRONTROW_TOPFLOOR</text>
  <text x="220" y="2781">DHW SUPPLY OUTLET PIPE_UNIT1_BACKROW_TOPFLOOR</text>
  <text x="220" y="2801">MAINS MAKEUP PIPE_UNIT1_BACKROW_TOPFLOOR</text>
  <text x="220" y="2821">DHW DEMAND INLET PIPE_UNIT1_BACKROW_TOPFLOOR</text>
  <text x="220" y="2841">DHW SUPPLY OUTLET PIPE_UNIT2_BACKROW_TOPFLOOR</text>
  <text x="220" y="2861">MAINS MAKEUP PIPE_UNIT2_BACKROW_TOPFLOOR</text>
  <text x="220" y="2881">DHW DEMAND INLET PIPE_UNIT2_BACKROW_TOPFLOOR</text>
  <text x="220" y="2901">DHW SUPPLY OUTLET PIPE_UNIT3_BACKROW_TOPFLOOR</text>
  <text x="220" y="2921">MAINS MAKEUP PIPE_UNIT3_BACKROW_TOPFLOOR</text>
  <text x="220" y="2941">DHW DEMAND INLET PIPE_UNIT3_BACKROW_TOPFLOOR</text>
  <text x="220" y="2961">DHW SINKS_UNIT1_FRONTROW_BOTTOMFLOOR</text>
  <text x="220" y="2981">DHW SHOWERS_UNIT1_FRONTROW_BOTTOMFLOOR</text>
  <text x="220" y="3001">DHW CLOTHESWASHER_UNIT1_FRONTROW_BOTTOMFLOOR</text>
  <text x="220" y="3021">DHW DISHWASHER_UNIT1_FRONTROW_BOTTOMFLOOR</text>
  <text x="220" y="3041">DHW BATHS_UNIT1_FRONTROW_BOTTOMFLOOR</text>
  <text x="220" y="3061">DHW SINKS_UNIT2_FRONTROW_BOTTOMFLOOR</text>
  <text x="220" y="3081">DHW SHOWERS_UNIT2_FRONTROW_BOTTOMFLOOR</text>
  <text x="220" y="3101">DHW CLOTHESWASHER_UNIT2_FRONTROW_BOTTOMFLOOR</text>
  <text x="220" y="3121">DHW DISHWASHER_UNIT2_FRONTROW_BOTTOMFLOOR</text>
  <text x="220" y="3141">DHW BATHS_UNIT2_FRONTROW_BOTTOMFLOOR</text>
  <text x="220" y="3161">DHW SINKS_UNIT3_FRONTROW_BOTTOMFLOOR</text>
  <text x="220" y="3181">DHW SHOWERS_UNIT3_FRONTROW_BOTTOMFLOOR</text>
  <text x="220" y="3201">DHW CLOTHESWASHER_UNIT3_FRONTROW_BOTTOMFLOOR</text>
  <text x="220" y="3221">DHW DISHWASHER_UNIT3_FRONTROW_BOTTOMFLOOR</text>
  <text x="220" y="3241">DHW BATHS_UNIT3_FRONTROW_BOTTOMFLOOR</text>
  <text x="220" y="3261">DHW SINKS_UNIT1_BACKROW_BOTTOMFLOOR</text>
  <text x="220" y="3281">DHW SHOWERS_UNIT1_BACKROW_BOTTOMFLOOR</text>
  <text x="220" y="3301">DHW CLOTHESWASHER_UNIT1_BACKROW_BOTTOMFLOOR</text>
  <text x="220" y="3321">DHW DISHWASHER_UNIT1_BACKROW_BOTTOMFLOOR</text>
  <text x="220" y="3341">DHW BATHS_UNIT1_BACKROW_BOTTOMFLOOR</text>
  <text x="220" y="3361">DHW SINKS_UNIT2_BACKROW_BOTTOMFLOOR</text>
  <text x="220" y="3381">DHW SHOWERS_UNIT2_BACKROW_BOTTOMFLOOR</text>
  <text x="220" y="3401">DHW CLOTHESWASHER_UNIT2_BACKROW_BOTTOMFLOOR</text>
  <text x="220" y="3421">DHW DISHWASHER_UNIT2_BACKROW_BOTTOMFLOOR</text>
  <text x="220" y="3441">DHW BATHS_UNIT2_BACKROW_BOTTOMFLOOR</text>
  <text x="220" y="3461">DHW SINKS_UNIT3_BACKROW_BOTTOMFLOOR</text>
  <text x="220" y="3481">DHW SHOWERS_UNIT3_BACKROW_BOTTOMFLOOR</text>
  <text x="220" y="3501">DHW CLOTHESWASHER_UNIT3_BACKROW_BOTTOMFLOOR</text>
  <text x="220" y="3521">DHW DISHWASHER_UNIT3_BACKROW_BOTTOMFLOOR</text>
  <text x="220" y="3541">DHW BATHS_UNIT3_BACKROW_BOTTOMFLOOR</text>
  <text x="220" y="3561">DHW SINKS_UNIT1_FRONTROW_MIDDLEFLOOR</text>
  <text x="220" y="3581">DHW SHOWERS_UNIT1_FRONTROW_MIDDLEFLOOR</text>
  <text x="220" y="3601">DHW CLOTHESWASHER_UNIT1_FRONTROW_MIDDLEFLOOR</text>
  <text x="220" y="3621">DHW DISHWASHER_UNIT1_FRONTROW_MIDDLEFLOOR</text>
  <text x="220" y="3641">DHW BATHS_UNIT1_FRONTROW_MIDDLEFLOOR</text>
  <text x="220" y="3661">DHW SINKS_UNIT2_FRONTROW_MIDDLEFLOOR</text>
  <text x="220" y="3681">DHW SHOWERS_UNIT2_FRONTROW_MIDDLEFLOOR</text>
  <text x="220" y="3701">DHW CLOTHESWASHER_UNIT2_FRONTROW_MIDDLEFLOOR</text>
  <text x="220" y="3721">DHW DISHWASHER_UNIT2_FRONTROW_MIDDLEFLOOR</text>
  <text x="220" y="3741">DHW BATHS_UNIT2_FRONTROW_MIDDLEFLOOR</text>
  <text x="220" y="3761">DHW SINKS_UNIT3_FRONTROW_MIDDLEFLOOR</text>
  <text x="220" y="3781">DHW SHOWERS_UNIT3_FRONTROW_MIDDLEFLOOR</text>
  <text x="220" y="3801">DHW CLOTHESWASHER_UNIT3_FRONTROW_MIDDLEFLOOR</text>
  <text x="220" y="3821">DHW DISHWASHER_UNIT3_FRONTROW_MIDDLEFLOOR</text>
  <text x="220" y="3841">DHW BATHS_UNIT3_FRONTROW_MIDDLEFLOOR</text>
  <text x="220" y="3861">DHW SINKS_UNIT1_BACKROW_MIDDLEFLOOR</text>
  <text x="220" y="3881">DHW SHOWERS_UNIT1_BACKROW_MIDDLEFLOOR</text>
  <text x="220" y="3901">DHW CLOTHESWASHER_UNIT1_BACKROW_MIDDLEFLOOR</text>
  <text x="220" y="3921">DHW DISHWASHER_UNIT1_BACKROW_MIDDLEFLOOR</text>
  <text x="220" y="3941">DHW BATHS_UNIT1_BACKROW_MIDDLEFLOOR</text>
  <text x="220" y="3961">DHW SINKS_UNIT2_BACKROW_MIDDLEFLOOR</text>
  <text x="220" y="3981">DHW SHOWERS_UNIT2_BACKROW_MIDDLEFLOOR</text>
  <text x="220" y="4001">DHW CLOTHESWASHER_UNIT2_BACKROW_MIDDLEFLOOR</text>
  <text x="220" y="4021">DHW DISHWASHER_UNIT2_BACKROW_MIDDLEFLOOR</text>
  <text x="220" y="4041">DHW BATHS_UNIT2_BACKROW_MIDDLEFLOOR</text>
  <text x="220" y="4061">DHW SINKS_UNIT3_BACKROW_MIDDLEFLOOR</text>
  <text x="220" y="4081">DHW SHOWERS_UNIT3_BACKROW_MIDDLEFLOOR</text>
  <text x="220" y="4101">DHW CLOTHESWASHER_UNIT3_BACKROW_MIDDLEFLOOR</text>
  <text x="220" y="4121">DHW DISHWASHER_UNIT3_BACKROW_MIDDLEFLOOR</text>
  <text x="220" y="4141">DHW BATHS_UNIT3_BACKROW_MIDDLEFLOOR</text>
  <text x="220" y="4161">DHW SINKS_UNIT1_FRONTROW_TOPFLOOR</text>
  <text x="220" y="4181">DHW SHOWERS_UNIT1_FRONTROW_TOPFLOOR</text>
  <text x="220" y="4201">DHW CLOTHESWASHER_UNIT1_FRONTROW_TOPFLOOR</text>
  <text x="220" y="4221">DHW DISHWASHER_UNIT1_FRONTROW_TOPFLOOR</text>
  <text x="220" y="4241">DHW BATHS_UNIT1_FRONTROW_TOPFLOOR</text>
  <text x="220" y="4261">DHW SINKS_UNIT2_FRONTROW_TOPFLOOR</text>
  <text x="220" y="4281">DHW SHOWERS_UNIT2_FRONTROW_TOPFLOOR</text>
  <text x="220" y="4301">DHW CLOTHESWASHER_UNIT2_FRONTROW_TOPFLOOR</text>
  <text x="220" y="4321">DHW DISHWASHER_UNIT2_FRONTROW_TOPFLOOR</text>
  <text x="220" y="4341">DHW BATHS_UNIT2_FRONTROW_TOPFLOOR</text>
  <text x="220" y="4361">DHW SINKS_UNIT3_FRONTROW_TOPFLOOR</text>
  <text x="220" y="4381">DHW SHOWERS_UNIT3_FRONTROW_TOPFLOOR</text>
  <text x="220" y="4401">DHW CLOTHESWASHER_UNIT3_FRONTROW_TOPFLOOR</text>
  <text x="220" y="4421">DHW DISHWASHER_UNIT3_FRONTROW_TOPFLOOR</text>
  <text x="220" y="4441">DHW BATHS_UNIT3_FRONTROW_TOPFLOOR</text>
  <text x="220" y="4461">DHW SINKS_UNIT1_BACKROW_TOPFLOOR</text>
  <text x="220" y="4481">DHW SHOWERS_UNIT1_BACKROW_TOPFLOOR</text>
  <text x="220" y="4501">DHW CLOTHESWASHER_UNIT1_BACKROW_TOPFLOOR</text>
  <text x="220" y="4521">DHW DISHWASHER_UNIT1_BACKROW_TOPFLOOR</text>
  <text x="220" y="4541">DHW BATHS_UNIT1_BACKROW_TOPFLOOR</text>
  <text x="220" y="4561">DHW SINKS_UNIT2_BACKROW_TOPFLOOR</text>
  <text x="220" y="4581">DHW SHOWERS_UNIT2_BACKROW_TOPFLOOR</text>
  <text x="220" y="4601">DHW CLOTHESWASHER_UNIT2_BACKROW_TOPFLOOR</text>
  <text x="220" y="4621">DHW DISHWASHER_UNIT2_BACKROW_TOPFLOOR</text>
  <text x="220" y="4641">DHW BATHS_UNIT2_BACKROW_TOPFLOOR</text>
  <text x="220" y="4661">DHW SINKS_UNIT3_BACKROW_TOPFLOOR</text>
  <text x="220" y="4681">DHW SHOWERS_UNIT3_BACKROW_TOPFLOOR</text>
  <text x="220" y="4701">DHW CLOTHESWASHER_UNIT3_BACKROW_TOPFLOOR</text>
  <text x="220" y="4721">DHW DISHWASHER_UNIT3_BACKROW_TOPFLOOR</text>
  <text x="220" y="4741">DHW BATHS_UNIT3_BACKROW_TOPFLOOR</text>
  <text x="220" y="4761">DHW DEMAND SPLITTER_UNIT1_FRONTROW_BOTTOMFLOOR</text>
  <text x="220" y="4781">DHW DEMAND MIXER_UNIT1_FRONTROW_BOTTOMFLOOR</text>
  <text x="220" y="4801">DHW SUPPLY SPLITTER_UNIT1_FRONTROW_BOTTOMFLOOR</text>
  <text x="220" y="4821">DHW SUPPLY MIXER_UNIT1_FRONTROW_BOTTOMFLOOR</text>
  <text x="220" y="4841">DHW DEMAND SPLITTER_UNIT2_FRONTROW_BOTTOMFLOOR</text>
  <text x="220" y="4861">DHW DEMAND MIXER_UNIT2_FRONTROW_BOTTOMFLOOR</text>
  <text x="220" y="4881">DHW SUPPLY SPLITTER_UNIT2_FRONTROW_BOTTOMFLOOR</text>
  <text x="220" y="4901">DHW SUPPLY MIXER_UNIT2_FRONTROW_BOTTOMFLOOR</text>
  <text x="220" y="4921">DHW DEMAND SPLITTER_UNIT3_FRONTROW_BOTTOMFLOOR</text>
  <text x="220" y="4941">DHW DEMAND MIXER_UNIT3_FRONTROW_BOTTOMFLOOR</text>
  <text x="220" y="4961">DHW SUPPLY SPLITTER_UNIT3_FRONTROW_BOTTOMFLOOR</text>
  <text x="220" y="4981">DHW SUPPLY MIXER_UNIT3_FRONTROW_BOTTOMFLOOR</text>
  <text x="220" y="5001">DHW DEMAND SPLITTER_UNIT1_BACKROW_BOTTOMFLOOR</text>
  <text x="220" y="5021">DHW DEMAND MIXER_UNIT1_BACKROW_BOTTOMFLOOR</text>
  <text x="220" y="5041">DHW SUPPLY SPLITTER_UNIT1_BACKROW_BOTTOMFLOOR</text>
  <text x="220" y="5061">DHW SUPPLY MIXER_UNIT1_BACKROW_BOTTOMFLOOR</text>
  <text x="220" y="5081">DHW DEMAND SPLITTER_UNIT2_BACKROW_BOTTOMFLOOR</text>
  <text x="220" y="5101">DHW DEMAND MIXER_UNIT2_BACKROW_BOTTOMFLOOR</text>
  <text x="220" y="5121">DHW SUPPLY SPLITTER_UNIT2_BACKROW_BOTTOMFLOOR</text>
  <text x="220" y="5141">DHW SUPPLY MIXER_UNIT2_BACKROW_BOTTOMFLOOR</text>
  <text x="220" y="5161">DHW DEMAND SPLITTER_UNIT3_BACKROW_BOTTOMFLOOR</text>
  <text x="220" y="5181">DHW DEMAND MIXER_UNIT3_BACKROW_BOTTOMFLOOR</text>
  <text x="220" y="5201">DHW SUPPLY SPLITTER_UNIT3_BACKROW_BOTTOMFLOOR</text>
  <text x="220" y="5221">DHW SUPPLY MIXER_UNIT3_BACKROW_BOTTOMFLOOR</text>
  <text x="220" y="5241">DHW DEMAND SPLITTER_UNIT1_FRONTROW_MIDDLEFLOOR</text>
  <text x="220" y="5261">DHW DEMAND MIXER_UNIT1_FRONTROW_MIDDLEFLOOR</text>
  <text x="220" y="5281">DHW SUPPLY SPLITTER_UNIT1_FRONTROW_MIDDLEFLOOR</text>
  <text x="220" y="5301">DHW SUPPLY MIXER_UNIT1_FRONTROW_MIDDLEFLOOR</text>
  <text x="220" y="5321">DHW DEMAND SPLITTER_UNIT2_FRONTROW_MIDDLEFLOOR</text>
  <text x="220" y="5341">DHW DEMAND MIXER_UNIT2_FRONTROW_MIDDLEFLOOR</text>
  <text x="220" y="5361">DHW SUPPLY SPLITTER_UNIT2_FRONTROW_MIDDLEFLOOR</text>
  <text x="220" y="5381">DHW SUPPLY MIXER_UNIT2_FRONTROW_MIDDLEFLOOR</text>
  <text x="220" y="5401">DHW DEMAND SPLITTER_UNIT3_FRONTROW_MIDDLEFLOOR</text>
  <text x="220" y="5421">DHW DEMAND MIXER_UNIT3_FRONTROW_MIDDLEFLOOR</text>
  <text x="220" y="5441">DHW SUPPLY SPLITTER_UNIT3_FRONTROW_MIDDLEFLOOR</text>
  <text x="220" y="5461">DHW SUPPLY MIXER_UNIT3_FRONTROW_MIDDLEFLOOR</text>
  <text x="220" y="5481">DHW DEMAND SPLITTER_UNIT1_BACKROW_MIDDLEFLOOR</text>
  <text x="220" y="5501">DHW DEMAND MIXER_UNIT1_BACKROW_MIDDLEFLOOR</text>
  <text x="220" y="5521">DHW SUPPLY SPLITTER_UNIT1_BACKROW_MIDDLEFLOOR</text>
  <text x="220" y="5541">DHW SUPPLY MIXER_UNIT1_BACKROW_MIDDLEFLOOR</text>
  <text x="220" y="5561">DHW DEMAND SPLITTER_UNIT2_BACKROW_MIDDLEFLOOR</text>
  <text x="220" y="5581">DHW DEMAND MIXER_UNIT2_BACKROW_MIDDLEFLOOR</text>
  <text x="220" y="5601">DHW SUPPLY SPLITTER_UNIT2_BACKROW_MIDDLEFLOOR</text>
  <text x="220" y="5621">DHW SUPPLY MIXER_UNIT2_BACKROW_MIDDLEFLOOR</text>
  <text x="220" y="5641">DHW DEMAND SPLITTER_UNIT3_BACKROW_MIDDLEFLOOR</text>
  <text x="220" y="5661">DHW DEMAND MIXER_UNIT3_BACKROW_MIDDLEFLOOR</text>
  <text x="220" y="5681">DHW SUPPLY SPLITTER_UNIT3_BACKROW_MIDDLEFLOOR</text>
  <text x="220" y="5701">DHW SUPPLY MIXER_UNIT3_BACKROW_MIDDLEFLOOR</text>
  <text x="220" y="5721">DHW DEMAND SPLITTER_UNIT1_FRONTROW_TOPFLOOR</text>
  <text x="220" y="5741">DHW DEMAND MIXER_UNIT1_FRONTROW_TOPFLOOR</text>
  <text x="220" y="5761">DHW SUPPLY SPLITTER_UNIT1_FRONTROW_TOPFLOOR</text>
  <text x="220" y="5781">DHW SUPPLY MIXER_UNIT1_FRONTROW_TOPFLOOR</text>
  <text x="220" y="5801">DHW DEMAND SPLITTER_UNIT2_FRONTROW_TOPFLOOR</text>
  <text x="220" y="5821">DHW DEMAND MIXER_UNIT2_FRONTROW_TOPFLOOR</text>
  <text x="220" y="5841">DHW SUPPLY SPLITTER_UNIT2_FRONTROW_TOPFLOOR</text>
  <text x="220" y="5861">DHW SUPPLY MIXER_UNIT2_FRONTROW_TOPFLOOR</text>
  <text x="220" y="5881">DHW DEMAND SPLITTER_UNIT3_FRONTROW_TOPFLOOR</text>
  <text x="220" y="5901">DHW DEMAND MIXER_UNIT3_FRONTROW_TOPFLOOR</text>
  <text x="220" y="5921">DHW SUPPLY SPLITTER_UNIT3_FRONTROW_TOPFLOOR</text>
  <text x="220" y="5941">DHW SUPPLY MIXER_UNIT3_FRONTROW_TOPFLOOR</text>
  <text x="220" y="5961">DHW DEMAND SPLITTER_UNIT1_BACKROW_TOPFLOOR</text>
  <text x="220" y="5981">DHW DEMAND MIXER_UNIT1_BACKROW_TOPFLOOR</text>
  <text x="220" y="6001">DHW SUPPLY SPLITTER_UNIT1_BACKROW_TOPFLOOR</text>
  <text x="220" y="6021">DHW SUPPLY MIXER_UNIT1_BACKROW_TOPFLOOR</text>
  <text x="220" y="6041">DHW DEMAND SPLITTER_UNIT2_BACKROW_TOPFLOOR</text>
  <text x="220" y="6061">DHW DEMAND MIXER_UNIT2_BACKROW_TOPFLOOR</text>
  <text x="220" y="6081">DHW SUPPLY SPLITTER_UNIT2_BACKROW_TOPFLOOR</text>
  <text x="220" y="6101">DHW SUPPLY MIXER_UNIT2_BACKROW_TOPFLOOR</text>
  <text x="220" y="6121">DHW DEMAND SPLITTER_UNIT3_BACKROW_TOPFLOOR</text>
  <text x="220" y="6141">DHW DEMAND MIXER_UNIT3_BACKROW_TOPFLOOR</text>
  <text x="220" y="6161">DHW SUPPLY SPLITTER_UNIT3_BACKROW_TOPFLOOR</text>
  <text x="220" y="6181">DHW SUPPLY MIXER_UNIT3_BACKROW_TOPFLOOR</text>
  <text x="220" y="6201">ZONE SUPPLY AIR SPLITTER_UNIT1_FRONTROW_BOTTOMFLOOR</text>
  <text x="220" y="6221">ZONE SUPPLY AIR SPLITTER_UNIT2_FRONTROW_BOTTOMFLOOR</text>
  <text x="220" y="6241">ZONE SUPPLY AIR SPLITTER_UNIT3_FRONTROW_BOTTOMFLOOR</text>
  <text x="220" y="6261">ZONE SUPPLY AIR SPLITTER_UNIT1_BACKROW_BOTTOMFLOOR</text>
  <text x="220" y="6281">ZONE SUPPLY AIR SPLITTER_UNIT2_BACKROW_BOTTOMFLOOR</text>
  <text x="220" y="6301">ZONE SUPPLY AIR SPLITTER_UNIT3_BACKROW_BOTTOMFLOOR</text>
  <text x="220" y="6321">ZONE SUPPLY AIR SPLITTER_UNIT1_FRONTROW_MIDDLEFLOOR</text>
  <text x="220" y="6341">ZONE SUPPLY AIR SPLITTER_UNIT2_FRONTROW_MIDDLEFLOOR</text>
  <text x="220" y="6361">ZONE SUPPLY AIR SPLITTER_UNIT3_FRONTROW_MIDDLEFLOOR</text>
  <text x="220" y="6381">ZONE SUPPLY AIR SPLITTER_UNIT1_BACKROW_MIDDLEFLOOR</text>
  <text x="220" y="6401">ZONE SUPPLY AIR SPLITTER_UNIT2_BACKROW_MIDDLEFLOOR</text>
  <text x="220" y="6421">ZONE SUPPLY AIR SPLITTER_UNIT3_BACKROW_MIDDLEFLOOR</text>
  <text x="220" y="6441">ZONE SUPPLY AIR SPLITTER_UNIT1_FRONTROW_TOPFLOOR</text>
  <text x="220" y="6461">ZONE SUPPLY AIR SPLITTER_UNIT2_FRONTROW_TOPFLOOR</text>
  <text x="220" y="6481">ZONE SUPPLY AIR SPLITTER_UNIT3_FRONTROW_TOPFLOOR</text>
  <text x="220" y="6501">ZONE SUPPLY AIR SPLITTER_UNIT1_BACKROW_TOPFLOOR</text>
  <text x="220" y="6521">ZONE SUPPLY AIR SPLITTER_UNIT2_BACKROW_TOPFLOOR</text>
  <text x="220" y="6541">ZONE SUPPLY AIR SPLITTER_UNIT3_BACKROW_TOPFLOOR</text>
  <text x="220" y="6561">OA_HEAT_RECOVERY_UNIT2_FRONTROW_BOTTOMFLOOR</text>
  <text x="220" y="6581">OA_HEAT_RECOVERY_UNIT2_FRONTROW_BOTTOMFLOOR</text>
  <text x="220" y="6601">OA_HEAT_RECOVERY_UNIT3_FRONTROW_BOTTOMFLOOR</text>
  <text x="220" y="6621">OA_HEAT_RECOVERY_UNIT3_FRONTROW_BOTTOMFLOOR</text>
  <text x="220" y="6641">OA_HEAT_RECOVERY_UNIT1_BACKROW_BOTTOMFLOOR</text>
  <text x="220" y="6661">OA_HEAT_RECOVERY_UNIT1_BACKROW_BOTTOMFLOOR</text>
  <text x="220" y="6681">OA_HEAT_RECOVERY_UNIT2_BACKROW_BOTTOMFLOOR</text>
  <text x="220" y="6701">OA_HEAT_RECOVERY_UNIT2_BACKROW_BOTTOMFLOOR</text>
  <text x="220" y="6721">OA_HEAT_RECOVERY_UNIT3_BACKROW_BOTTOMFLOOR</text>
  <text x="220" y="6741">OA_HEAT_RECOVERY_UNIT3_BACKROW_BOTTOMFLOOR</text>
  <text x="220" y="6761">OA_HEAT_RECOVERY_UNIT1_FRONTROW_MIDDLEFLOOR</text>
  <text x="220" y="6781">OA_HEAT_RECOVERY_UNIT1_FRONTROW_MIDDLEFLOOR</text>
  <text x="220" y="6801">OA_HEAT_RECOVERY_UNIT2_FRONTROW_MIDDLEFLOOR</text>
  <text x="220" y="6821">OA_HEAT_RECOVERY_UNIT2_FRONTROW_MIDDLEFLOOR</text>
  <text x="220" y="6841">OA_HEAT_RECOVERY_UNIT3_FRONTROW_MIDDLEFLOOR</text>
  <text x="220" y="6861">OA_HEAT_RECOVERY_UNIT3_FRONTROW_MIDDLEFLOOR</text>
  <text x="220" y="6881">OA_HEAT_RECOVERY_UNIT1_BACKROW_MIDDLEFLOOR</text>
  <text x="220" y="6901">OA_HEAT_RECOVERY_UNIT1_BACKROW_MIDDLEFLOOR</text>
  <text x="220" y="6921">OA_HEAT_RECOVERY_UNIT2_BACKROW_MIDDLEFLOOR</text>
  <text x="220" y="6941">OA_HEAT_RECOVERY_UNIT2_BACKROW_MIDDLEFLOOR</text>
  <text x="220" y="6961">OA_HEAT_RECOVERY_UNIT3_BACKROW_MIDDLEFLOOR</text>
  <text x="220" y="6981">OA_HEAT_RECOVERY_UNIT3_BACKROW_MIDDLEFLOOR</text>
  <text x="220" y="7001">OA_HEAT_RECOVERY_UNIT1_FRONTROW_TOPFLOOR</text>
  <text x="220" y="7021">OA_HEAT_RECOVERY_UNIT1_FRONTROW_TOPFLOOR</text>
  <text x="220" y="7041">OA_HEAT_RECOVERY_UNIT2_FRONTROW_TOPFLOOR</text>
  <text x="220" y="7061">OA_HEAT_RECOVERY_UNIT2_FRONTROW_TOPFLOOR</text>
  <text x="220" y="7081">OA_HEAT_RECOVERY_UNIT3_FRONTROW_TOPFLOOR</text>
  <text x="220" y="7101">OA_HEAT_RECOVERY_UNIT3_FRONTROW_TOPFLOOR</text>
  <text x="220" y="7121">OA_HEAT_RECOVERY_UNIT1_BACKROW_TOPFLOOR</text>
  <text x="220" y="7141">OA_HEAT_RECOVERY_UNIT1_BACKROW_TOPFLOOR</text>
  <text x="220" y="7161">OA_HEAT_RECOVERY_UNIT2_BACKROW_TOPFLOOR</text>
  <text x="220" y="7181">OA_HEAT_RECOVERY_UNIT2_BACKROW_TOPFLOOR</text>
  <text x="220" y="7201">OA_HEAT_RECOVERY_UNIT3_BACKROW_TOPFLOOR</text>
  <text x="220" y="7221">OA_HEAT_RECOVERY_UNIT3_BACKROW_TOPFLOOR</text>
  <text x="220" y="7241">SUPPLY FAN_UNIT1_FRONTROW_BOTTOMFLOOR</text>
  <text x="220" y="7261">OASUPPLYFAN_UNIT1_FRONTROW_BOTTOMFLOOR</text>
  <text x="220" y="7281">SUPPLY FAN_UNIT2_FRONTROW_BOTTOMFLOOR</text>
  <text x="220" y="7301">OASUPPLYFAN_UNIT2_FRONTROW_BOTTOMFLOOR</text>
  <text x="220" y="7321">OAEXHAUSTFAN_UNIT2_FRONTROW_BOTTOMFLOOR</text>
  <text x="220" y="7341">SUPPLY FAN_UNIT3_FRONTROW_BOTTOMFLOOR</text>
  <text x="220" y="7361">OASUPPLYFAN_UNIT3_FRONTROW_BOTTOMFLOOR</text>
  <text x="220" y="7381">OAEXHAUSTFAN_UNIT3_FRONTROW_BOTTOMFLOOR</text>
  <text x="220" y="7401">SUPPLY FAN_UNIT1_BACKROW_BOTTOMFLOOR</text>
  <text x="220" y="7421">OASUPPLYFAN_UNIT1_BACKROW_BOTTOMFLOOR</text>
  <text x="220" y="7441">OAEXHAUSTFAN_UNIT1_BACKROW_BOTTOMFLOOR</text>
  <text x="220" y="7461">SUPPLY FAN_UNIT2_BACKROW_BOTTOMFLOOR</text>
  <text x="220" y="7481">OASUPPLYFAN_UNIT2_BACKROW_BOTTOMFLOOR</text>
  <text x="220" y="7501">OAEXHAUSTFAN_UNIT2_BACKROW_BOTTOMFLOOR</text>
  <text x="220" y="7521">SUPPLY FAN_UNIT3_BACKROW_BOTTOMFLOOR</text>
  <text x="220" y="7541">OASUPPLYFAN_UNIT3_BACKROW_BOTTOMFLOOR</text>
  <text x="220" y="7561">OAEXHAUSTFAN_UNIT3_BACKROW_BOTTOMFLOOR</text>
  <text x="220" y="7581">SUPPLY FAN_UNIT1_FRONTROW_MIDDLEFLOOR</text>
  <text x="220" y="7601">OASUPPLYFAN_UNIT1_FRONTROW_MIDDLEFLOOR</text>
  <text x="220" y="7621">OAEXHAUSTFAN_UNIT1_FRONTROW_MIDDLEFLOOR</text>
  <text x="220" y="7641">SUPPLY FAN_UNIT2_FRONTROW_MIDDLEFLOOR</text>
  <text x="220" y="7661">OASUPPLYFAN_UNIT2_FRONTROW_MIDDLEFLOOR</text>
  <text x="220" y="7681">OAEXHAUSTFAN_UNIT2_FRONTROW_MIDDLEFLOOR</text>
  <text x="220" y="7701">SUPPLY FAN_UNIT3_FRONTROW_MIDDLEFLOOR</text>
  <text x="220" y="7721">OASUPPLYFAN_UNIT3_FRONTROW_MIDDLEFLOOR</text>
  <text x="220" y="7741">OAEXHAUSTFAN_UNIT3_FRONTROW_MIDDLEFLOOR</text>
  <text x="220" y="7761">SUPPLY FAN_UNIT1_BACKROW_MIDDLEFLOOR</text>
  <text x="220" y="7781">OASUPPLYFAN_UNIT1_BACKROW_MIDDLEFLOOR</text>
  <text x="220" y="7801">OAEXHAUSTFAN_UNIT1_BACKROW_MIDDLEFLOOR</text>
  <text x="220" y="7821">SUPPLY FAN_UNIT2_BACKROW_MIDDLEFLOOR</text>
  <text x="220" y="7841">OASUPPLYFAN_UNIT2_BACKROW_MIDDLEFLOOR</text>
  <text x="220" y="7861">OAEXHAUSTFAN_UNIT2_BACKROW_MIDDLEFLOOR</text>
  <text x="220" y="7881">SUPPLY FAN_UNIT3_BACKROW_MIDDLEFLOOR</text>
  <text x="220" y="7901">OASUPPLYFAN_UNIT3_BACKROW_MIDDLEFLOOR</text>
  <text x="220" y="7921">OAEXHAUSTFAN_UNIT3_BACKROW_MIDDLEFLOOR</text>
  <text x="220" y="7941">SUPPLY FAN_UNIT1_FRONTROW_TOPFLOOR</text>
  <text x="220" y="7961">OASUPPLYFAN_UNIT1_FRONTROW_TOPFLOOR</text>
  <text x="220" y="7981">OAEXHAUSTFAN_UNIT1_FRONTROW_TOPFLOOR</text>
  <text x="220" y="8001">SUPPLY FAN_UNIT2_FRONTROW_TOPFLOOR</text>
  <text x="220" y="8021">OASUPPLYFAN_UNIT2_FRONTROW_TOPFLOOR</text>
  <text x="220" y="8041">OAEXHAUSTFAN_UNIT2_FRONTROW_TOPFLOOR</text>
  <text x="220" y="8061">SUPPLY FAN_UNIT3_FRONTROW_TOPFLOOR</text>
  <text x="220" y="8081">OASUPPLYFAN_UNIT3_FRONTROW_TOPFLOOR</text>
  <text x="220" y="8101">OAEXHAUSTFAN_UNIT3_FRONTROW_TOPFLOOR</text>
  <text x="220" y="8121">SUPPLY FAN_UNIT1_BACKROW_TOPFLOOR</text>
  <text x="220" y="8141">OASUPPLYFAN_UNIT1_BACKROW_TOPFLOOR</text>
  <text x="220" y="8161">OAEXHAUSTFAN_UNIT1_BACKROW_TOPFLOOR</text>
  <text x="220" y="8181">SUPPLY FAN_UNIT2_BACKROW_TOPFLOOR</text>
  <text x="220" y="8201">OASUPPLYFAN_UNIT2_BACKROW_TOPFLOOR</text>
  <text x="220" y="8221">OAEXHAUSTFAN_UNIT2_BACKROW_TOPFLOOR</text>
  <text x="220" y="8241">SUPPLY FAN_UNIT3_BACKROW_TOPFLOOR</text>
  <text x="220" y="8261">OASUPPLYFAN_UNIT3_BACKROW_TOPFLOOR</text>
  <text x="220" y="8281">OAEXHAUSTFAN_UNIT3_BACKROW_TOPFLOOR</text>
  <text x="220" y="8301">ZONEDIRECTAIR_UNIT1_FRONTROW_BOTTOMFLOOR</text>
  <text x="220" y="8321">ZONEDIRECTAIR_UNIT2_FRONTROW_BOTTOMFLOOR</text>
  <text x="220" y="8341">ZONEDIRECTAIR_UNIT3_FRONTROW_BOTTOMFLOOR</text>
  <text x="220" y="8361">ZONEDIRECTAIR_UNIT1_BACKROW_BOTTOMFLOOR</text>
  <text x="220" y="8381">ZONEDIRECTAIR_UNIT2_BACKROW_BOTTOMFLOOR</text>
  <text x="220" y="8401">ZONEDIRECTAIR_UNIT3_BACKROW_BOTTOMFLOOR</text>
  <text x="220" y="8421">ZONEDIRECTAIR_UNIT1_FRONTROW_MIDDLEFLOOR</text>
  <text x="220" y="8441">ZONEDIRECTAIR_UNIT2_FRONTROW_MIDDLEFLOOR</text>
  <text x="220" y="8461">ZONEDIRECTAIR_UNIT3_FRONTROW_MIDDLEFLOOR</text>
  <text x="220" y="8481">ZONEDIRECTAIR_UNIT1_BACKROW_MIDDLEFLOOR</text>
  <text x="220" y="8501">ZONEDIRECTAIR_UNIT2_BACKROW_MIDDLEFLOOR</text>
  <text x="220" y="8521">ZONEDIRECTAIR_UNIT3_BACKROW_MIDDLEFLOOR</text>
  <text x="220" y="8541">ZONEDIRECTAIR_UNIT1_FRONTROW_TOPFLOOR</text>
  <text x="220" y="8561">ZONEDIRECTAIR_UNIT2_FRONTROW_TOPFLOOR</text>
  <text x="220" y="8581">ZONEDIRECTAIR_UNIT3_FRONTROW_TOPFLOOR</text>
  <text x="220" y="8601">ZONEDIRECTAIR_UNIT1_BACKROW_TOPFLOOR</text>
  <text x="220" y="8621">ZONEDIRECTAIR_UNIT2_BACKROW_TOPFLOOR</text>
  <text x="220" y="8641">ZONEDIRECTAIR_UNIT3_BACKROW_TOPFLOOR</text>
  <text x="220" y="8661">ZONE RETURN AIR MIXER_UNIT1_FRONTROW_BOTTOMFLOOR</text>
  <text x="220" y="8681">ZONE RETURN AIR MIXER_UNIT2_FRONTROW_BOTTOMFLOOR</text>
  <text x="220" y="8701">ZONE RETURN AIR MIXER_UNIT3_FRONTROW_BOTTOMFLOOR</text>
  <text x="220" y="8721">ZONE RETURN AIR MIXER_UNIT1_BACKROW_BOTTOMFLOOR</text>
  <text x="220" y="8741">ZONE RETURN AIR MIXER_UNIT2_BACKROW_BOTTOMFLOOR</text>
  <text x="220" y="8761">ZONE RETURN AIR MIXER_UNIT3_BACKROW_BOTTOMFLOOR</text>
  <text x="220" y="8781">ZONE RETURN AIR MIXER_UNIT1_FRONTROW_MIDDLEFLOOR</text>
  <text x="220" y="8801">ZONE RETURN AIR MIXER_UNIT2_FRONTROW_MIDDLEFLOOR</text>
  <text x="220" y="8821">ZONE RETURN AIR MIXER_UNIT3_FRONTROW_MIDDLEFLOOR</text>
  <text x="220" y="8841">ZONE RETURN AIR MIXER_UNIT1_BACKROW_MIDDLEFLOOR</text>
  <text x="220" y="8861">ZONE RETURN AIR MIXER_UNIT2_BACKROW_MIDDLEFLOOR</text>
  <text x="220" y="8881">ZONE RETURN AIR MIXER_UNIT3_BACKROW_MIDDLEFLOOR</text>
  <text x="220" y="8901">ZONE RETURN AIR MIXER_UNIT1_FRONTROW_TOPFLOOR</text>
  <text x="220" y="8921">ZONE RETURN AIR MIXER_UNIT2_FRONTROW_TOPFLOOR</text>
  <text x="220" y="8941">ZONE RETURN AIR MIXER_UNIT3_FRONTROW_TOPFLOOR</text>
  <text x="220" y="8961">ZONE RETURN AIR MIXER_UNIT1_BACKROW_TOPFLOOR</text>
  <text x="220" y="8981">ZONE RETURN AIR MIXER_UNIT2_BACKROW_TOPFLOOR</text>
  <text x="220" y="9001">ZONE RETURN AIR MIXER_UNIT3_BACKROW_TOPFLOOR</text>
  <text x="220" y="9021">MAIN FUEL HEATING COIL_UNIT1_FRONTROW_BOTTOMFLOOR</text>
  <text x="220" y="9041">MAIN FUEL HEATING COIL_UNIT2_FRONTROW_BOTTOMFLOOR</text>
  <text x="220" y="9061">MAIN FUEL HEATING COIL_UNIT3_FRONTROW_BOTTOMFLOOR</text>
  <text x="220" y="9081">MAIN FUEL HEATING COIL_UNIT1_BACKROW_BOTTOMFLOOR</text>
  <text x="220" y="9101">MAIN FUEL HEATING COIL_UNIT2_BACKROW_BOTTOMFLOOR</text>
  <text x="220" y="9121">MAIN FUEL HEATING COIL_UNIT3_BACKROW_BOTTOMFLOOR</text>
  <text x="220" y="9141">MAIN FUEL HEATING COIL_UNIT1_FRONTROW_MIDDLEFLOOR</text>
  <text x="220" y="9161">MAIN FUEL HEATING COIL_UNIT2_FRONTROW_MIDDLEFLOOR</text>
  <text x="220" y="9181">MAIN FUEL HEATING COIL_UNIT3_FRONTROW_MIDDLEFLOOR</text>
  <text x="220" y="9201">MAIN FUEL HEATING COIL_UNIT1_BACKROW_MIDDLEFLOOR</text>
  <text x="220" y="9221">MAIN FUEL HEATING COIL_UNIT2_BACKROW_MIDDLEFLOOR</text>
  <text x="220" y="9241">MAIN FUEL HEATING COIL_UNIT3_BACKROW_MIDDLEFLOOR</text>
  <text x="220" y="9261">MAIN FUEL HEATING COIL_UNIT1_FRONTROW_TOPFLOOR</text>
  <text x="220" y="9281">MAIN FUEL HEATING COIL_UNIT2_FRONTROW_TOPFLOOR</text>
  <text x="220" y="9301">MAIN FUEL HEATING COIL_UNIT3_FRONTROW_TOPFLOOR</text>
  <text x="220" y="9321">MAIN FUEL HEATING COIL_UNIT1_BACKROW_TOPFLOOR</text>
  <text x="220" y="9341">MAIN FUEL HEATING COIL_UNIT2_BACKROW_TOPFLOOR</text>
  <text x="220" y="9361">MAIN FUEL HEATING COIL_UNIT3_BACKROW_TOPFLOOR</text>
  <text x="220" y="9381">DX COOLING COIL_UNIT1_FRONTROW_BOTTOMFLOOR</text>
  <text x="220" y="9401">DX COOLING COIL_UNIT2_FRONTROW_BOTTOMFLOOR</text>
  <text x="220" y="9421">DX COOLING COIL_UNIT3_FRONTROW_BOTTOMFLOOR</text>
  <text x="220" y="9441">DX COOLING COIL_UNIT1_BACKROW_BOTTOMFLOOR</text>
  <text x="220" y="9461">DX COOLING COIL_UNIT2_BACKROW_BOTTOMFLOOR</text>
  <text x="220" y="9481">DX COOLING COIL_UNIT3_BACKROW_BOTTOMFLOOR</text>
  <text x="220" y="9501">DX COOLING COIL_UNIT1_FRONTROW_MIDDLEFLOOR</text>
  <text x="220" y="9521">DX COOLING COIL_UNIT2_FRONTROW_MIDDLEFLOOR</text>
  <text x="220" y="9541">DX COOLING COIL_UNIT3_FRONTROW_MIDDLEFLOOR</text>
  <text x="220" y="9561">DX COOLING COIL_UNIT1_BACKROW_MIDDLEFLOOR</text>
  <text x="220" y="9581">DX COOLING COIL_UNIT2_BACKROW_MIDDLEFLOOR</text>
  <text x="220" y="9601">DX COOLING COIL_UNIT3_BACKROW_MIDDLEFLOOR</text>
  <text x="220" y="9621">DX COOLING COIL_UNIT1_FRONTROW_TOPFLOOR</text>
  <text x="220" y="9641">DX COOLING COIL_UNIT2_FRONTROW_TOPFLOOR</text>
  <text x="220" y="9661">DX COOLING COIL_UNIT3_FRONTROW_TOPFLOOR</text>
  <text x="220" y="9681">DX COOLING COIL_UNIT1_BACKROW_TOPFLOOR</text>
  <text x="220" y="9701">DX COOLING COIL_UNIT2_BACKROW_TOPFLOOR</text>
  <text x="220" y="9721">DX COOLING COIL_UNIT3_BACKROW_TOPFLOOR</text>
  <text x="220" y="9741">MAINS PRESSURE_UNIT1_FRONTROW_BOTTOMFLOOR</text>
  <text x="220" y="9761">MAINS PRESSURE_UNIT2_FRONTROW_BOTTOMFLOOR</text>
  <text x="220" y="9781">MAINS PRESSURE_UNIT3_FRONTROW_BOTTOMFLOOR</text>
  <text x="220" y="9801">MAINS PRESSURE_UNIT1_BACKROW_BOTTOMFLOOR</text>
  <text x="220" y="9821">MAINS PRESSURE_UNIT2_BACKROW_BOTTOMFLOOR</text>
  <text x="220" y="9841">MAINS PRESSURE_UNIT3_BACKROW_BOTTOMFLOOR</text>
  <text x="220" y="9861">MAINS PRESSURE_UNIT1_FRONTROW_MIDDLEFLOOR</text>
  <text x="220" y="9881">MAINS PRESSURE_UNIT2_FRONTROW_MIDDLEFLOOR</text>
  <text x="220" y="9901">MAINS PRESSURE_UNIT3_FRONTROW_MIDDLEFLOOR</text>
  <text x="220" y="9921">MAINS PRESSURE_UNIT1_BACKROW_MIDDLEFLOOR</text>
  <text x="220" y="9941">MAINS PRESSURE_UNIT2_BACKROW_MIDDLEFLOOR</text>
  <text x="220" y="9961">MAINS PRESSURE_UNIT3_BACKROW_MIDDLEFLOOR</text>
  <text x="220" y="9981">MAINS PRESSURE_UNIT1_FRONTROW_TOPFLOOR</text>
  <text x="220" y="10001">MAINS PRESSURE_UNIT2_FRONTROW_TOPFLOOR</text>
  <text x="220" y="10021">MAINS PRESSURE_UNIT3_FRONTROW_TOPFLOOR</text>
  <text x="220" y="10041">MAINS PRESSURE_UNIT1_BACKROW_TOPFLOOR</text>
  <text x="220" y="10061">MAINS PRESSURE_UNIT2_BACKROW_TOPFLOOR</text>
  <text x="220" y="10081">MAINS PRESSURE_UNIT3_BACKROW_TOPFLOOR</text>
  <text x="220" y="10101">LIVING_UNIT2_FRONTROW_BOTTOMFLOOR</text>
  <text x="220" y="10121">LIVING_UNIT3_FRONTROW_BOTTOMFLOOR</text>
  <text x="220" y="10141">LIVING_UNIT1_BACKROW_BOTTOMFLOOR</text>
  <text x="220" y="10161">LIVING_UNIT2_BACKROW_BOTTOMFLOOR</text>
  <text x="220" y="10181">LIVING_UNIT3_BACKROW_BOTTOMFLOOR</text>
  <text x="220" y="10201">LIVING_UNIT1_FRONTROW_MIDDLEFLOOR</text>
  <text x="220" y="10221">LIVING_UNIT2_FRONTROW_MIDDLEFLOOR</text>
  <text x="220" y="10241">LIVING_UNIT3_FRONTROW_MIDDLEFLOOR</text>
  <text x="220" y="10261">LIVING_UNIT1_BACKROW_MIDDLEFLOOR</text>
  <text x="220" y="10281">LIVING_UNIT2_BACKROW_MIDDLEFLOOR</text>
  <text x="220" y="10301">LIVING_UNIT3_BACKROW_MIDDLEFLOOR</text>
  <text x="220" y="10321">LIVING_UNIT1_FRONTROW_TOPFLOOR</text>
  <text x="220" y="10341">LIVING_UNIT2_FRONTROW_TOPFLOOR</text>
  <text x="220" y="10361">LIVING_UNIT3_FRONTROW_TOPFLOOR</text>
  <text x="220" y="10381">LIVING_UNIT1_BACKROW_TOPFLOOR</text>
  <text x="220" y="10401">LIVING_UNIT2_BACKROW_TOPFLOOR</text>
  <text x="220" y="10421">LIVING_UNIT3_BACKROW_TOPFLOOR</text>
  <text x="200" y="10461">
The following are not supported: objects related to controls or ZoneHVAC:IdealLoadsAirSystem</text>
</g>
</svg>
