<?xml version="1.0"?>
<svg width="250mm" height="200mm" viewBox="0 0 2750 1500"
     xmlns="http://www.w3.org/2000/svg"
     xmlns:xlink="http://www.w3.org/1999/xlink"
     xmlns:ev="http://www.w3.org/2001/xml-events">
<g font-family="Verdana" font-size="8">
  <rect x="700" y="20" width="200" height="20" style="fill:wheat; stroke: black;"/>5
  <text x="702" y="33">PIPE ADIABATIC 1</text>
  <rect x="1200" y="60" width="200" height="20" style="fill:wheat; stroke: black;"/>6
  <text x="1202" y="73">PIPE ADIABATIC 2</text>
  <rect x="1450" y="60" width="200" height="20" style="fill:wheat; stroke: black;"/>7
  <text  x="1452" y="68">DOMESTIC HOT WATER LOOP DEMAND
  <tspan x="1452" y="76">INLET PIPE</tspan></text>
  <rect x="1950" y="100" width="200" height="20" style="fill:wheat; stroke: black;"/>8
  <text  x="1952" y="108">DOMESTIC HOT WATER LOOP DEMAND
  <tspan x="1952" y="116">BYPASS PIPE</tspan></text>
  <rect x="2450" y="100" width="200" height="20" style="fill:wheat; stroke: black;"/>9
  <text  x="2452" y="108">DOMESTIC HOT WATER LOOP DEMAND
  <tspan x="2452" y="116">OUTLET PIPE</tspan></text>
  <rect x="700" y="220" width="200" height="20" style="fill:wheat; stroke: black;"/>10
  <text x="702" y="233">PIPE ADIABATIC 3</text>
  <rect x="1200" y="220" width="200" height="20" style="fill:wheat; stroke: black;"/>11
  <text x="1202" y="233">PIPE ADIABATIC 4</text>
  <rect x="1450" y="220" width="200" height="20" style="fill:wheat; stroke: black;"/>12
  <text x="1452" y="233">PIPE ADIABATIC 6</text>
  <rect x="1950" y="220" width="200" height="20" style="fill:wheat; stroke: black;"/>13
  <text x="1952" y="233">PIPE ADIABATIC 5</text>
  <rect x="1950" y="300" width="200" height="20" style="fill:wheat; stroke: black;"/>14
  <text  x="1952" y="308">RES BOILER GAS HYDRONIC HEAT LOOP
  <tspan x="1952" y="316">DEMAND BYPASS PIPE</tspan></text>
  <rect x="2450" y="300" width="200" height="20" style="fill:wheat; stroke: black;"/>15
  <text x="2452" y="313">PIPE ADIABATIC 7</text>
  <rect x="1950" y="60" width="200" height="20" style="fill:wheat; stroke: black;"/>16
  <text x="1952" y="73">WATER USE CONNECTIONS 1</text>
  <rect x="1700" y="60" width="200" height="20" style="fill:wheat; stroke: black;"/>17
  <text  x="1702" y="68">DOMESTIC HOT WATER LOOP DEMAND
  <tspan x="1702" y="76">SPLITTER</tspan></text>
  <rect x="2200" y="100" width="200" height="20" style="fill:wheat; stroke: black;"/>18
  <text x="2202" y="113">DOMESTIC HOT WATER LOOP DEMAND MIXER</text>
  <rect x="700" y="60" width="200" height="20" style="fill:orange; stroke: black;"/>19
  <text x="702" y="73">RES WH</text>
  <rect x="450" y="20" width="200" height="20" style="fill:wheat; stroke: black;"/>20
  <text  x="452" y="28">DOMESTIC HOT WATER LOOP SUPPLY
  <tspan x="452" y="36">SPLITTER</tspan></text>
  <rect x="950" y="60" width="200" height="20" style="fill:wheat; stroke: black;"/>21
  <text x="952" y="73">DOMESTIC HOT WATER LOOP SUPPLY MIXER</text>
  <rect x="1700" y="220" width="200" height="20" style="fill:wheat; stroke: black;"/>22
  <text  x="1702" y="228">RES BOILER GAS HYDRONIC HEAT LOOP
  <tspan x="1702" y="236">DEMAND SPLITTER</tspan></text>
  <rect x="2200" y="300" width="200" height="20" style="fill:wheat; stroke: black;"/>23
  <text  x="2202" y="308">RES BOILER GAS HYDRONIC HEAT LOOP
  <tspan x="2202" y="316">DEMAND MIXER</tspan></text>
  <rect x="700" y="180" width="200" height="20" style="fill:indianred; stroke: black;"/>24
  <text x="702" y="193">RES BOILER GAS</text>
  <rect x="450" y="180" width="200" height="20" style="fill:wheat; stroke: black;"/>25
  <text  x="452" y="188">RES BOILER GAS HYDRONIC HEAT LOOP
  <tspan x="452" y="196">SUPPLY SPLITTER</tspan></text>
  <rect x="950" y="220" width="200" height="20" style="fill:wheat; stroke: black;"/>26
  <text  x="952" y="228">RES BOILER GAS HYDRONIC HEAT LOOP
  <tspan x="952" y="236">SUPPLY MIXER</tspan></text>
  <rect x="1950" y="260" width="200" height="20" style="fill:salmon; stroke: black;"/>27
  <text  x="1952" y="268">RES BOILER GAS LIVING ZONE
  <tspan x="1952" y="276">CONVECTIVE WATER</tspan></text>
  <rect x="200" y="20" width="200" height="20" style="fill:springgreen; stroke: black;"/>28
  <text x="202" y="33">PUMP VARIABLE SPEED 1</text>
  <rect x="200" y="180" width="200" height="20" style="fill:springgreen; stroke: black;"/>29
  <text x="202" y="193">RES BOILER GAS HYDRONIC PUMP</text>
  <line x1="900" y1="30" x2="950" y2="70" style="stroke:black;"/>
  <line x1="1400" y1="70" x2="1450" y2="70" style="stroke:black;"/>
  <line x1="1650" y1="70" x2="1700" y2="70" style="stroke:black;"/>
  <line x1="2150" y1="110" x2="2200" y2="110" style="stroke:black;"/>
  <line x1="900" y1="230" x2="950" y2="230" style="stroke:black;"/>
  <line x1="1400" y1="230" x2="1450" y2="230" style="stroke:black;"/>
  <line x1="1650" y1="230" x2="1700" y2="230" style="stroke:black;"/>
  <line x1="2150" y1="230" x2="2200" y2="310" style="stroke:black;"/>
  <line x1="2150" y1="310" x2="2200" y2="310" style="stroke:black;"/>
  <line x1="2150" y1="70" x2="2200" y2="110" style="stroke:black;"/>
  <line x1="1900" y1="70" x2="1950" y2="70" style="stroke:black;"/>
  <line x1="1900" y1="70" x2="1950" y2="110" style="stroke:black;"/>
  <line x1="2400" y1="110" x2="2450" y2="110" style="stroke:black;"/>
  <line x1="900" y1="70" x2="950" y2="70" style="stroke:black;"/>
  <line x1="650" y1="30" x2="700" y2="30" style="stroke:black;"/>
  <line x1="650" y1="30" x2="700" y2="70" style="stroke:black;"/>
  <line x1="1150" y1="70" x2="1200" y2="70" style="stroke:black;"/>
  <line x1="1900" y1="230" x2="1950" y2="230" style="stroke:black;"/>
  <line x1="1900" y1="230" x2="1950" y2="270" style="stroke:black;"/>
  <line x1="1900" y1="230" x2="1950" y2="310" style="stroke:black;"/>
  <line x1="2400" y1="310" x2="2450" y2="310" style="stroke:black;"/>
  <line x1="900" y1="190" x2="950" y2="230" style="stroke:black;"/>
  <line x1="650" y1="190" x2="700" y2="190" style="stroke:black;"/>
  <line x1="650" y1="190" x2="700" y2="230" style="stroke:black;"/>
  <line x1="1150" y1="230" x2="1200" y2="230" style="stroke:black;"/>
  <line x1="2150" y1="270" x2="2200" y2="310" style="stroke:black;"/>
  <line x1="400" y1="30" x2="450" y2="30" style="stroke:black;"/>
  <line x1="400" y1="190" x2="450" y2="190" style="stroke:black;"/>
  <line x1="200" y1="30" x2="175" y2="30" style="stroke:black;"/>
  <line x1="175" y1="30" x2="175" y2="0" style="stroke:black;"/>
  <line x1="175" y1="0" x2="2675" y2="0" style="stroke:black;"/>
  <line x1="2675" y1="0" x2="2675" y2="110" style="stroke:black;"/>
  <line x1="2675" y1="110" x2="2650" y2="110" style="stroke:black;"/>
  <line x1="200" y1="190" x2="175" y2="190" style="stroke:black;"/>
  <line x1="175" y1="190" x2="175" y2="160" style="stroke:black;"/>
  <line x1="175" y1="160" x2="2675" y2="160" style="stroke:black;"/>
  <line x1="2675" y1="160" x2="2675" y2="310" style="stroke:black;"/>
  <line x1="2675" y1="310" x2="2650" y2="310" style="stroke:black;"/>
  <text x="200" y="360">Unused Non-Parent Objects:</text>
  <text x="220" y="380">LIVING ZONE</text>
  <text x="220" y="400">OutdoorAir:Node</text>
  <text x="220" y="420">SETPOINT MANAGER SCHEDULED 1</text>
  <text x="220" y="440">RES BOILER GAS HYDRONIC HEAT LOOP SETPOINT MANAGER</text>
  <text x="200" y="480">
The following are not supported: objects related to controls or ZoneHVAC:IdealLoadsAirSystem</text>
</g>
</svg>
