<?xml version="1.0"?>
<svg width="250mm" height="200mm" viewBox="0 0 2750 1500"
     xmlns="http://www.w3.org/2000/svg"
     xmlns:xlink="http://www.w3.org/1999/xlink"
     xmlns:ev="http://www.w3.org/2001/xml-events">
<g font-family="Verdana" font-size="8">
  <line x1="2050" y1="550" x2="1050" y2="30" style="stroke:silver;"/>
  <line x1="2050" y1="190" x2="800" y2="30" style="stroke:silver;"/>
  <rect x="1200" y="20" width="200" height="20" style="fill:chartreuse; stroke: black;"/>1
  <text x="1202" y="33">LIVING ZONE</text>
  <rect x="700" y="340" width="200" height="20" style="fill:orange; stroke: black;"/>2
  <text x="702" y="353">RES WH</text>
  <rect x="200" y="660" width="200" height="20" style="fill:snow; stroke: black;"/>3
  <text x="202" y="673">OutdoorAir:NodeList</text>
  <rect x="700" y="140" width="200" height="20" style="fill:wheat; stroke: black;"/>9
  <text x="702" y="153">CHILLED WATER LOOP CHILLER BYPASS</text>
  <rect x="1200" y="140" width="200" height="20" style="fill:wheat; stroke: black;"/>10
  <text x="1202" y="153">CHILLED WATER LOOP SUPPLY OUTLET</text>
  <rect x="1450" y="140" width="200" height="20" style="fill:wheat; stroke: black;"/>11
  <text x="1452" y="153">CHILLED WATER LOOP DEMAND INLET</text>
  <rect x="1950" y="140" width="200" height="20" style="fill:wheat; stroke: black;"/>12
  <text x="1952" y="153">CHILLED WATER LOOP COIL BYPASS</text>
  <rect x="1950" y="220" width="200" height="20" style="fill:wheat; stroke: black;"/>13
  <text  x="1952" y="228">CHILLED WATER LOOP DEMAND BYPASS
  <tspan x="1952" y="236">PIPE</tspan></text>
  <rect x="2450" y="220" width="200" height="20" style="fill:wheat; stroke: black;"/>14
  <text x="2452" y="233">CHILLED WATER LOOP DEMAND OUTLET</text>
  <rect x="700" y="300" width="200" height="20" style="fill:wheat; stroke: black;"/>15
  <text x="702" y="313">PIPE ADIABATIC 1</text>
  <rect x="1200" y="340" width="200" height="20" style="fill:wheat; stroke: black;"/>16
  <text x="1202" y="353">PIPE ADIABATIC 2</text>
  <rect x="1450" y="340" width="200" height="20" style="fill:wheat; stroke: black;"/>17
  <text  x="1452" y="348">DOMESTIC HOT WATER LOOP DEMAND
  <tspan x="1452" y="356">INLET PIPE</tspan></text>
  <rect x="1950" y="380" width="200" height="20" style="fill:wheat; stroke: black;"/>18
  <text  x="1952" y="388">DOMESTIC HOT WATER LOOP DEMAND
  <tspan x="1952" y="396">BYPASS PIPE</tspan></text>
  <rect x="2450" y="380" width="200" height="20" style="fill:wheat; stroke: black;"/>19
  <text  x="2452" y="388">DOMESTIC HOT WATER LOOP DEMAND
  <tspan x="2452" y="396">OUTLET PIPE</tspan></text>
  <rect x="700" y="500" width="200" height="20" style="fill:wheat; stroke: black;"/>20
  <text  x="702" y="508">HOT WATER LOOP SUPPLY EQUIPMENT
  <tspan x="702" y="516">BYPASS</tspan></text>
  <rect x="1200" y="500" width="200" height="20" style="fill:wheat; stroke: black;"/>21
  <text x="1202" y="513">HOT WATER LOOP SUPPLY OUTLET</text>
  <rect x="1450" y="500" width="200" height="20" style="fill:wheat; stroke: black;"/>22
  <text x="1452" y="513">HOT WATER LOOP DEMAND INLET</text>
  <rect x="1950" y="500" width="200" height="20" style="fill:wheat; stroke: black;"/>23
  <text x="1952" y="513">HOT WATER LOOP COIL BYPASS</text>
  <rect x="1950" y="580" width="200" height="20" style="fill:wheat; stroke: black;"/>24
  <text x="1952" y="593">HOT WATER LOOP DEMAND BYPASS PIPE</text>
  <rect x="2450" y="580" width="200" height="20" style="fill:wheat; stroke: black;"/>25
  <text x="2452" y="593">HOT WATER LOOP DEMAND OUTLET</text>
  <rect x="1700" y="140" width="200" height="20" style="fill:wheat; stroke: black;"/>26
  <text x="1702" y="153">CHILLED WATER LOOP DEMAND SPLITTER</text>
  <rect x="2200" y="220" width="200" height="20" style="fill:wheat; stroke: black;"/>27
  <text x="2202" y="233">CHILLED WATER LOOP DEMAND MIXER</text>
  <rect x="700" y="100" width="200" height="20" style="fill:powderblue; stroke: black;"/>28
  <text x="702" y="113">90.1-2013    CHILLER 0</text>
  <rect x="450" y="100" width="200" height="20" style="fill:wheat; stroke: black;"/>30
  <text x="452" y="113">CHILLED WATER LOOP SUPPLY SPLITTER</text>
  <rect x="950" y="140" width="200" height="20" style="fill:wheat; stroke: black;"/>31
  <text x="952" y="153">CHILLED WATER LOOP SUPPLY MIXER</text>
  <rect x="1950" y="340" width="200" height="20" style="fill:wheat; stroke: black;"/>32
  <text x="1952" y="353">WATER USE CONNECTIONS 1</text>
  <rect x="1700" y="340" width="200" height="20" style="fill:wheat; stroke: black;"/>33
  <text  x="1702" y="348">DOMESTIC HOT WATER LOOP DEMAND
  <tspan x="1702" y="356">SPLITTER</tspan></text>
  <rect x="2200" y="380" width="200" height="20" style="fill:wheat; stroke: black;"/>34
  <text x="2202" y="393">DOMESTIC HOT WATER LOOP DEMAND MIXER</text>
  <rect x="450" y="300" width="200" height="20" style="fill:wheat; stroke: black;"/>35
  <text  x="452" y="308">DOMESTIC HOT WATER LOOP SUPPLY
  <tspan x="452" y="316">SPLITTER</tspan></text>
  <rect x="950" y="340" width="200" height="20" style="fill:wheat; stroke: black;"/>36
  <text x="952" y="353">DOMESTIC HOT WATER LOOP SUPPLY MIXER</text>
  <rect x="1700" y="500" width="200" height="20" style="fill:wheat; stroke: black;"/>37
  <text x="1702" y="513">HOT WATER LOOP DEMAND SPLITTER</text>
  <rect x="2200" y="580" width="200" height="20" style="fill:wheat; stroke: black;"/>38
  <text x="2202" y="593">HOT WATER LOOP DEMAND MIXER</text>
  <rect x="700" y="460" width="200" height="20" style="fill:indianred; stroke: black;"/>39
  <text x="702" y="473">BOILER</text>
  <rect x="450" y="460" width="200" height="20" style="fill:wheat; stroke: black;"/>40
  <text x="452" y="473">HOT WATER LOOP SUPPLY SPLITTER</text>
  <rect x="950" y="500" width="200" height="20" style="fill:wheat; stroke: black;"/>41
  <text x="952" y="513">HOT WATER LOOP SUPPLY MIXER</text>
  <rect x="200" y="20" width="200" height="20" style="fill:lawngreen; stroke: black;"/>42
  <text x="202" y="33">LIVING ZONE FCU OA MIXER</text>
  <rect x="1950" y="540" width="200" height="20" style="fill:salmon; stroke: black;"/>43
  <text x="1952" y="553">LIVING ZONE FCU HEATING COIL</text>
  <rect x="950" y="20" width="200" height="20" style="fill:salmon; stroke: black;"/>44
  <text x="952" y="33">LIVING ZONE FCU HEATING COIL</text>
  <rect x="1950" y="180" width="200" height="20" style="fill:skyblue; stroke: black;"/>45
  <text x="1952" y="193">LIVING ZONE FCU COOLING COIL</text>
  <rect x="700" y="20" width="200" height="20" style="fill:skyblue; stroke: black;"/>46
  <text x="702" y="33">LIVING ZONE FCU COOLING COIL</text>
  <rect x="450" y="20" width="200" height="20" style="fill:silver; stroke: black;"/>47
  <text x="452" y="33">LIVING ZONE FAN COIL FAN</text>
  <rect x="200" y="100" width="200" height="20" style="fill:springgreen; stroke: black;"/>48
  <text x="202" y="113">CENTRAL CLG PUMP</text>
  <rect x="200" y="300" width="200" height="20" style="fill:springgreen; stroke: black;"/>49
  <text x="202" y="313">PUMP VARIABLE SPEED 1</text>
  <rect x="200" y="460" width="200" height="20" style="fill:springgreen; stroke: black;"/>50
  <text x="202" y="473">CENTRAL HTG PUMP</text>
  <line x1="900" y1="350" x2="950" y2="350" style="stroke:black;"/>
  <line x1="900" y1="150" x2="950" y2="150" style="stroke:black;"/>
  <line x1="1400" y1="150" x2="1450" y2="150" style="stroke:black;"/>
  <line x1="1650" y1="150" x2="1700" y2="150" style="stroke:black;"/>
  <line x1="2150" y1="150" x2="2200" y2="230" style="stroke:black;"/>
  <line x1="2150" y1="230" x2="2200" y2="230" style="stroke:black;"/>
  <line x1="900" y1="310" x2="950" y2="350" style="stroke:black;"/>
  <line x1="1400" y1="350" x2="1450" y2="350" style="stroke:black;"/>
  <line x1="1650" y1="350" x2="1700" y2="350" style="stroke:black;"/>
  <line x1="2150" y1="390" x2="2200" y2="390" style="stroke:black;"/>
  <line x1="900" y1="510" x2="950" y2="510" style="stroke:black;"/>
  <line x1="1400" y1="510" x2="1450" y2="510" style="stroke:black;"/>
  <line x1="1650" y1="510" x2="1700" y2="510" style="stroke:black;"/>
  <line x1="2150" y1="510" x2="2200" y2="590" style="stroke:black;"/>
  <line x1="2150" y1="590" x2="2200" y2="590" style="stroke:black;"/>
  <line x1="1900" y1="150" x2="1950" y2="150" style="stroke:black;"/>
  <line x1="1900" y1="150" x2="1950" y2="190" style="stroke:black;"/>
  <line x1="1900" y1="150" x2="1950" y2="230" style="stroke:black;"/>
  <line x1="2400" y1="230" x2="2450" y2="230" style="stroke:black;"/>
  <line x1="900" y1="110" x2="950" y2="150" style="stroke:black;"/>
  <line x1="650" y1="110" x2="700" y2="110" style="stroke:black;"/>
  <line x1="650" y1="110" x2="700" y2="150" style="stroke:black;"/>
  <line x1="1150" y1="150" x2="1200" y2="150" style="stroke:black;"/>
  <line x1="2150" y1="350" x2="2200" y2="390" style="stroke:black;"/>
  <line x1="1900" y1="350" x2="1950" y2="350" style="stroke:black;"/>
  <line x1="1900" y1="350" x2="1950" y2="390" style="stroke:black;"/>
  <line x1="2400" y1="390" x2="2450" y2="390" style="stroke:black;"/>
  <line x1="650" y1="310" x2="700" y2="310" style="stroke:black;"/>
  <line x1="650" y1="310" x2="700" y2="350" style="stroke:black;"/>
  <line x1="1150" y1="350" x2="1200" y2="350" style="stroke:black;"/>
  <line x1="1900" y1="510" x2="1950" y2="510" style="stroke:black;"/>
  <line x1="1900" y1="510" x2="1950" y2="550" style="stroke:black;"/>
  <line x1="1900" y1="510" x2="1950" y2="590" style="stroke:black;"/>
  <line x1="2400" y1="590" x2="2450" y2="590" style="stroke:black;"/>
  <line x1="900" y1="470" x2="950" y2="510" style="stroke:black;"/>
  <line x1="650" y1="470" x2="700" y2="470" style="stroke:black;"/>
  <line x1="650" y1="470" x2="700" y2="510" style="stroke:black;"/>
  <line x1="1150" y1="510" x2="1200" y2="510" style="stroke:black;"/>
  <line x1="400" y1="30" x2="450" y2="30" style="stroke:black;"/>
  <line x1="2150" y1="550" x2="2200" y2="590" style="stroke:black;"/>
  <line x1="1150" y1="30" x2="1200" y2="30" style="stroke:black;"/>
  <line x1="2150" y1="190" x2="2200" y2="230" style="stroke:black;"/>
  <line x1="900" y1="30" x2="950" y2="30" style="stroke:black;"/>
  <line x1="650" y1="30" x2="700" y2="30" style="stroke:black;"/>
  <line x1="400" y1="110" x2="450" y2="110" style="stroke:black;"/>
  <line x1="400" y1="310" x2="450" y2="310" style="stroke:black;"/>
  <line x1="400" y1="470" x2="450" y2="470" style="stroke:black;"/>
  <line x1="200" y1="30" x2="175" y2="30" style="stroke:black;"/>
  <line x1="175" y1="30" x2="175" y2="0" style="stroke:black;"/>
  <line x1="175" y1="0" x2="1425" y2="0" style="stroke:black;"/>
  <line x1="1425" y1="0" x2="1425" y2="30" style="stroke:black;"/>
  <line x1="1425" y1="30" x2="1400" y2="30" style="stroke:black;"/>
  <line x1="200" y1="110" x2="175" y2="110" style="stroke:black;"/>
  <line x1="175" y1="110" x2="175" y2="80" style="stroke:black;"/>
  <line x1="175" y1="80" x2="2675" y2="80" style="stroke:black;"/>
  <line x1="2675" y1="80" x2="2675" y2="230" style="stroke:black;"/>
  <line x1="2675" y1="230" x2="2650" y2="230" style="stroke:black;"/>
  <line x1="200" y1="310" x2="175" y2="310" style="stroke:black;"/>
  <line x1="175" y1="310" x2="175" y2="280" style="stroke:black;"/>
  <line x1="175" y1="280" x2="2675" y2="280" style="stroke:black;"/>
  <line x1="2675" y1="280" x2="2675" y2="390" style="stroke:black;"/>
  <line x1="2675" y1="390" x2="2650" y2="390" style="stroke:black;"/>
  <line x1="200" y1="470" x2="175" y2="470" style="stroke:black;"/>
  <line x1="175" y1="470" x2="175" y2="440" style="stroke:black;"/>
  <line x1="175" y1="440" x2="2675" y2="440" style="stroke:black;"/>
  <line x1="2675" y1="440" x2="2675" y2="590" style="stroke:black;"/>
  <line x1="2675" y1="590" x2="2650" y2="590" style="stroke:black;"/>
  <text x="200" y="720">Unused Non-Parent Objects:</text>
  <text x="220" y="740">OutdoorAir:Node</text>
  <text x="220" y="760">CHILLED WATER LOOP SETPOINT MANAGER</text>
  <text x="220" y="780">SETPOINT MANAGER SCHEDULED 1</text>
  <text x="220" y="800">HOT WATER LOOP SETPOINT MANAGER</text>
  <text x="200" y="840">
The following are not supported: objects related to controls or ZoneHVAC:IdealLoadsAirSystem</text>
</g>
</svg>
