  0
SECTION
  2
ENTITIES
999
DXF created from WinEPDraw
999
Program Version,EPDraw, Version 3.0
999
Polygon Action,TRIANGULATE 3DFACE
999
Text - True North
  0
TEXT
  8
1
  6
Continuous
 62
  3
 10
      -14.65760
 20
      -13.84302
 30
        0.10000
 40
 .25
  1
True North
 41
 0.0
  7
MONOTXT
210
0.0
220
0.0
230
1.0
999
Text - Building Title
  0
TEXT
  8
1
  6
Continuous
 62
  3
 10
      -17.65760
 20
      -17.84302
 30
        0.10000
 40
 .4
  1
Building - BUILDING 1
 41
 0.0
  7
MONOTXT
210
0.0
220
0.0
230
1.0
999
North Arrow Stem
  0
3DFACE
  8
1
 62
  3
 10
      -13.65760
 20
      -13.84302
 30
        0.10000
 11
      -13.65760
 21
      -13.84302
 31
        0.00000
 12
      -13.65760
 22
      -16.84302
 32
        0.00000
 13
      -13.65760
 23
      -16.84302
 33
        0.10000
999
North Arrow Head 1
  0
3DFACE
  8
1
 62
  3
 10
      -13.65760
 20
      -13.84302
 30
        0.10000
 11
      -13.65760
 21
      -13.84302
 31
        0.00000
 12
      -14.15760
 22
      -14.70905
 32
        0.00000
 13
      -14.15760
 23
      -14.70905
 33
        0.10000
999
North Arrow Head 2
  0
3DFACE
  8
1
 62
  3
 10
      -13.65760
 20
      -13.84302
 30
        0.10000
 11
      -13.65760
 21
      -13.84302
 31
        0.00000
 12
      -13.15760
 22
      -14.70905
 32
        0.00000
 13
      -13.15760
 23
      -14.70905
 33
        0.10000
999
North Arrow Side 1
  0
3DFACE
  8
1
 62
  3
 10
      -14.15760
 20
      -12.34302
 30
        0.10000
 11
      -14.15760
 21
      -12.34302
 31
        0.00000
 12
      -14.15760
 22
      -13.34302
 32
        0.00000
 13
      -14.15760
 23
      -13.34302
 33
        0.10000
999
North Arrow Side 2
  0
3DFACE
  8
1
 62
  3
 10
      -14.15760
 20
      -12.34302
 30
        0.10000
 11
      -14.15760
 21
      -12.34302
 31
        0.00000
 12
      -13.15760
 22
      -13.34302
 32
        0.00000
 13
      -13.15760
 23
      -13.34302
 33
        0.10000
999
North Arrow Side 3
  0
3DFACE
  8
1
 62
  3
 10
      -13.15760
 20
      -12.34302
 30
        0.10000
 11
      -13.15760
 21
      -12.34302
 31
        0.00000
 12
      -13.15760
 22
      -13.34302
 32
        0.00000
 13
      -13.15760
 23
      -13.34302
 33
        0.10000
999
Zone Names
999
Zone=1:LIVING_ZONE
999
Building Shading:SURFACE 6 - RES EAVES
  0
3DFACE
  8
Building Shading
 62
195
 10
        0.00000
 20
      -14.40462
 30
        4.87680
 11
        7.66390
 21
      -14.40462
 31
        4.87680
 12
        7.66390
 22
      -13.79502
 32
        4.87680
 13
        0.00000
 23
      -13.79502
 33
        4.87680
999
Building Shading:SURFACE 6 - RES EAVES 1
  0
3DFACE
  8
Building Shading
 62
195
 10
        8.27350
 20
      -13.79502
 30
        4.87680
 11
        8.27350
 21
        0.00000
 31
        4.87680
 12
        7.66390
 22
        0.00000
 32
        4.87680
 13
        7.66390
 23
      -13.79502
 33
        4.87680
999
Building Shading:SURFACE 6 - RES EAVES 2
  0
3DFACE
  8
Building Shading
 62
195
 10
        7.66390
 20
        0.60960
 30
        4.87680
 11
        0.00000
 21
        0.60960
 31
        4.87680
 12
        0.00000
 22
        0.00000
 32
        4.87680
 13
        7.66390
 23
        0.00000
 33
        4.87680
999
Building Shading:SURFACE 6 - RES EAVES 3
  0
3DFACE
  8
Building Shading
 62
195
 10
       -0.60960
 20
        0.00000
 30
        4.87680
 11
       -0.60960
 21
      -13.79502
 31
        4.87680
 12
        0.00000
 22
      -13.79502
 32
        4.87680
 13
        0.00000
 23
        0.00000
 33
        4.87680
999
Building Shading:RES NEIGHBORS LEFT
  0
3DFACE
  8
Building Shading
 62
195
 10
       -3.65760
 20
      -13.79502
 30
        0.00000
 11
       -3.65760
 21
      -13.79502
 31
        4.87680
 12
       -3.65760
 22
        0.00000
 32
        4.87680
 13
       -3.65760
 23
        0.00000
 33
        0.00000
999
Building Shading:RES NEIGHBORS RIGHT
  0
3DFACE
  8
Building Shading
 62
195
 10
       11.32150
 20
        0.00000
 30
        0.00000
 11
       11.32150
 21
        0.00000
 31
        4.87680
 12
       11.32150
 22
      -13.79502
 32
        4.87680
 13
       11.32150
 23
      -13.79502
 33
        0.00000
999
Building Shading:CORRIDOR SHADING
  0
3DFACE
  8
Building Shading
 62
195
 10
        0.00000
 20
      -16.84302
 30
        4.87680
 11
        7.66390
 21
      -16.84302
 31
        4.87680
 12
        7.66390
 22
      -13.79502
 32
        4.87680
 13
        0.00000
 23
      -13.79502
 33
        4.87680
999
Building Shading:SURFACE 2 - WINDOW 1 SHADING SURFACE
  0
3DFACE
  8
Building Shading
 62
195
 10
        0.00000
 20
       -3.69778
 30
        4.57200
 11
        0.00000
 21
       -3.69778
 31
        3.41218
 12
        0.00000
 22
       -4.56786
 32
        3.41218
 13
        0.00000
 23
       -4.56786
 33
        4.57200
999
Building Shading:SURFACE 2 - WINDOW 2 SHADING SURFACE
  0
3DFACE
  8
Building Shading
 62
195
 10
        0.00000
 20
       -4.62882
 30
        4.57200
 11
        0.00000
 21
       -4.62882
 31
        3.41218
 12
        0.00000
 22
       -5.49890
 32
        3.41218
 13
        0.00000
 23
       -5.49890
 33
        4.57200
999
Building Shading:SURFACE 2 - WINDOW 3 SHADING SURFACE
  0
3DFACE
  8
Building Shading
 62
195
 10
        0.00000
 20
       -8.29612
 30
        4.57200
 11
        0.00000
 21
       -8.29612
 31
        3.41218
 12
        0.00000
 22
       -9.16620
 32
        3.41218
 13
        0.00000
 23
       -9.16620
 33
        4.57200
999
Building Shading:SURFACE 2 - WINDOW 4 SHADING SURFACE
  0
3DFACE
  8
Building Shading
 62
195
 10
        0.00000
 20
       -9.22716
 30
        4.57200
 11
        0.00000
 21
       -9.22716
 31
        3.41218
 12
        0.00000
 22
      -10.09724
 32
        3.41218
 13
        0.00000
 23
      -10.09724
 33
        4.57200
999
Building Shading:SURFACE 3 - WINDOW 1 SHADING SURFACE
  0
3DFACE
  8
Building Shading
 62
195
 10
        5.88859
 20
        0.00000
 30
        4.57200
 11
        5.88859
 21
        0.00000
 31
        3.57379
 12
        5.13975
 22
        0.00000
 32
        3.57379
 13
        5.13975
 23
        0.00000
 33
        4.57200
999
Building Shading:SURFACE 3 - WINDOW 2 SHADING SURFACE
  0
3DFACE
  8
Building Shading
 62
195
 10
        5.07879
 20
        0.00000
 30
        4.57200
 11
        5.07879
 21
        0.00000
 31
        3.57379
 12
        4.32994
 22
        0.00000
 32
        3.57379
 13
        4.32994
 23
        0.00000
 33
        4.57200
999
Building Shading:SURFACE 3 - WINDOW 3 SHADING SURFACE
  0
3DFACE
  8
Building Shading
 62
195
 10
        2.92906
 20
        0.00000
 30
        4.57200
 11
        2.92906
 21
        0.00000
 31
        3.57379
 12
        2.18021
 22
        0.00000
 32
        3.57379
 13
        2.18021
 23
        0.00000
 33
        4.57200
999
Building Shading:SURFACE 4 - WINDOW 1 SHADING SURFACE
  0
3DFACE
  8
Building Shading
 62
195
 10
        7.66390
 20
      -10.09724
 30
        4.57200
 11
        7.66390
 21
      -10.09724
 31
        3.41218
 12
        7.66390
 22
       -9.22716
 32
        3.41218
 13
        7.66390
 23
       -9.22716
 33
        4.57200
999
Building Shading:SURFACE 4 - WINDOW 2 SHADING SURFACE
  0
3DFACE
  8
Building Shading
 62
195
 10
        7.66390
 20
       -9.16620
 30
        4.57200
 11
        7.66390
 21
       -9.16620
 31
        3.41218
 12
        7.66390
 22
       -8.29612
 32
        3.41218
 13
        7.66390
 23
       -8.29612
 33
        4.57200
999
Building Shading:SURFACE 4 - WINDOW 3 SHADING SURFACE
  0
3DFACE
  8
Building Shading
 62
195
 10
        7.66390
 20
       -5.49890
 30
        4.57200
 11
        7.66390
 21
       -5.49890
 31
        3.41218
 12
        7.66390
 22
       -4.62882
 32
        3.41218
 13
        7.66390
 23
       -4.62882
 33
        4.57200
999
Building Shading:SURFACE 4 - WINDOW 4 SHADING SURFACE
  0
3DFACE
  8
Building Shading
 62
195
 10
        7.66390
 20
       -4.56786
 30
        4.57200
 11
        7.66390
 21
       -4.56786
 31
        3.41218
 12
        7.66390
 22
       -3.69778
 32
        3.41218
 13
        7.66390
 23
       -3.69778
 33
        4.57200
999
Building Shading:SURFACE 5 - WINDOW 1 SHADING SURFACE
  0
3DFACE
  8
Building Shading
 62
195
 10
        2.47441
 20
      -13.79502
 30
        4.57200
 11
        2.47441
 21
      -13.79502
 31
        3.57379
 12
        3.22326
 22
      -13.79502
 32
        3.57379
 13
        3.22326
 23
      -13.79502
 33
        4.57200
999
Building Shading:SURFACE 5 - WINDOW 2 SHADING SURFACE
  0
3DFACE
  8
Building Shading
 62
195
 10
        3.28422
 20
      -13.79502
 30
        4.57200
 11
        3.28422
 21
      -13.79502
 31
        3.57379
 12
        4.03306
 22
      -13.79502
 32
        3.57379
 13
        4.03306
 23
      -13.79502
 33
        4.57200
999
Building Shading:SURFACE 5 - WINDOW 3 SHADING SURFACE
  0
3DFACE
  8
Building Shading
 62
195
 10
        5.08440
 20
      -13.79502
 30
        4.57200
 11
        5.08440
 21
      -13.79502
 31
        3.57379
 12
        5.83324
 22
      -13.79502
 32
        3.57379
 13
        5.83324
 23
      -13.79502
 33
        4.57200
999
LIVING ZONE:SURFACE 2
  0
3DFACE
  8
LIVING_ZONE
 62
 43
 10
        0.00000
 20
        0.00000
 30
        4.87680
 11
        0.00000
 21
        0.00000
 31
        2.43840
 12
        0.00000
 22
      -13.79502
 32
        2.43840
 13
        0.00000
 23
      -13.79502
 33
        4.87680
999
LIVING ZONE:SURFACE 2 - WINDOW 1
  0
3DFACE
  8
LIVING_ZONE
 62
143
 10
        0.00000
 20
       -3.69778
 30
        4.57200
 11
        0.00000
 21
       -3.69778
 31
        3.41218
 12
        0.00000
 22
       -4.56786
 32
        3.41218
 13
        0.00000
 23
       -4.56786
 33
        4.57200
999
LIVING ZONE:SURFACE 2 - WINDOW 2
  0
3DFACE
  8
LIVING_ZONE
 62
143
 10
        0.00000
 20
       -4.62882
 30
        4.57200
 11
        0.00000
 21
       -4.62882
 31
        3.41218
 12
        0.00000
 22
       -5.49890
 32
        3.41218
 13
        0.00000
 23
       -5.49890
 33
        4.57200
999
LIVING ZONE:SURFACE 2 - WINDOW 3
  0
3DFACE
  8
LIVING_ZONE
 62
143
 10
        0.00000
 20
       -8.29612
 30
        4.57200
 11
        0.00000
 21
       -8.29612
 31
        3.41218
 12
        0.00000
 22
       -9.16620
 32
        3.41218
 13
        0.00000
 23
       -9.16620
 33
        4.57200
999
LIVING ZONE:SURFACE 2 - WINDOW 4
  0
3DFACE
  8
LIVING_ZONE
 62
143
 10
        0.00000
 20
       -9.22716
 30
        4.57200
 11
        0.00000
 21
       -9.22716
 31
        3.41218
 12
        0.00000
 22
      -10.09724
 32
        3.41218
 13
        0.00000
 23
      -10.09724
 33
        4.57200
999
LIVING ZONE:SURFACE 3
  0
3DFACE
  8
LIVING_ZONE
 62
 43
 10
        7.66390
 20
        0.00000
 30
        4.87680
 11
        7.66390
 21
        0.00000
 31
        2.43840
 12
        0.00000
 22
        0.00000
 32
        2.43840
 13
        0.00000
 23
        0.00000
 33
        4.87680
999
LIVING ZONE:SURFACE 3 - WINDOW 1
  0
3DFACE
  8
LIVING_ZONE
 62
143
 10
        5.88859
 20
        0.00000
 30
        4.57200
 11
        5.88859
 21
        0.00000
 31
        3.57379
 12
        5.13975
 22
        0.00000
 32
        3.57379
 13
        5.13975
 23
        0.00000
 33
        4.57200
999
LIVING ZONE:SURFACE 3 - WINDOW 2
  0
3DFACE
  8
LIVING_ZONE
 62
143
 10
        5.07879
 20
        0.00000
 30
        4.57200
 11
        5.07879
 21
        0.00000
 31
        3.57379
 12
        4.32994
 22
        0.00000
 32
        3.57379
 13
        4.32994
 23
        0.00000
 33
        4.57200
999
LIVING ZONE:SURFACE 3 - WINDOW 3
  0
3DFACE
  8
LIVING_ZONE
 62
143
 10
        2.92906
 20
        0.00000
 30
        4.57200
 11
        2.92906
 21
        0.00000
 31
        3.57379
 12
        2.18021
 22
        0.00000
 32
        3.57379
 13
        2.18021
 23
        0.00000
 33
        4.57200
999
LIVING ZONE:SURFACE 4
  0
3DFACE
  8
LIVING_ZONE
 62
 43
 10
        7.66390
 20
      -13.79502
 30
        4.87680
 11
        7.66390
 21
      -13.79502
 31
        2.43840
 12
        7.66390
 22
        0.00000
 32
        2.43840
 13
        7.66390
 23
        0.00000
 33
        4.87680
999
LIVING ZONE:SURFACE 4 - WINDOW 1
  0
3DFACE
  8
LIVING_ZONE
 62
143
 10
        7.66390
 20
      -10.09724
 30
        4.57200
 11
        7.66390
 21
      -10.09724
 31
        3.41218
 12
        7.66390
 22
       -9.22716
 32
        3.41218
 13
        7.66390
 23
       -9.22716
 33
        4.57200
999
LIVING ZONE:SURFACE 4 - WINDOW 2
  0
3DFACE
  8
LIVING_ZONE
 62
143
 10
        7.66390
 20
       -9.16620
 30
        4.57200
 11
        7.66390
 21
       -9.16620
 31
        3.41218
 12
        7.66390
 22
       -8.29612
 32
        3.41218
 13
        7.66390
 23
       -8.29612
 33
        4.57200
999
LIVING ZONE:SURFACE 4 - WINDOW 3
  0
3DFACE
  8
LIVING_ZONE
 62
143
 10
        7.66390
 20
       -5.49890
 30
        4.57200
 11
        7.66390
 21
       -5.49890
 31
        3.41218
 12
        7.66390
 22
       -4.62882
 32
        3.41218
 13
        7.66390
 23
       -4.62882
 33
        4.57200
999
LIVING ZONE:SURFACE 4 - WINDOW 4
  0
3DFACE
  8
LIVING_ZONE
 62
143
 10
        7.66390
 20
       -4.56786
 30
        4.57200
 11
        7.66390
 21
       -4.56786
 31
        3.41218
 12
        7.66390
 22
       -3.69778
 32
        3.41218
 13
        7.66390
 23
       -3.69778
 33
        4.57200
999
LIVING ZONE:SURFACE 5
  0
3DFACE
  8
LIVING_ZONE
 62
 43
 10
        1.04866
 20
      -13.79502
 30
        2.43840
 11
        7.66390
 21
      -13.79502
 31
        2.43840
 12
        7.66390
 22
      -13.79502
 32
        4.87680
 13
        1.04866
 23
      -13.79502
 33
        4.87680
999
LIVING ZONE:SURFACE 5 - WINDOW 1
  0
3DFACE
  8
LIVING_ZONE
 62
143
 10
        2.47441
 20
      -13.79502
 30
        4.57200
 11
        2.47441
 21
      -13.79502
 31
        3.57379
 12
        3.22326
 22
      -13.79502
 32
        3.57379
 13
        3.22326
 23
      -13.79502
 33
        4.57200
999
LIVING ZONE:SURFACE 5 - WINDOW 2
  0
3DFACE
  8
LIVING_ZONE
 62
143
 10
        3.28422
 20
      -13.79502
 30
        4.57200
 11
        3.28422
 21
      -13.79502
 31
        3.57379
 12
        4.03306
 22
      -13.79502
 32
        3.57379
 13
        4.03306
 23
      -13.79502
 33
        4.57200
999
LIVING ZONE:SURFACE 5 - WINDOW 3
  0
3DFACE
  8
LIVING_ZONE
 62
143
 10
        5.08440
 20
      -13.79502
 30
        4.57200
 11
        5.08440
 21
      -13.79502
 31
        3.57379
 12
        5.83324
 22
      -13.79502
 32
        3.57379
 13
        5.83324
 23
      -13.79502
 33
        4.57200
999
LIVING ZONE:SURFACE 7
  0
3DFACE
  8
LIVING_ZONE
 62
 43
 10
        0.12700
 20
      -13.79502
 30
        4.87680
 11
        0.12700
 21
      -13.79502
 31
        2.43840
 12
        1.04866
 22
      -13.79502
 32
        2.43840
 13
        1.04866
 23
      -13.79502
 33
        4.87680
999
LIVING ZONE:UNIT 1 - SURFACE 5 - DOOR
  0
3DFACE
  8
LIVING_ZONE
 62
 45
 10
        0.15240
 20
      -13.79502
 30
        4.57200
 11
        0.15240
 21
      -13.79502
 31
        2.43840
 12
        1.02326
 22
      -13.79502
 32
        2.43840
 13
        1.02326
 23
      -13.79502
 33
        4.57200
999
LIVING ZONE:SURFACE 8
  0
3DFACE
  8
LIVING_ZONE
 62
 43
 10
        0.12700
 20
      -13.79502
 30
        2.43840
 11
        0.12700
 21
      -13.79502
 31
        4.87680
 12
        0.00000
 22
      -13.79502
 32
        4.87680
 13
        0.00000
 23
      -13.79502
 33
        2.43840
999
LIVING ZONE:SURFACE 1
  0
3DFACE
  8
LIVING_ZONE
 62
  8
 10
        0.00000
 20
      -13.79502
 30
        2.43840
 11
        0.00000
 21
        0.00000
 31
        2.43840
 12
        7.66390
 22
        0.00000
 32
        2.43840
 13
        7.66390
 23
      -13.79502
 33
        2.43840
999
LIVING ZONE:SURFACE 6
  0
3DFACE
  8
LIVING_ZONE
 62
 15
 10
        7.66390
 20
      -13.79502
 30
        4.87680
 11
        7.66390
 21
        0.00000
 31
        4.87680
 12
        0.00000
 22
        0.00000
 32
        4.87680
 13
        0.00000
 23
      -13.79502
 33
        4.87680
  0
ENDSEC
  0
EOF
