<?xml version="1.0"?>
<svg width="250mm" height="200mm" viewBox="0 0 2500 1500"
     xmlns="http://www.w3.org/2000/svg"
     xmlns:xlink="http://www.w3.org/1999/xlink"
     xmlns:ev="http://www.w3.org/2001/xml-events">
<g font-family="Verdana" font-size="8">
  <text x="1" y="1">ERROR - COULD NOT COMPLETE DRAWING! Examine ERR file for possible explanation. Last error message is:   "Error: No node connection found after the following object: HEAT PUMP WATER HEATER FAN_UNIT1_FRONTROW_BOTTOMFLOOR"</text>
  <rect x="200" y="20" width="1" height="1" style="fill:aliceblue; stroke: black;"/>55
  <text  x="202" y="9">HEAT PUMP WATER HEATER
  <tspan x="202" y="17">EVAPORATOR_UNIT1_FRONTROW_BOTTOMFLOOR</tspan></text>
  <rect x="200" y="20" width="1" height="1" style="fill:silver; stroke: black;"/>181
  <text  x="202" y="9">HEAT PUMP WATER HEATER
  <tspan x="202" y="17">FAN_UNIT1_FRONTROW_BOTTOMFLOOR</tspan></text>
  <line x1="201" y1="20" x2="200" y2="20" style="stroke:black;"/>
  <text x="200" y="61">Unused Non-Parent Objects:</text>
  <text x="220" y="81">LIVING_UNIT1_FRONTROW_BOTTOMFLOOR</text>
  <text x="220" y="101">LIVING_UNIT2_FRONTROW_BOTTOMFLOOR</text>
  <text x="220" y="121">LIVING_UNIT3_FRONTROW_BOTTOMFLOOR</text>
  <text x="220" y="141">LIVING_UNIT1_BACKROW_BOTTOMFLOOR</text>
  <text x="220" y="161">LIVING_UNIT2_BACKROW_BOTTOMFLOOR</text>
  <text x="220" y="181">LIVING_UNIT3_BACKROW_BOTTOMFLOOR</text>
  <text x="220" y="201">LIVING_UNIT1_FRONTROW_MIDDLEFLOOR</text>
  <text x="220" y="221">LIVING_UNIT2_FRONTROW_MIDDLEFLOOR</text>
  <text x="220" y="241">LIVING_UNIT3_FRONTROW_MIDDLEFLOOR</text>
  <text x="220" y="261">LIVING_UNIT1_BACKROW_MIDDLEFLOOR</text>
  <text x="220" y="281">LIVING_UNIT2_BACKROW_MIDDLEFLOOR</text>
  <text x="220" y="301">LIVING_UNIT3_BACKROW_MIDDLEFLOOR</text>
  <text x="220" y="321">LIVING_UNIT1_FRONTROW_TOPFLOOR</text>
  <text x="220" y="341">LIVING_UNIT2_FRONTROW_TOPFLOOR</text>
  <text x="220" y="361">LIVING_UNIT3_FRONTROW_TOPFLOOR</text>
  <text x="220" y="381">LIVING_UNIT1_BACKROW_TOPFLOOR</text>
  <text x="220" y="401">LIVING_UNIT2_BACKROW_TOPFLOOR</text>
  <text x="220" y="421">LIVING_UNIT3_BACKROW_TOPFLOOR</text>
  <text x="220" y="441">DX COOLING COIL_UNIT1_FRONTROW_BOTTOMFLOOR</text>
  <text x="220" y="461">DX COOLING COIL_UNIT2_FRONTROW_BOTTOMFLOOR</text>
  <text x="220" y="481">DX COOLING COIL_UNIT3_FRONTROW_BOTTOMFLOOR</text>
  <text x="220" y="501">DX COOLING COIL_UNIT1_BACKROW_BOTTOMFLOOR</text>
  <text x="220" y="521">DX COOLING COIL_UNIT2_BACKROW_BOTTOMFLOOR</text>
  <text x="220" y="541">DX COOLING COIL_UNIT3_BACKROW_BOTTOMFLOOR</text>
  <text x="220" y="561">DX COOLING COIL_UNIT1_FRONTROW_MIDDLEFLOOR</text>
  <text x="220" y="581">DX COOLING COIL_UNIT2_FRONTROW_MIDDLEFLOOR</text>
  <text x="220" y="601">DX COOLING COIL_UNIT3_FRONTROW_MIDDLEFLOOR</text>
  <text x="220" y="621">DX COOLING COIL_UNIT1_BACKROW_MIDDLEFLOOR</text>
  <text x="220" y="641">DX COOLING COIL_UNIT2_BACKROW_MIDDLEFLOOR</text>
  <text x="220" y="661">DX COOLING COIL_UNIT3_BACKROW_MIDDLEFLOOR</text>
  <text x="220" y="681">DX COOLING COIL_UNIT1_FRONTROW_TOPFLOOR</text>
  <text x="220" y="701">DX COOLING COIL_UNIT2_FRONTROW_TOPFLOOR</text>
  <text x="220" y="721">DX COOLING COIL_UNIT3_FRONTROW_TOPFLOOR</text>
  <text x="220" y="741">DX COOLING COIL_UNIT1_BACKROW_TOPFLOOR</text>
  <text x="220" y="761">DX COOLING COIL_UNIT2_BACKROW_TOPFLOOR</text>
  <text x="220" y="781">DX COOLING COIL_UNIT3_BACKROW_TOPFLOOR</text>
  <text x="220" y="801">MAIN DX HEATING COIL_UNIT1_FRONTROW_BOTTOMFLOOR</text>
  <text x="220" y="821">MAIN DX HEATING COIL_UNIT2_FRONTROW_BOTTOMFLOOR</text>
  <text x="220" y="841">MAIN DX HEATING COIL_UNIT3_FRONTROW_BOTTOMFLOOR</text>
  <text x="220" y="861">MAIN DX HEATING COIL_UNIT1_BACKROW_BOTTOMFLOOR</text>
  <text x="220" y="881">MAIN DX HEATING COIL_UNIT2_BACKROW_BOTTOMFLOOR</text>
  <text x="220" y="901">MAIN DX HEATING COIL_UNIT3_BACKROW_BOTTOMFLOOR</text>
  <text x="220" y="921">MAIN DX HEATING COIL_UNIT1_FRONTROW_MIDDLEFLOOR</text>
  <text x="220" y="941">MAIN DX HEATING COIL_UNIT2_FRONTROW_MIDDLEFLOOR</text>
  <text x="220" y="961">MAIN DX HEATING COIL_UNIT3_FRONTROW_MIDDLEFLOOR</text>
  <text x="220" y="981">MAIN DX HEATING COIL_UNIT1_BACKROW_MIDDLEFLOOR</text>
  <text x="220" y="1001">MAIN DX HEATING COIL_UNIT2_BACKROW_MIDDLEFLOOR</text>
  <text x="220" y="1021">MAIN DX HEATING COIL_UNIT3_BACKROW_MIDDLEFLOOR</text>
  <text x="220" y="1041">MAIN DX HEATING COIL_UNIT1_FRONTROW_TOPFLOOR</text>
  <text x="220" y="1061">MAIN DX HEATING COIL_UNIT2_FRONTROW_TOPFLOOR</text>
  <text x="220" y="1081">MAIN DX HEATING COIL_UNIT3_FRONTROW_TOPFLOOR</text>
  <text x="220" y="1101">MAIN DX HEATING COIL_UNIT1_BACKROW_TOPFLOOR</text>
  <text x="220" y="1121">MAIN DX HEATING COIL_UNIT2_BACKROW_TOPFLOOR</text>
  <text x="220" y="1141">MAIN DX HEATING COIL_UNIT3_BACKROW_TOPFLOOR</text>
  <text x="220" y="1161">OutdoorAir:NodeList</text>
  <text x="220" y="1181">OutdoorAir:NodeList</text>
  <text x="220" y="1201">OutdoorAir:NodeList</text>
  <text x="220" y="1221">OutdoorAir:NodeList</text>
  <text x="220" y="1241">OutdoorAir:NodeList</text>
  <text x="220" y="1261">OutdoorAir:NodeList</text>
  <text x="220" y="1281">OutdoorAir:NodeList</text>
  <text x="220" y="1301">OutdoorAir:NodeList</text>
  <text x="220" y="1321">OutdoorAir:NodeList</text>
  <text x="220" y="1341">OutdoorAir:NodeList</text>
  <text x="220" y="1361">OutdoorAir:NodeList</text>
  <text x="220" y="1381">OutdoorAir:NodeList</text>
  <text x="220" y="1401">OutdoorAir:NodeList</text>
  <text x="220" y="1421">OutdoorAir:NodeList</text>
  <text x="220" y="1441">OutdoorAir:NodeList</text>
  <text x="220" y="1461">OutdoorAir:NodeList</text>
  <text x="220" y="1481">OutdoorAir:NodeList</text>
  <text x="220" y="1501">OutdoorAir:NodeList</text>
  <text x="220" y="1521">OutdoorAir:Node</text>
  <text x="220" y="1541">OutdoorAir:Node</text>
  <text x="220" y="1561">OutdoorAir:Node</text>
  <text x="220" y="1581">OutdoorAir:Node</text>
  <text x="220" y="1601">OutdoorAir:Node</text>
  <text x="220" y="1621">OutdoorAir:Node</text>
  <text x="220" y="1641">OutdoorAir:Node</text>
  <text x="220" y="1661">OutdoorAir:Node</text>
  <text x="220" y="1681">OutdoorAir:Node</text>
  <text x="220" y="1701">OutdoorAir:Node</text>
  <text x="220" y="1721">OutdoorAir:Node</text>
  <text x="220" y="1741">OutdoorAir:Node</text>
  <text x="220" y="1761">OutdoorAir:Node</text>
  <text x="220" y="1781">OutdoorAir:Node</text>
  <text x="220" y="1801">OutdoorAir:Node</text>
  <text x="220" y="1821">OutdoorAir:Node</text>
  <text x="220" y="1841">OutdoorAir:Node</text>
  <text x="220" y="1861">OutdoorAir:Node</text>
  <text x="220" y="1881">HEAT PUMP WATER HEATER EVAPORATOR_UNIT2_FRONTROW_BOTTOMFLOOR</text>
  <text x="220" y="1901">HEAT PUMP WATER HEATER EVAPORATOR_UNIT2_FRONTROW_BOTTOMFLOOR</text>
  <text x="220" y="1921">HEAT PUMP WATER HEATER EVAPORATOR_UNIT3_FRONTROW_BOTTOMFLOOR</text>
  <text x="220" y="1941">HEAT PUMP WATER HEATER EVAPORATOR_UNIT3_FRONTROW_BOTTOMFLOOR</text>
  <text x="220" y="1961">HEAT PUMP WATER HEATER EVAPORATOR_UNIT1_BACKROW_BOTTOMFLOOR</text>
  <text x="220" y="1981">HEAT PUMP WATER HEATER EVAPORATOR_UNIT1_BACKROW_BOTTOMFLOOR</text>
  <text x="220" y="2001">HEAT PUMP WATER HEATER EVAPORATOR_UNIT2_BACKROW_BOTTOMFLOOR</text>
  <text x="220" y="2021">HEAT PUMP WATER HEATER EVAPORATOR_UNIT2_BACKROW_BOTTOMFLOOR</text>
  <text x="220" y="2041">HEAT PUMP WATER HEATER EVAPORATOR_UNIT3_BACKROW_BOTTOMFLOOR</text>
  <text x="220" y="2061">HEAT PUMP WATER HEATER EVAPORATOR_UNIT3_BACKROW_BOTTOMFLOOR</text>
  <text x="220" y="2081">HEAT PUMP WATER HEATER EVAPORATOR_UNIT1_FRONTROW_MIDDLEFLOOR</text>
  <text x="220" y="2101">HEAT PUMP WATER HEATER EVAPORATOR_UNIT1_FRONTROW_MIDDLEFLOOR</text>
  <text x="220" y="2121">HEAT PUMP WATER HEATER EVAPORATOR_UNIT2_FRONTROW_MIDDLEFLOOR</text>
  <text x="220" y="2141">HEAT PUMP WATER HEATER EVAPORATOR_UNIT2_FRONTROW_MIDDLEFLOOR</text>
  <text x="220" y="2161">HEAT PUMP WATER HEATER EVAPORATOR_UNIT3_FRONTROW_MIDDLEFLOOR</text>
  <text x="220" y="2181">HEAT PUMP WATER HEATER EVAPORATOR_UNIT3_FRONTROW_MIDDLEFLOOR</text>
  <text x="220" y="2201">HEAT PUMP WATER HEATER EVAPORATOR_UNIT1_BACKROW_MIDDLEFLOOR</text>
  <text x="220" y="2221">HEAT PUMP WATER HEATER EVAPORATOR_UNIT1_BACKROW_MIDDLEFLOOR</text>
  <text x="220" y="2241">HEAT PUMP WATER HEATER EVAPORATOR_UNIT2_BACKROW_MIDDLEFLOOR</text>
  <text x="220" y="2261">HEAT PUMP WATER HEATER EVAPORATOR_UNIT2_BACKROW_MIDDLEFLOOR</text>
  <text x="220" y="2281">HEAT PUMP WATER HEATER EVAPORATOR_UNIT3_BACKROW_MIDDLEFLOOR</text>
  <text x="220" y="2301">HEAT PUMP WATER HEATER EVAPORATOR_UNIT3_BACKROW_MIDDLEFLOOR</text>
  <text x="220" y="2321">HEAT PUMP WATER HEATER EVAPORATOR_UNIT1_FRONTROW_TOPFLOOR</text>
  <text x="220" y="2341">HEAT PUMP WATER HEATER EVAPORATOR_UNIT1_FRONTROW_TOPFLOOR</text>
  <text x="220" y="2361">HEAT PUMP WATER HEATER EVAPORATOR_UNIT2_FRONTROW_TOPFLOOR</text>
  <text x="220" y="2381">HEAT PUMP WATER HEATER EVAPORATOR_UNIT2_FRONTROW_TOPFLOOR</text>
  <text x="220" y="2401">HEAT PUMP WATER HEATER EVAPORATOR_UNIT3_FRONTROW_TOPFLOOR</text>
  <text x="220" y="2421">HEAT PUMP WATER HEATER EVAPORATOR_UNIT3_FRONTROW_TOPFLOOR</text>
  <text x="220" y="2441">HEAT PUMP WATER HEATER EVAPORATOR_UNIT1_BACKROW_TOPFLOOR</text>
  <text x="220" y="2461">HEAT PUMP WATER HEATER EVAPORATOR_UNIT1_BACKROW_TOPFLOOR</text>
  <text x="220" y="2481">HEAT PUMP WATER HEATER EVAPORATOR_UNIT2_BACKROW_TOPFLOOR</text>
  <text x="220" y="2501">HEAT PUMP WATER HEATER EVAPORATOR_UNIT2_BACKROW_TOPFLOOR</text>
  <text x="220" y="2521">HEAT PUMP WATER HEATER EVAPORATOR_UNIT3_BACKROW_TOPFLOOR</text>
  <text x="220" y="2541">HEAT PUMP WATER HEATER EVAPORATOR_UNIT3_BACKROW_TOPFLOOR</text>
  <text x="220" y="2561">SUPPLY FAN_UNIT1_FRONTROW_BOTTOMFLOOR</text>
  <text x="220" y="2581">OASUPPLYFAN_UNIT1_FRONTROW_BOTTOMFLOOR</text>
  <text x="220" y="2601">OAEXHAUSTFAN_UNIT1_FRONTROW_BOTTOMFLOOR</text>
  <text x="220" y="2621">SUPPLY FAN_UNIT2_FRONTROW_BOTTOMFLOOR</text>
  <text x="220" y="2641">OASUPPLYFAN_UNIT2_FRONTROW_BOTTOMFLOOR</text>
  <text x="220" y="2661">OAEXHAUSTFAN_UNIT2_FRONTROW_BOTTOMFLOOR</text>
  <text x="220" y="2681">SUPPLY FAN_UNIT3_FRONTROW_BOTTOMFLOOR</text>
  <text x="220" y="2701">OASUPPLYFAN_UNIT3_FRONTROW_BOTTOMFLOOR</text>
  <text x="220" y="2721">OAEXHAUSTFAN_UNIT3_FRONTROW_BOTTOMFLOOR</text>
  <text x="220" y="2741">SUPPLY FAN_UNIT1_BACKROW_BOTTOMFLOOR</text>
  <text x="220" y="2761">OASUPPLYFAN_UNIT1_BACKROW_BOTTOMFLOOR</text>
  <text x="220" y="2781">OAEXHAUSTFAN_UNIT1_BACKROW_BOTTOMFLOOR</text>
  <text x="220" y="2801">SUPPLY FAN_UNIT2_BACKROW_BOTTOMFLOOR</text>
  <text x="220" y="2821">OASUPPLYFAN_UNIT2_BACKROW_BOTTOMFLOOR</text>
  <text x="220" y="2841">OAEXHAUSTFAN_UNIT2_BACKROW_BOTTOMFLOOR</text>
  <text x="220" y="2861">SUPPLY FAN_UNIT3_BACKROW_BOTTOMFLOOR</text>
  <text x="220" y="2881">OASUPPLYFAN_UNIT3_BACKROW_BOTTOMFLOOR</text>
  <text x="220" y="2901">OAEXHAUSTFAN_UNIT3_BACKROW_BOTTOMFLOOR</text>
  <text x="220" y="2921">SUPPLY FAN_UNIT1_FRONTROW_MIDDLEFLOOR</text>
  <text x="220" y="2941">OASUPPLYFAN_UNIT1_FRONTROW_MIDDLEFLOOR</text>
  <text x="220" y="2961">OAEXHAUSTFAN_UNIT1_FRONTROW_MIDDLEFLOOR</text>
  <text x="220" y="2981">SUPPLY FAN_UNIT2_FRONTROW_MIDDLEFLOOR</text>
  <text x="220" y="3001">OASUPPLYFAN_UNIT2_FRONTROW_MIDDLEFLOOR</text>
  <text x="220" y="3021">OAEXHAUSTFAN_UNIT2_FRONTROW_MIDDLEFLOOR</text>
  <text x="220" y="3041">SUPPLY FAN_UNIT3_FRONTROW_MIDDLEFLOOR</text>
  <text x="220" y="3061">OASUPPLYFAN_UNIT3_FRONTROW_MIDDLEFLOOR</text>
  <text x="220" y="3081">OAEXHAUSTFAN_UNIT3_FRONTROW_MIDDLEFLOOR</text>
  <text x="220" y="3101">SUPPLY FAN_UNIT1_BACKROW_MIDDLEFLOOR</text>
  <text x="220" y="3121">OASUPPLYFAN_UNIT1_BACKROW_MIDDLEFLOOR</text>
  <text x="220" y="3141">OAEXHAUSTFAN_UNIT1_BACKROW_MIDDLEFLOOR</text>
  <text x="220" y="3161">SUPPLY FAN_UNIT2_BACKROW_MIDDLEFLOOR</text>
  <text x="220" y="3181">OASUPPLYFAN_UNIT2_BACKROW_MIDDLEFLOOR</text>
  <text x="220" y="3201">OAEXHAUSTFAN_UNIT2_BACKROW_MIDDLEFLOOR</text>
  <text x="220" y="3221">SUPPLY FAN_UNIT3_BACKROW_MIDDLEFLOOR</text>
  <text x="220" y="3241">OASUPPLYFAN_UNIT3_BACKROW_MIDDLEFLOOR</text>
  <text x="220" y="3261">OAEXHAUSTFAN_UNIT3_BACKROW_MIDDLEFLOOR</text>
  <text x="220" y="3281">SUPPLY FAN_UNIT1_FRONTROW_TOPFLOOR</text>
  <text x="220" y="3301">OASUPPLYFAN_UNIT1_FRONTROW_TOPFLOOR</text>
  <text x="220" y="3321">OAEXHAUSTFAN_UNIT1_FRONTROW_TOPFLOOR</text>
  <text x="220" y="3341">SUPPLY FAN_UNIT2_FRONTROW_TOPFLOOR</text>
  <text x="220" y="3361">OASUPPLYFAN_UNIT2_FRONTROW_TOPFLOOR</text>
  <text x="220" y="3381">OAEXHAUSTFAN_UNIT2_FRONTROW_TOPFLOOR</text>
  <text x="220" y="3401">SUPPLY FAN_UNIT3_FRONTROW_TOPFLOOR</text>
  <text x="220" y="3421">OASUPPLYFAN_UNIT3_FRONTROW_TOPFLOOR</text>
  <text x="220" y="3441">OAEXHAUSTFAN_UNIT3_FRONTROW_TOPFLOOR</text>
  <text x="220" y="3461">SUPPLY FAN_UNIT1_BACKROW_TOPFLOOR</text>
  <text x="220" y="3481">OASUPPLYFAN_UNIT1_BACKROW_TOPFLOOR</text>
  <text x="220" y="3501">OAEXHAUSTFAN_UNIT1_BACKROW_TOPFLOOR</text>
  <text x="220" y="3521">SUPPLY FAN_UNIT2_BACKROW_TOPFLOOR</text>
  <text x="220" y="3541">OASUPPLYFAN_UNIT2_BACKROW_TOPFLOOR</text>
  <text x="220" y="3561">OAEXHAUSTFAN_UNIT2_BACKROW_TOPFLOOR</text>
  <text x="220" y="3581">SUPPLY FAN_UNIT3_BACKROW_TOPFLOOR</text>
  <text x="220" y="3601">OASUPPLYFAN_UNIT3_BACKROW_TOPFLOOR</text>
  <text x="220" y="3621">OAEXHAUSTFAN_UNIT3_BACKROW_TOPFLOOR</text>
  <text x="220" y="3641">HEAT PUMP WATER HEATER FAN_UNIT2_FRONTROW_BOTTOMFLOOR</text>
  <text x="220" y="3661">HEAT PUMP WATER HEATER FAN_UNIT3_FRONTROW_BOTTOMFLOOR</text>
  <text x="220" y="3681">HEAT PUMP WATER HEATER FAN_UNIT1_BACKROW_BOTTOMFLOOR</text>
  <text x="220" y="3701">HEAT PUMP WATER HEATER FAN_UNIT2_BACKROW_BOTTOMFLOOR</text>
  <text x="220" y="3721">HEAT PUMP WATER HEATER FAN_UNIT3_BACKROW_BOTTOMFLOOR</text>
  <text x="220" y="3741">HEAT PUMP WATER HEATER FAN_UNIT1_FRONTROW_MIDDLEFLOOR</text>
  <text x="220" y="3761">HEAT PUMP WATER HEATER FAN_UNIT2_FRONTROW_MIDDLEFLOOR</text>
  <text x="220" y="3781">HEAT PUMP WATER HEATER FAN_UNIT3_FRONTROW_MIDDLEFLOOR</text>
  <text x="220" y="3801">HEAT PUMP WATER HEATER FAN_UNIT1_BACKROW_MIDDLEFLOOR</text>
  <text x="220" y="3821">HEAT PUMP WATER HEATER FAN_UNIT2_BACKROW_MIDDLEFLOOR</text>
  <text x="220" y="3841">HEAT PUMP WATER HEATER FAN_UNIT3_BACKROW_MIDDLEFLOOR</text>
  <text x="220" y="3861">HEAT PUMP WATER HEATER FAN_UNIT1_FRONTROW_TOPFLOOR</text>
  <text x="220" y="3881">HEAT PUMP WATER HEATER FAN_UNIT2_FRONTROW_TOPFLOOR</text>
  <text x="220" y="3901">HEAT PUMP WATER HEATER FAN_UNIT3_FRONTROW_TOPFLOOR</text>
  <text x="220" y="3921">HEAT PUMP WATER HEATER FAN_UNIT1_BACKROW_TOPFLOOR</text>
  <text x="220" y="3941">HEAT PUMP WATER HEATER FAN_UNIT2_BACKROW_TOPFLOOR</text>
  <text x="220" y="3961">HEAT PUMP WATER HEATER FAN_UNIT3_BACKROW_TOPFLOOR</text>
  <text x="220" y="3981">WATER HEATER_TANK_UNIT1_FRONTROW_BOTTOMFLOOR</text>
  <text x="220" y="4001">WATER HEATER_TANK_UNIT2_FRONTROW_BOTTOMFLOOR</text>
  <text x="220" y="4021">WATER HEATER_TANK_UNIT3_FRONTROW_BOTTOMFLOOR</text>
  <text x="220" y="4041">WATER HEATER_TANK_UNIT1_BACKROW_BOTTOMFLOOR</text>
  <text x="220" y="4061">WATER HEATER_TANK_UNIT2_BACKROW_BOTTOMFLOOR</text>
  <text x="220" y="4081">WATER HEATER_TANK_UNIT3_BACKROW_BOTTOMFLOOR</text>
  <text x="220" y="4101">WATER HEATER_TANK_UNIT1_FRONTROW_MIDDLEFLOOR</text>
  <text x="220" y="4121">WATER HEATER_TANK_UNIT2_FRONTROW_MIDDLEFLOOR</text>
  <text x="220" y="4141">WATER HEATER_TANK_UNIT3_FRONTROW_MIDDLEFLOOR</text>
  <text x="220" y="4161">WATER HEATER_TANK_UNIT1_BACKROW_MIDDLEFLOOR</text>
  <text x="220" y="4181">WATER HEATER_TANK_UNIT2_BACKROW_MIDDLEFLOOR</text>
  <text x="220" y="4201">WATER HEATER_TANK_UNIT3_BACKROW_MIDDLEFLOOR</text>
  <text x="220" y="4221">WATER HEATER_TANK_UNIT1_FRONTROW_TOPFLOOR</text>
  <text x="220" y="4241">WATER HEATER_TANK_UNIT2_FRONTROW_TOPFLOOR</text>
  <text x="220" y="4261">WATER HEATER_TANK_UNIT3_FRONTROW_TOPFLOOR</text>
  <text x="220" y="4281">WATER HEATER_TANK_UNIT1_BACKROW_TOPFLOOR</text>
  <text x="220" y="4301">WATER HEATER_TANK_UNIT2_BACKROW_TOPFLOOR</text>
  <text x="220" y="4321">WATER HEATER_TANK_UNIT3_BACKROW_TOPFLOOR</text>
  <text x="220" y="4341">WATER HEATER_TANK_UNIT1_FRONTROW_BOTTOMFLOOR</text>
  <text x="220" y="4361">WATER HEATER_TANK_UNIT2_FRONTROW_BOTTOMFLOOR</text>
  <text x="220" y="4381">WATER HEATER_TANK_UNIT3_FRONTROW_BOTTOMFLOOR</text>
  <text x="220" y="4401">WATER HEATER_TANK_UNIT1_BACKROW_BOTTOMFLOOR</text>
  <text x="220" y="4421">WATER HEATER_TANK_UNIT2_BACKROW_BOTTOMFLOOR</text>
  <text x="220" y="4441">WATER HEATER_TANK_UNIT3_BACKROW_BOTTOMFLOOR</text>
  <text x="220" y="4461">WATER HEATER_TANK_UNIT1_FRONTROW_MIDDLEFLOOR</text>
  <text x="220" y="4481">WATER HEATER_TANK_UNIT2_FRONTROW_MIDDLEFLOOR</text>
  <text x="220" y="4501">WATER HEATER_TANK_UNIT3_FRONTROW_MIDDLEFLOOR</text>
  <text x="220" y="4521">WATER HEATER_TANK_UNIT1_BACKROW_MIDDLEFLOOR</text>
  <text x="220" y="4541">WATER HEATER_TANK_UNIT2_BACKROW_MIDDLEFLOOR</text>
  <text x="220" y="4561">WATER HEATER_TANK_UNIT3_BACKROW_MIDDLEFLOOR</text>
  <text x="220" y="4581">WATER HEATER_TANK_UNIT1_FRONTROW_TOPFLOOR</text>
  <text x="220" y="4601">WATER HEATER_TANK_UNIT2_FRONTROW_TOPFLOOR</text>
  <text x="220" y="4621">WATER HEATER_TANK_UNIT3_FRONTROW_TOPFLOOR</text>
  <text x="220" y="4641">WATER HEATER_TANK_UNIT1_BACKROW_TOPFLOOR</text>
  <text x="220" y="4661">WATER HEATER_TANK_UNIT2_BACKROW_TOPFLOOR</text>
  <text x="220" y="4681">WATER HEATER_TANK_UNIT3_BACKROW_TOPFLOOR</text>
  <text x="220" y="4701">DHW LOOP SETPOINT MANAGER_UNIT1_FRONTROW_BOTTOMFLOOR</text>
  <text x="220" y="4721">DHW LOOP SETPOINT MANAGER_UNIT2_FRONTROW_BOTTOMFLOOR</text>
  <text x="220" y="4741">DHW LOOP SETPOINT MANAGER_UNIT3_FRONTROW_BOTTOMFLOOR</text>
  <text x="220" y="4761">DHW LOOP SETPOINT MANAGER_UNIT1_BACKROW_BOTTOMFLOOR</text>
  <text x="220" y="4781">DHW LOOP SETPOINT MANAGER_UNIT2_BACKROW_BOTTOMFLOOR</text>
  <text x="220" y="4801">DHW LOOP SETPOINT MANAGER_UNIT3_BACKROW_BOTTOMFLOOR</text>
  <text x="220" y="4821">DHW LOOP SETPOINT MANAGER_UNIT1_FRONTROW_MIDDLEFLOOR</text>
  <text x="220" y="4841">DHW LOOP SETPOINT MANAGER_UNIT2_FRONTROW_MIDDLEFLOOR</text>
  <text x="220" y="4861">DHW LOOP SETPOINT MANAGER_UNIT3_FRONTROW_MIDDLEFLOOR</text>
  <text x="220" y="4881">DHW LOOP SETPOINT MANAGER_UNIT1_BACKROW_MIDDLEFLOOR</text>
  <text x="220" y="4901">DHW LOOP SETPOINT MANAGER_UNIT2_BACKROW_MIDDLEFLOOR</text>
  <text x="220" y="4921">DHW LOOP SETPOINT MANAGER_UNIT3_BACKROW_MIDDLEFLOOR</text>
  <text x="220" y="4941">DHW LOOP SETPOINT MANAGER_UNIT1_FRONTROW_TOPFLOOR</text>
  <text x="220" y="4961">DHW LOOP SETPOINT MANAGER_UNIT2_FRONTROW_TOPFLOOR</text>
  <text x="220" y="4981">DHW LOOP SETPOINT MANAGER_UNIT3_FRONTROW_TOPFLOOR</text>
  <text x="220" y="5001">DHW LOOP SETPOINT MANAGER_UNIT1_BACKROW_TOPFLOOR</text>
  <text x="220" y="5021">DHW LOOP SETPOINT MANAGER_UNIT2_BACKROW_TOPFLOOR</text>
  <text x="220" y="5041">DHW LOOP SETPOINT MANAGER_UNIT3_BACKROW_TOPFLOOR</text>
  <text x="220" y="5061">DHW SUPPLY OUTLET PIPE_UNIT1_FRONTROW_BOTTOMFLOOR</text>
  <text x="220" y="5081">MAINS MAKEUP PIPE_UNIT1_FRONTROW_BOTTOMFLOOR</text>
  <text x="220" y="5101">DHW DEMAND INLET PIPE_UNIT1_FRONTROW_BOTTOMFLOOR</text>
  <text x="220" y="5121">DHW SUPPLY OUTLET PIPE_UNIT2_FRONTROW_BOTTOMFLOOR</text>
  <text x="220" y="5141">MAINS MAKEUP PIPE_UNIT2_FRONTROW_BOTTOMFLOOR</text>
  <text x="220" y="5161">DHW DEMAND INLET PIPE_UNIT2_FRONTROW_BOTTOMFLOOR</text>
  <text x="220" y="5181">DHW SUPPLY OUTLET PIPE_UNIT3_FRONTROW_BOTTOMFLOOR</text>
  <text x="220" y="5201">MAINS MAKEUP PIPE_UNIT3_FRONTROW_BOTTOMFLOOR</text>
  <text x="220" y="5221">DHW DEMAND INLET PIPE_UNIT3_FRONTROW_BOTTOMFLOOR</text>
  <text x="220" y="5241">DHW SUPPLY OUTLET PIPE_UNIT1_BACKROW_BOTTOMFLOOR</text>
  <text x="220" y="5261">MAINS MAKEUP PIPE_UNIT1_BACKROW_BOTTOMFLOOR</text>
  <text x="220" y="5281">DHW DEMAND INLET PIPE_UNIT1_BACKROW_BOTTOMFLOOR</text>
  <text x="220" y="5301">DHW SUPPLY OUTLET PIPE_UNIT2_BACKROW_BOTTOMFLOOR</text>
  <text x="220" y="5321">MAINS MAKEUP PIPE_UNIT2_BACKROW_BOTTOMFLOOR</text>
  <text x="220" y="5341">DHW DEMAND INLET PIPE_UNIT2_BACKROW_BOTTOMFLOOR</text>
  <text x="220" y="5361">DHW SUPPLY OUTLET PIPE_UNIT3_BACKROW_BOTTOMFLOOR</text>
  <text x="220" y="5381">MAINS MAKEUP PIPE_UNIT3_BACKROW_BOTTOMFLOOR</text>
  <text x="220" y="5401">DHW DEMAND INLET PIPE_UNIT3_BACKROW_BOTTOMFLOOR</text>
  <text x="220" y="5421">DHW SUPPLY OUTLET PIPE_UNIT1_FRONTROW_MIDDLEFLOOR</text>
  <text x="220" y="5441">MAINS MAKEUP PIPE_UNIT1_FRONTROW_MIDDLEFLOOR</text>
  <text x="220" y="5461">DHW DEMAND INLET PIPE_UNIT1_FRONTROW_MIDDLEFLOOR</text>
  <text x="220" y="5481">DHW SUPPLY OUTLET PIPE_UNIT2_FRONTROW_MIDDLEFLOOR</text>
  <text x="220" y="5501">MAINS MAKEUP PIPE_UNIT2_FRONTROW_MIDDLEFLOOR</text>
  <text x="220" y="5521">DHW DEMAND INLET PIPE_UNIT2_FRONTROW_MIDDLEFLOOR</text>
  <text x="220" y="5541">DHW SUPPLY OUTLET PIPE_UNIT3_FRONTROW_MIDDLEFLOOR</text>
  <text x="220" y="5561">MAINS MAKEUP PIPE_UNIT3_FRONTROW_MIDDLEFLOOR</text>
  <text x="220" y="5581">DHW DEMAND INLET PIPE_UNIT3_FRONTROW_MIDDLEFLOOR</text>
  <text x="220" y="5601">DHW SUPPLY OUTLET PIPE_UNIT1_BACKROW_MIDDLEFLOOR</text>
  <text x="220" y="5621">MAINS MAKEUP PIPE_UNIT1_BACKROW_MIDDLEFLOOR</text>
  <text x="220" y="5641">DHW DEMAND INLET PIPE_UNIT1_BACKROW_MIDDLEFLOOR</text>
  <text x="220" y="5661">DHW SUPPLY OUTLET PIPE_UNIT2_BACKROW_MIDDLEFLOOR</text>
  <text x="220" y="5681">MAINS MAKEUP PIPE_UNIT2_BACKROW_MIDDLEFLOOR</text>
  <text x="220" y="5701">DHW DEMAND INLET PIPE_UNIT2_BACKROW_MIDDLEFLOOR</text>
  <text x="220" y="5721">DHW SUPPLY OUTLET PIPE_UNIT3_BACKROW_MIDDLEFLOOR</text>
  <text x="220" y="5741">MAINS MAKEUP PIPE_UNIT3_BACKROW_MIDDLEFLOOR</text>
  <text x="220" y="5761">DHW DEMAND INLET PIPE_UNIT3_BACKROW_MIDDLEFLOOR</text>
  <text x="220" y="5781">DHW SUPPLY OUTLET PIPE_UNIT1_FRONTROW_TOPFLOOR</text>
  <text x="220" y="5801">MAINS MAKEUP PIPE_UNIT1_FRONTROW_TOPFLOOR</text>
  <text x="220" y="5821">DHW DEMAND INLET PIPE_UNIT1_FRONTROW_TOPFLOOR</text>
  <text x="220" y="5841">DHW SUPPLY OUTLET PIPE_UNIT2_FRONTROW_TOPFLOOR</text>
  <text x="220" y="5861">MAINS MAKEUP PIPE_UNIT2_FRONTROW_TOPFLOOR</text>
  <text x="220" y="5881">DHW DEMAND INLET PIPE_UNIT2_FRONTROW_TOPFLOOR</text>
  <text x="220" y="5901">DHW SUPPLY OUTLET PIPE_UNIT3_FRONTROW_TOPFLOOR</text>
  <text x="220" y="5921">MAINS MAKEUP PIPE_UNIT3_FRONTROW_TOPFLOOR</text>
  <text x="220" y="5941">DHW DEMAND INLET PIPE_UNIT3_FRONTROW_TOPFLOOR</text>
  <text x="220" y="5961">DHW SUPPLY OUTLET PIPE_UNIT1_BACKROW_TOPFLOOR</text>
  <text x="220" y="5981">MAINS MAKEUP PIPE_UNIT1_BACKROW_TOPFLOOR</text>
  <text x="220" y="6001">DHW DEMAND INLET PIPE_UNIT1_BACKROW_TOPFLOOR</text>
  <text x="220" y="6021">DHW SUPPLY OUTLET PIPE_UNIT2_BACKROW_TOPFLOOR</text>
  <text x="220" y="6041">MAINS MAKEUP PIPE_UNIT2_BACKROW_TOPFLOOR</text>
  <text x="220" y="6061">DHW DEMAND INLET PIPE_UNIT2_BACKROW_TOPFLOOR</text>
  <text x="220" y="6081">DHW SUPPLY OUTLET PIPE_UNIT3_BACKROW_TOPFLOOR</text>
  <text x="220" y="6101">MAINS MAKEUP PIPE_UNIT3_BACKROW_TOPFLOOR</text>
  <text x="220" y="6121">DHW DEMAND INLET PIPE_UNIT3_BACKROW_TOPFLOOR</text>
  <text x="220" y="6141">DHW SINKS_UNIT1_FRONTROW_BOTTOMFLOOR</text>
  <text x="220" y="6161">DHW SHOWERS_UNIT1_FRONTROW_BOTTOMFLOOR</text>
  <text x="220" y="6181">DHW CLOTHESWASHER_UNIT1_FRONTROW_BOTTOMFLOOR</text>
  <text x="220" y="6201">DHW DISHWASHER_UNIT1_FRONTROW_BOTTOMFLOOR</text>
  <text x="220" y="6221">DHW BATHS_UNIT1_FRONTROW_BOTTOMFLOOR</text>
  <text x="220" y="6241">DHW SINKS_UNIT2_FRONTROW_BOTTOMFLOOR</text>
  <text x="220" y="6261">DHW SHOWERS_UNIT2_FRONTROW_BOTTOMFLOOR</text>
  <text x="220" y="6281">DHW CLOTHESWASHER_UNIT2_FRONTROW_BOTTOMFLOOR</text>
  <text x="220" y="6301">DHW DISHWASHER_UNIT2_FRONTROW_BOTTOMFLOOR</text>
  <text x="220" y="6321">DHW BATHS_UNIT2_FRONTROW_BOTTOMFLOOR</text>
  <text x="220" y="6341">DHW SINKS_UNIT3_FRONTROW_BOTTOMFLOOR</text>
  <text x="220" y="6361">DHW SHOWERS_UNIT3_FRONTROW_BOTTOMFLOOR</text>
  <text x="220" y="6381">DHW CLOTHESWASHER_UNIT3_FRONTROW_BOTTOMFLOOR</text>
  <text x="220" y="6401">DHW DISHWASHER_UNIT3_FRONTROW_BOTTOMFLOOR</text>
  <text x="220" y="6421">DHW BATHS_UNIT3_FRONTROW_BOTTOMFLOOR</text>
  <text x="220" y="6441">DHW SINKS_UNIT1_BACKROW_BOTTOMFLOOR</text>
  <text x="220" y="6461">DHW SHOWERS_UNIT1_BACKROW_BOTTOMFLOOR</text>
  <text x="220" y="6481">DHW CLOTHESWASHER_UNIT1_BACKROW_BOTTOMFLOOR</text>
  <text x="220" y="6501">DHW DISHWASHER_UNIT1_BACKROW_BOTTOMFLOOR</text>
  <text x="220" y="6521">DHW BATHS_UNIT1_BACKROW_BOTTOMFLOOR</text>
  <text x="220" y="6541">DHW SINKS_UNIT2_BACKROW_BOTTOMFLOOR</text>
  <text x="220" y="6561">DHW SHOWERS_UNIT2_BACKROW_BOTTOMFLOOR</text>
  <text x="220" y="6581">DHW CLOTHESWASHER_UNIT2_BACKROW_BOTTOMFLOOR</text>
  <text x="220" y="6601">DHW DISHWASHER_UNIT2_BACKROW_BOTTOMFLOOR</text>
  <text x="220" y="6621">DHW BATHS_UNIT2_BACKROW_BOTTOMFLOOR</text>
  <text x="220" y="6641">DHW SINKS_UNIT3_BACKROW_BOTTOMFLOOR</text>
  <text x="220" y="6661">DHW SHOWERS_UNIT3_BACKROW_BOTTOMFLOOR</text>
  <text x="220" y="6681">DHW CLOTHESWASHER_UNIT3_BACKROW_BOTTOMFLOOR</text>
  <text x="220" y="6701">DHW DISHWASHER_UNIT3_BACKROW_BOTTOMFLOOR</text>
  <text x="220" y="6721">DHW BATHS_UNIT3_BACKROW_BOTTOMFLOOR</text>
  <text x="220" y="6741">DHW SINKS_UNIT1_FRONTROW_MIDDLEFLOOR</text>
  <text x="220" y="6761">DHW SHOWERS_UNIT1_FRONTROW_MIDDLEFLOOR</text>
  <text x="220" y="6781">DHW CLOTHESWASHER_UNIT1_FRONTROW_MIDDLEFLOOR</text>
  <text x="220" y="6801">DHW DISHWASHER_UNIT1_FRONTROW_MIDDLEFLOOR</text>
  <text x="220" y="6821">DHW BATHS_UNIT1_FRONTROW_MIDDLEFLOOR</text>
  <text x="220" y="6841">DHW SINKS_UNIT2_FRONTROW_MIDDLEFLOOR</text>
  <text x="220" y="6861">DHW SHOWERS_UNIT2_FRONTROW_MIDDLEFLOOR</text>
  <text x="220" y="6881">DHW CLOTHESWASHER_UNIT2_FRONTROW_MIDDLEFLOOR</text>
  <text x="220" y="6901">DHW DISHWASHER_UNIT2_FRONTROW_MIDDLEFLOOR</text>
  <text x="220" y="6921">DHW BATHS_UNIT2_FRONTROW_MIDDLEFLOOR</text>
  <text x="220" y="6941">DHW SINKS_UNIT3_FRONTROW_MIDDLEFLOOR</text>
  <text x="220" y="6961">DHW SHOWERS_UNIT3_FRONTROW_MIDDLEFLOOR</text>
  <text x="220" y="6981">DHW CLOTHESWASHER_UNIT3_FRONTROW_MIDDLEFLOOR</text>
  <text x="220" y="7001">DHW DISHWASHER_UNIT3_FRONTROW_MIDDLEFLOOR</text>
  <text x="220" y="7021">DHW BATHS_UNIT3_FRONTROW_MIDDLEFLOOR</text>
  <text x="220" y="7041">DHW SINKS_UNIT1_BACKROW_MIDDLEFLOOR</text>
  <text x="220" y="7061">DHW SHOWERS_UNIT1_BACKROW_MIDDLEFLOOR</text>
  <text x="220" y="7081">DHW CLOTHESWASHER_UNIT1_BACKROW_MIDDLEFLOOR</text>
  <text x="220" y="7101">DHW DISHWASHER_UNIT1_BACKROW_MIDDLEFLOOR</text>
  <text x="220" y="7121">DHW BATHS_UNIT1_BACKROW_MIDDLEFLOOR</text>
  <text x="220" y="7141">DHW SINKS_UNIT2_BACKROW_MIDDLEFLOOR</text>
  <text x="220" y="7161">DHW SHOWERS_UNIT2_BACKROW_MIDDLEFLOOR</text>
  <text x="220" y="7181">DHW CLOTHESWASHER_UNIT2_BACKROW_MIDDLEFLOOR</text>
  <text x="220" y="7201">DHW DISHWASHER_UNIT2_BACKROW_MIDDLEFLOOR</text>
  <text x="220" y="7221">DHW BATHS_UNIT2_BACKROW_MIDDLEFLOOR</text>
  <text x="220" y="7241">DHW SINKS_UNIT3_BACKROW_MIDDLEFLOOR</text>
  <text x="220" y="7261">DHW SHOWERS_UNIT3_BACKROW_MIDDLEFLOOR</text>
  <text x="220" y="7281">DHW CLOTHESWASHER_UNIT3_BACKROW_MIDDLEFLOOR</text>
  <text x="220" y="7301">DHW DISHWASHER_UNIT3_BACKROW_MIDDLEFLOOR</text>
  <text x="220" y="7321">DHW BATHS_UNIT3_BACKROW_MIDDLEFLOOR</text>
  <text x="220" y="7341">DHW SINKS_UNIT1_FRONTROW_TOPFLOOR</text>
  <text x="220" y="7361">DHW SHOWERS_UNIT1_FRONTROW_TOPFLOOR</text>
  <text x="220" y="7381">DHW CLOTHESWASHER_UNIT1_FRONTROW_TOPFLOOR</text>
  <text x="220" y="7401">DHW DISHWASHER_UNIT1_FRONTROW_TOPFLOOR</text>
  <text x="220" y="7421">DHW BATHS_UNIT1_FRONTROW_TOPFLOOR</text>
  <text x="220" y="7441">DHW SINKS_UNIT2_FRONTROW_TOPFLOOR</text>
  <text x="220" y="7461">DHW SHOWERS_UNIT2_FRONTROW_TOPFLOOR</text>
  <text x="220" y="7481">DHW CLOTHESWASHER_UNIT2_FRONTROW_TOPFLOOR</text>
  <text x="220" y="7501">DHW DISHWASHER_UNIT2_FRONTROW_TOPFLOOR</text>
  <text x="220" y="7521">DHW BATHS_UNIT2_FRONTROW_TOPFLOOR</text>
  <text x="220" y="7541">DHW SINKS_UNIT3_FRONTROW_TOPFLOOR</text>
  <text x="220" y="7561">DHW SHOWERS_UNIT3_FRONTROW_TOPFLOOR</text>
  <text x="220" y="7581">DHW CLOTHESWASHER_UNIT3_FRONTROW_TOPFLOOR</text>
  <text x="220" y="7601">DHW DISHWASHER_UNIT3_FRONTROW_TOPFLOOR</text>
  <text x="220" y="7621">DHW BATHS_UNIT3_FRONTROW_TOPFLOOR</text>
  <text x="220" y="7641">DHW SINKS_UNIT1_BACKROW_TOPFLOOR</text>
  <text x="220" y="7661">DHW SHOWERS_UNIT1_BACKROW_TOPFLOOR</text>
  <text x="220" y="7681">DHW CLOTHESWASHER_UNIT1_BACKROW_TOPFLOOR</text>
  <text x="220" y="7701">DHW DISHWASHER_UNIT1_BACKROW_TOPFLOOR</text>
  <text x="220" y="7721">DHW BATHS_UNIT1_BACKROW_TOPFLOOR</text>
  <text x="220" y="7741">DHW SINKS_UNIT2_BACKROW_TOPFLOOR</text>
  <text x="220" y="7761">DHW SHOWERS_UNIT2_BACKROW_TOPFLOOR</text>
  <text x="220" y="7781">DHW CLOTHESWASHER_UNIT2_BACKROW_TOPFLOOR</text>
  <text x="220" y="7801">DHW DISHWASHER_UNIT2_BACKROW_TOPFLOOR</text>
  <text x="220" y="7821">DHW BATHS_UNIT2_BACKROW_TOPFLOOR</text>
  <text x="220" y="7841">DHW SINKS_UNIT3_BACKROW_TOPFLOOR</text>
  <text x="220" y="7861">DHW SHOWERS_UNIT3_BACKROW_TOPFLOOR</text>
  <text x="220" y="7881">DHW CLOTHESWASHER_UNIT3_BACKROW_TOPFLOOR</text>
  <text x="220" y="7901">DHW DISHWASHER_UNIT3_BACKROW_TOPFLOOR</text>
  <text x="220" y="7921">DHW BATHS_UNIT3_BACKROW_TOPFLOOR</text>
  <text x="220" y="7941">DHW DEMAND SPLITTER_UNIT1_FRONTROW_BOTTOMFLOOR</text>
  <text x="220" y="7961">DHW DEMAND MIXER_UNIT1_FRONTROW_BOTTOMFLOOR</text>
  <text x="220" y="7981">DHW SUPPLY SPLITTER_UNIT1_FRONTROW_BOTTOMFLOOR</text>
  <text x="220" y="8001">DHW SUPPLY MIXER_UNIT1_FRONTROW_BOTTOMFLOOR</text>
  <text x="220" y="8021">DHW DEMAND SPLITTER_UNIT2_FRONTROW_BOTTOMFLOOR</text>
  <text x="220" y="8041">DHW DEMAND MIXER_UNIT2_FRONTROW_BOTTOMFLOOR</text>
  <text x="220" y="8061">DHW SUPPLY SPLITTER_UNIT2_FRONTROW_BOTTOMFLOOR</text>
  <text x="220" y="8081">DHW SUPPLY MIXER_UNIT2_FRONTROW_BOTTOMFLOOR</text>
  <text x="220" y="8101">DHW DEMAND SPLITTER_UNIT3_FRONTROW_BOTTOMFLOOR</text>
  <text x="220" y="8121">DHW DEMAND MIXER_UNIT3_FRONTROW_BOTTOMFLOOR</text>
  <text x="220" y="8141">DHW SUPPLY SPLITTER_UNIT3_FRONTROW_BOTTOMFLOOR</text>
  <text x="220" y="8161">DHW SUPPLY MIXER_UNIT3_FRONTROW_BOTTOMFLOOR</text>
  <text x="220" y="8181">DHW DEMAND SPLITTER_UNIT1_BACKROW_BOTTOMFLOOR</text>
  <text x="220" y="8201">DHW DEMAND MIXER_UNIT1_BACKROW_BOTTOMFLOOR</text>
  <text x="220" y="8221">DHW SUPPLY SPLITTER_UNIT1_BACKROW_BOTTOMFLOOR</text>
  <text x="220" y="8241">DHW SUPPLY MIXER_UNIT1_BACKROW_BOTTOMFLOOR</text>
  <text x="220" y="8261">DHW DEMAND SPLITTER_UNIT2_BACKROW_BOTTOMFLOOR</text>
  <text x="220" y="8281">DHW DEMAND MIXER_UNIT2_BACKROW_BOTTOMFLOOR</text>
  <text x="220" y="8301">DHW SUPPLY SPLITTER_UNIT2_BACKROW_BOTTOMFLOOR</text>
  <text x="220" y="8321">DHW SUPPLY MIXER_UNIT2_BACKROW_BOTTOMFLOOR</text>
  <text x="220" y="8341">DHW DEMAND SPLITTER_UNIT3_BACKROW_BOTTOMFLOOR</text>
  <text x="220" y="8361">DHW DEMAND MIXER_UNIT3_BACKROW_BOTTOMFLOOR</text>
  <text x="220" y="8381">DHW SUPPLY SPLITTER_UNIT3_BACKROW_BOTTOMFLOOR</text>
  <text x="220" y="8401">DHW SUPPLY MIXER_UNIT3_BACKROW_BOTTOMFLOOR</text>
  <text x="220" y="8421">DHW DEMAND SPLITTER_UNIT1_FRONTROW_MIDDLEFLOOR</text>
  <text x="220" y="8441">DHW DEMAND MIXER_UNIT1_FRONTROW_MIDDLEFLOOR</text>
  <text x="220" y="8461">DHW SUPPLY SPLITTER_UNIT1_FRONTROW_MIDDLEFLOOR</text>
  <text x="220" y="8481">DHW SUPPLY MIXER_UNIT1_FRONTROW_MIDDLEFLOOR</text>
  <text x="220" y="8501">DHW DEMAND SPLITTER_UNIT2_FRONTROW_MIDDLEFLOOR</text>
  <text x="220" y="8521">DHW DEMAND MIXER_UNIT2_FRONTROW_MIDDLEFLOOR</text>
  <text x="220" y="8541">DHW SUPPLY SPLITTER_UNIT2_FRONTROW_MIDDLEFLOOR</text>
  <text x="220" y="8561">DHW SUPPLY MIXER_UNIT2_FRONTROW_MIDDLEFLOOR</text>
  <text x="220" y="8581">DHW DEMAND SPLITTER_UNIT3_FRONTROW_MIDDLEFLOOR</text>
  <text x="220" y="8601">DHW DEMAND MIXER_UNIT3_FRONTROW_MIDDLEFLOOR</text>
  <text x="220" y="8621">DHW SUPPLY SPLITTER_UNIT3_FRONTROW_MIDDLEFLOOR</text>
  <text x="220" y="8641">DHW SUPPLY MIXER_UNIT3_FRONTROW_MIDDLEFLOOR</text>
  <text x="220" y="8661">DHW DEMAND SPLITTER_UNIT1_BACKROW_MIDDLEFLOOR</text>
  <text x="220" y="8681">DHW DEMAND MIXER_UNIT1_BACKROW_MIDDLEFLOOR</text>
  <text x="220" y="8701">DHW SUPPLY SPLITTER_UNIT1_BACKROW_MIDDLEFLOOR</text>
  <text x="220" y="8721">DHW SUPPLY MIXER_UNIT1_BACKROW_MIDDLEFLOOR</text>
  <text x="220" y="8741">DHW DEMAND SPLITTER_UNIT2_BACKROW_MIDDLEFLOOR</text>
  <text x="220" y="8761">DHW DEMAND MIXER_UNIT2_BACKROW_MIDDLEFLOOR</text>
  <text x="220" y="8781">DHW SUPPLY SPLITTER_UNIT2_BACKROW_MIDDLEFLOOR</text>
  <text x="220" y="8801">DHW SUPPLY MIXER_UNIT2_BACKROW_MIDDLEFLOOR</text>
  <text x="220" y="8821">DHW DEMAND SPLITTER_UNIT3_BACKROW_MIDDLEFLOOR</text>
  <text x="220" y="8841">DHW DEMAND MIXER_UNIT3_BACKROW_MIDDLEFLOOR</text>
  <text x="220" y="8861">DHW SUPPLY SPLITTER_UNIT3_BACKROW_MIDDLEFLOOR</text>
  <text x="220" y="8881">DHW SUPPLY MIXER_UNIT3_BACKROW_MIDDLEFLOOR</text>
  <text x="220" y="8901">DHW DEMAND SPLITTER_UNIT1_FRONTROW_TOPFLOOR</text>
  <text x="220" y="8921">DHW DEMAND MIXER_UNIT1_FRONTROW_TOPFLOOR</text>
  <text x="220" y="8941">DHW SUPPLY SPLITTER_UNIT1_FRONTROW_TOPFLOOR</text>
  <text x="220" y="8961">DHW SUPPLY MIXER_UNIT1_FRONTROW_TOPFLOOR</text>
  <text x="220" y="8981">DHW DEMAND SPLITTER_UNIT2_FRONTROW_TOPFLOOR</text>
  <text x="220" y="9001">DHW DEMAND MIXER_UNIT2_FRONTROW_TOPFLOOR</text>
  <text x="220" y="9021">DHW SUPPLY SPLITTER_UNIT2_FRONTROW_TOPFLOOR</text>
  <text x="220" y="9041">DHW SUPPLY MIXER_UNIT2_FRONTROW_TOPFLOOR</text>
  <text x="220" y="9061">DHW DEMAND SPLITTER_UNIT3_FRONTROW_TOPFLOOR</text>
  <text x="220" y="9081">DHW DEMAND MIXER_UNIT3_FRONTROW_TOPFLOOR</text>
  <text x="220" y="9101">DHW SUPPLY SPLITTER_UNIT3_FRONTROW_TOPFLOOR</text>
  <text x="220" y="9121">DHW SUPPLY MIXER_UNIT3_FRONTROW_TOPFLOOR</text>
  <text x="220" y="9141">DHW DEMAND SPLITTER_UNIT1_BACKROW_TOPFLOOR</text>
  <text x="220" y="9161">DHW DEMAND MIXER_UNIT1_BACKROW_TOPFLOOR</text>
  <text x="220" y="9181">DHW SUPPLY SPLITTER_UNIT1_BACKROW_TOPFLOOR</text>
  <text x="220" y="9201">DHW SUPPLY MIXER_UNIT1_BACKROW_TOPFLOOR</text>
  <text x="220" y="9221">DHW DEMAND SPLITTER_UNIT2_BACKROW_TOPFLOOR</text>
  <text x="220" y="9241">DHW DEMAND MIXER_UNIT2_BACKROW_TOPFLOOR</text>
  <text x="220" y="9261">DHW SUPPLY SPLITTER_UNIT2_BACKROW_TOPFLOOR</text>
  <text x="220" y="9281">DHW SUPPLY MIXER_UNIT2_BACKROW_TOPFLOOR</text>
  <text x="220" y="9301">DHW DEMAND SPLITTER_UNIT3_BACKROW_TOPFLOOR</text>
  <text x="220" y="9321">DHW DEMAND MIXER_UNIT3_BACKROW_TOPFLOOR</text>
  <text x="220" y="9341">DHW SUPPLY SPLITTER_UNIT3_BACKROW_TOPFLOOR</text>
  <text x="220" y="9361">DHW SUPPLY MIXER_UNIT3_BACKROW_TOPFLOOR</text>
  <text x="220" y="9381">ZONE SUPPLY AIR SPLITTER_UNIT1_FRONTROW_BOTTOMFLOOR</text>
  <text x="220" y="9401">ZONE SUPPLY AIR SPLITTER_UNIT2_FRONTROW_BOTTOMFLOOR</text>
  <text x="220" y="9421">ZONE SUPPLY AIR SPLITTER_UNIT3_FRONTROW_BOTTOMFLOOR</text>
  <text x="220" y="9441">ZONE SUPPLY AIR SPLITTER_UNIT1_BACKROW_BOTTOMFLOOR</text>
  <text x="220" y="9461">ZONE SUPPLY AIR SPLITTER_UNIT2_BACKROW_BOTTOMFLOOR</text>
  <text x="220" y="9481">ZONE SUPPLY AIR SPLITTER_UNIT3_BACKROW_BOTTOMFLOOR</text>
  <text x="220" y="9501">ZONE SUPPLY AIR SPLITTER_UNIT1_FRONTROW_MIDDLEFLOOR</text>
  <text x="220" y="9521">ZONE SUPPLY AIR SPLITTER_UNIT2_FRONTROW_MIDDLEFLOOR</text>
  <text x="220" y="9541">ZONE SUPPLY AIR SPLITTER_UNIT3_FRONTROW_MIDDLEFLOOR</text>
  <text x="220" y="9561">ZONE SUPPLY AIR SPLITTER_UNIT1_BACKROW_MIDDLEFLOOR</text>
  <text x="220" y="9581">ZONE SUPPLY AIR SPLITTER_UNIT2_BACKROW_MIDDLEFLOOR</text>
  <text x="220" y="9601">ZONE SUPPLY AIR SPLITTER_UNIT3_BACKROW_MIDDLEFLOOR</text>
  <text x="220" y="9621">ZONE SUPPLY AIR SPLITTER_UNIT1_FRONTROW_TOPFLOOR</text>
  <text x="220" y="9641">ZONE SUPPLY AIR SPLITTER_UNIT2_FRONTROW_TOPFLOOR</text>
  <text x="220" y="9661">ZONE SUPPLY AIR SPLITTER_UNIT3_FRONTROW_TOPFLOOR</text>
  <text x="220" y="9681">ZONE SUPPLY AIR SPLITTER_UNIT1_BACKROW_TOPFLOOR</text>
  <text x="220" y="9701">ZONE SUPPLY AIR SPLITTER_UNIT2_BACKROW_TOPFLOOR</text>
  <text x="220" y="9721">ZONE SUPPLY AIR SPLITTER_UNIT3_BACKROW_TOPFLOOR</text>
  <text x="220" y="9741">OA_HEAT_RECOVERY_UNIT1_FRONTROW_BOTTOMFLOOR</text>
  <text x="220" y="9761">OA_HEAT_RECOVERY_UNIT1_FRONTROW_BOTTOMFLOOR</text>
  <text x="220" y="9781">OA_HEAT_RECOVERY_UNIT2_FRONTROW_BOTTOMFLOOR</text>
  <text x="220" y="9801">OA_HEAT_RECOVERY_UNIT2_FRONTROW_BOTTOMFLOOR</text>
  <text x="220" y="9821">OA_HEAT_RECOVERY_UNIT3_FRONTROW_BOTTOMFLOOR</text>
  <text x="220" y="9841">OA_HEAT_RECOVERY_UNIT3_FRONTROW_BOTTOMFLOOR</text>
  <text x="220" y="9861">OA_HEAT_RECOVERY_UNIT1_BACKROW_BOTTOMFLOOR</text>
  <text x="220" y="9881">OA_HEAT_RECOVERY_UNIT1_BACKROW_BOTTOMFLOOR</text>
  <text x="220" y="9901">OA_HEAT_RECOVERY_UNIT2_BACKROW_BOTTOMFLOOR</text>
  <text x="220" y="9921">OA_HEAT_RECOVERY_UNIT2_BACKROW_BOTTOMFLOOR</text>
  <text x="220" y="9941">OA_HEAT_RECOVERY_UNIT3_BACKROW_BOTTOMFLOOR</text>
  <text x="220" y="9961">OA_HEAT_RECOVERY_UNIT3_BACKROW_BOTTOMFLOOR</text>
  <text x="220" y="9981">OA_HEAT_RECOVERY_UNIT1_FRONTROW_MIDDLEFLOOR</text>
  <text x="220" y="10001">OA_HEAT_RECOVERY_UNIT1_FRONTROW_MIDDLEFLOOR</text>
  <text x="220" y="10021">OA_HEAT_RECOVERY_UNIT2_FRONTROW_MIDDLEFLOOR</text>
  <text x="220" y="10041">OA_HEAT_RECOVERY_UNIT2_FRONTROW_MIDDLEFLOOR</text>
  <text x="220" y="10061">OA_HEAT_RECOVERY_UNIT3_FRONTROW_MIDDLEFLOOR</text>
  <text x="220" y="10081">OA_HEAT_RECOVERY_UNIT3_FRONTROW_MIDDLEFLOOR</text>
  <text x="220" y="10101">OA_HEAT_RECOVERY_UNIT1_BACKROW_MIDDLEFLOOR</text>
  <text x="220" y="10121">OA_HEAT_RECOVERY_UNIT1_BACKROW_MIDDLEFLOOR</text>
  <text x="220" y="10141">OA_HEAT_RECOVERY_UNIT2_BACKROW_MIDDLEFLOOR</text>
  <text x="220" y="10161">OA_HEAT_RECOVERY_UNIT2_BACKROW_MIDDLEFLOOR</text>
  <text x="220" y="10181">OA_HEAT_RECOVERY_UNIT3_BACKROW_MIDDLEFLOOR</text>
  <text x="220" y="10201">OA_HEAT_RECOVERY_UNIT3_BACKROW_MIDDLEFLOOR</text>
  <text x="220" y="10221">OA_HEAT_RECOVERY_UNIT1_FRONTROW_TOPFLOOR</text>
  <text x="220" y="10241">OA_HEAT_RECOVERY_UNIT1_FRONTROW_TOPFLOOR</text>
  <text x="220" y="10261">OA_HEAT_RECOVERY_UNIT2_FRONTROW_TOPFLOOR</text>
  <text x="220" y="10281">OA_HEAT_RECOVERY_UNIT2_FRONTROW_TOPFLOOR</text>
  <text x="220" y="10301">OA_HEAT_RECOVERY_UNIT3_FRONTROW_TOPFLOOR</text>
  <text x="220" y="10321">OA_HEAT_RECOVERY_UNIT3_FRONTROW_TOPFLOOR</text>
  <text x="220" y="10341">OA_HEAT_RECOVERY_UNIT1_BACKROW_TOPFLOOR</text>
  <text x="220" y="10361">OA_HEAT_RECOVERY_UNIT1_BACKROW_TOPFLOOR</text>
  <text x="220" y="10381">OA_HEAT_RECOVERY_UNIT2_BACKROW_TOPFLOOR</text>
  <text x="220" y="10401">OA_HEAT_RECOVERY_UNIT2_BACKROW_TOPFLOOR</text>
  <text x="220" y="10421">OA_HEAT_RECOVERY_UNIT3_BACKROW_TOPFLOOR</text>
  <text x="220" y="10441">OA_HEAT_RECOVERY_UNIT3_BACKROW_TOPFLOOR</text>
  <text x="220" y="10461">ZONEDIRECTAIR_UNIT1_FRONTROW_BOTTOMFLOOR</text>
  <text x="220" y="10481">ZONEDIRECTAIR_UNIT2_FRONTROW_BOTTOMFLOOR</text>
  <text x="220" y="10501">ZONEDIRECTAIR_UNIT3_FRONTROW_BOTTOMFLOOR</text>
  <text x="220" y="10521">ZONEDIRECTAIR_UNIT1_BACKROW_BOTTOMFLOOR</text>
  <text x="220" y="10541">ZONEDIRECTAIR_UNIT2_BACKROW_BOTTOMFLOOR</text>
  <text x="220" y="10561">ZONEDIRECTAIR_UNIT3_BACKROW_BOTTOMFLOOR</text>
  <text x="220" y="10581">ZONEDIRECTAIR_UNIT1_FRONTROW_MIDDLEFLOOR</text>
  <text x="220" y="10601">ZONEDIRECTAIR_UNIT2_FRONTROW_MIDDLEFLOOR</text>
  <text x="220" y="10621">ZONEDIRECTAIR_UNIT3_FRONTROW_MIDDLEFLOOR</text>
  <text x="220" y="10641">ZONEDIRECTAIR_UNIT1_BACKROW_MIDDLEFLOOR</text>
  <text x="220" y="10661">ZONEDIRECTAIR_UNIT2_BACKROW_MIDDLEFLOOR</text>
  <text x="220" y="10681">ZONEDIRECTAIR_UNIT3_BACKROW_MIDDLEFLOOR</text>
  <text x="220" y="10701">ZONEDIRECTAIR_UNIT1_FRONTROW_TOPFLOOR</text>
  <text x="220" y="10721">ZONEDIRECTAIR_UNIT2_FRONTROW_TOPFLOOR</text>
  <text x="220" y="10741">ZONEDIRECTAIR_UNIT3_FRONTROW_TOPFLOOR</text>
  <text x="220" y="10761">ZONEDIRECTAIR_UNIT1_BACKROW_TOPFLOOR</text>
  <text x="220" y="10781">ZONEDIRECTAIR_UNIT2_BACKROW_TOPFLOOR</text>
  <text x="220" y="10801">ZONEDIRECTAIR_UNIT3_BACKROW_TOPFLOOR</text>
  <text x="220" y="10821">ZONE RETURN AIR MIXER_UNIT1_FRONTROW_BOTTOMFLOOR</text>
  <text x="220" y="10841">ZONE RETURN AIR MIXER_UNIT2_FRONTROW_BOTTOMFLOOR</text>
  <text x="220" y="10861">ZONE RETURN AIR MIXER_UNIT3_FRONTROW_BOTTOMFLOOR</text>
  <text x="220" y="10881">ZONE RETURN AIR MIXER_UNIT1_BACKROW_BOTTOMFLOOR</text>
  <text x="220" y="10901">ZONE RETURN AIR MIXER_UNIT2_BACKROW_BOTTOMFLOOR</text>
  <text x="220" y="10921">ZONE RETURN AIR MIXER_UNIT3_BACKROW_BOTTOMFLOOR</text>
  <text x="220" y="10941">ZONE RETURN AIR MIXER_UNIT1_FRONTROW_MIDDLEFLOOR</text>
  <text x="220" y="10961">ZONE RETURN AIR MIXER_UNIT2_FRONTROW_MIDDLEFLOOR</text>
  <text x="220" y="10981">ZONE RETURN AIR MIXER_UNIT3_FRONTROW_MIDDLEFLOOR</text>
  <text x="220" y="11001">ZONE RETURN AIR MIXER_UNIT1_BACKROW_MIDDLEFLOOR</text>
  <text x="220" y="11021">ZONE RETURN AIR MIXER_UNIT2_BACKROW_MIDDLEFLOOR</text>
  <text x="220" y="11041">ZONE RETURN AIR MIXER_UNIT3_BACKROW_MIDDLEFLOOR</text>
  <text x="220" y="11061">ZONE RETURN AIR MIXER_UNIT1_FRONTROW_TOPFLOOR</text>
  <text x="220" y="11081">ZONE RETURN AIR MIXER_UNIT2_FRONTROW_TOPFLOOR</text>
  <text x="220" y="11101">ZONE RETURN AIR MIXER_UNIT3_FRONTROW_TOPFLOOR</text>
  <text x="220" y="11121">ZONE RETURN AIR MIXER_UNIT1_BACKROW_TOPFLOOR</text>
  <text x="220" y="11141">ZONE RETURN AIR MIXER_UNIT2_BACKROW_TOPFLOOR</text>
  <text x="220" y="11161">ZONE RETURN AIR MIXER_UNIT3_BACKROW_TOPFLOOR</text>
  <text x="220" y="11181">SUPP HEATING COIL_UNIT1_FRONTROW_BOTTOMFLOOR</text>
  <text x="220" y="11201">SUPP HEATING COIL_UNIT2_FRONTROW_BOTTOMFLOOR</text>
  <text x="220" y="11221">SUPP HEATING COIL_UNIT3_FRONTROW_BOTTOMFLOOR</text>
  <text x="220" y="11241">SUPP HEATING COIL_UNIT1_BACKROW_BOTTOMFLOOR</text>
  <text x="220" y="11261">SUPP HEATING COIL_UNIT2_BACKROW_BOTTOMFLOOR</text>
  <text x="220" y="11281">SUPP HEATING COIL_UNIT3_BACKROW_BOTTOMFLOOR</text>
  <text x="220" y="11301">SUPP HEATING COIL_UNIT1_FRONTROW_MIDDLEFLOOR</text>
  <text x="220" y="11321">SUPP HEATING COIL_UNIT2_FRONTROW_MIDDLEFLOOR</text>
  <text x="220" y="11341">SUPP HEATING COIL_UNIT3_FRONTROW_MIDDLEFLOOR</text>
  <text x="220" y="11361">SUPP HEATING COIL_UNIT1_BACKROW_MIDDLEFLOOR</text>
  <text x="220" y="11381">SUPP HEATING COIL_UNIT2_BACKROW_MIDDLEFLOOR</text>
  <text x="220" y="11401">SUPP HEATING COIL_UNIT3_BACKROW_MIDDLEFLOOR</text>
  <text x="220" y="11421">SUPP HEATING COIL_UNIT1_FRONTROW_TOPFLOOR</text>
  <text x="220" y="11441">SUPP HEATING COIL_UNIT2_FRONTROW_TOPFLOOR</text>
  <text x="220" y="11461">SUPP HEATING COIL_UNIT3_FRONTROW_TOPFLOOR</text>
  <text x="220" y="11481">SUPP HEATING COIL_UNIT1_BACKROW_TOPFLOOR</text>
  <text x="220" y="11501">SUPP HEATING COIL_UNIT2_BACKROW_TOPFLOOR</text>
  <text x="220" y="11521">SUPP HEATING COIL_UNIT3_BACKROW_TOPFLOOR</text>
  <text x="220" y="11541">MAINS PRESSURE_UNIT1_FRONTROW_BOTTOMFLOOR</text>
  <text x="220" y="11561">MAINS PRESSURE_UNIT2_FRONTROW_BOTTOMFLOOR</text>
  <text x="220" y="11581">MAINS PRESSURE_UNIT3_FRONTROW_BOTTOMFLOOR</text>
  <text x="220" y="11601">MAINS PRESSURE_UNIT1_BACKROW_BOTTOMFLOOR</text>
  <text x="220" y="11621">MAINS PRESSURE_UNIT2_BACKROW_BOTTOMFLOOR</text>
  <text x="220" y="11641">MAINS PRESSURE_UNIT3_BACKROW_BOTTOMFLOOR</text>
  <text x="220" y="11661">MAINS PRESSURE_UNIT1_FRONTROW_MIDDLEFLOOR</text>
  <text x="220" y="11681">MAINS PRESSURE_UNIT2_FRONTROW_MIDDLEFLOOR</text>
  <text x="220" y="11701">MAINS PRESSURE_UNIT3_FRONTROW_MIDDLEFLOOR</text>
  <text x="220" y="11721">MAINS PRESSURE_UNIT1_BACKROW_MIDDLEFLOOR</text>
  <text x="220" y="11741">MAINS PRESSURE_UNIT2_BACKROW_MIDDLEFLOOR</text>
  <text x="220" y="11761">MAINS PRESSURE_UNIT3_BACKROW_MIDDLEFLOOR</text>
  <text x="220" y="11781">MAINS PRESSURE_UNIT1_FRONTROW_TOPFLOOR</text>
  <text x="220" y="11801">MAINS PRESSURE_UNIT2_FRONTROW_TOPFLOOR</text>
  <text x="220" y="11821">MAINS PRESSURE_UNIT3_FRONTROW_TOPFLOOR</text>
  <text x="220" y="11841">MAINS PRESSURE_UNIT1_BACKROW_TOPFLOOR</text>
  <text x="220" y="11861">MAINS PRESSURE_UNIT2_BACKROW_TOPFLOOR</text>
  <text x="220" y="11881">MAINS PRESSURE_UNIT3_BACKROW_TOPFLOOR</text>
  <text x="220" y="11901">LIVING_UNIT2_FRONTROW_BOTTOMFLOOR</text>
  <text x="220" y="11921">LIVING_UNIT3_FRONTROW_BOTTOMFLOOR</text>
  <text x="220" y="11941">LIVING_UNIT1_BACKROW_BOTTOMFLOOR</text>
  <text x="220" y="11961">LIVING_UNIT2_BACKROW_BOTTOMFLOOR</text>
  <text x="220" y="11981">LIVING_UNIT3_BACKROW_BOTTOMFLOOR</text>
  <text x="220" y="12001">LIVING_UNIT1_FRONTROW_MIDDLEFLOOR</text>
  <text x="220" y="12021">LIVING_UNIT2_FRONTROW_MIDDLEFLOOR</text>
  <text x="220" y="12041">LIVING_UNIT3_FRONTROW_MIDDLEFLOOR</text>
  <text x="220" y="12061">LIVING_UNIT1_BACKROW_MIDDLEFLOOR</text>
  <text x="220" y="12081">LIVING_UNIT2_BACKROW_MIDDLEFLOOR</text>
  <text x="220" y="12101">LIVING_UNIT3_BACKROW_MIDDLEFLOOR</text>
  <text x="220" y="12121">LIVING_UNIT1_FRONTROW_TOPFLOOR</text>
  <text x="220" y="12141">LIVING_UNIT2_FRONTROW_TOPFLOOR</text>
  <text x="220" y="12161">LIVING_UNIT3_FRONTROW_TOPFLOOR</text>
  <text x="220" y="12181">LIVING_UNIT1_BACKROW_TOPFLOOR</text>
  <text x="220" y="12201">LIVING_UNIT2_BACKROW_TOPFLOOR</text>
  <text x="220" y="12221">LIVING_UNIT3_BACKROW_TOPFLOOR</text>
  <text x="200" y="12261">
The following are not supported: objects related to controls or ZoneHVAC:IdealLoadsAirSystem</text>
</g>
</svg>
