<?xml version="1.0"?>
<svg width="250mm" height="200mm" viewBox="0 0 2750 1500"
     xmlns="http://www.w3.org/2000/svg"
     xmlns:xlink="http://www.w3.org/1999/xlink"
     xmlns:ev="http://www.w3.org/2001/xml-events">
<g font-family="Verdana" font-size="8">
  <rect x="950" y="20" width="200" height="20" style="fill:chartreuse; stroke: black;"/>1
  <text x="952" y="33">LIVING ZONE</text>
  <rect x="700" y="100" width="200" height="20" style="fill:wheat; stroke: black;"/>4
  <text x="702" y="113">PIPE ADIABATIC 1</text>
  <rect x="1200" y="140" width="200" height="20" style="fill:wheat; stroke: black;"/>5
  <text x="1202" y="153">PIPE ADIABATIC 2</text>
  <rect x="1450" y="140" width="200" height="20" style="fill:wheat; stroke: black;"/>6
  <text  x="1452" y="148">DOMESTIC HOT WATER LOOP DEMAND
  <tspan x="1452" y="156">INLET PIPE</tspan></text>
  <rect x="1950" y="180" width="200" height="20" style="fill:wheat; stroke: black;"/>7
  <text  x="1952" y="188">DOMESTIC HOT WATER LOOP DEMAND
  <tspan x="1952" y="196">BYPASS PIPE</tspan></text>
  <rect x="2450" y="180" width="200" height="20" style="fill:wheat; stroke: black;"/>8
  <text  x="2452" y="188">DOMESTIC HOT WATER LOOP DEMAND
  <tspan x="2452" y="196">OUTLET PIPE</tspan></text>
  <rect x="1950" y="140" width="200" height="20" style="fill:wheat; stroke: black;"/>9
  <text x="1952" y="153">WATER USE CONNECTIONS 1</text>
  <rect x="1700" y="140" width="200" height="20" style="fill:wheat; stroke: black;"/>10
  <text  x="1702" y="148">DOMESTIC HOT WATER LOOP DEMAND
  <tspan x="1702" y="156">SPLITTER</tspan></text>
  <rect x="2200" y="180" width="200" height="20" style="fill:wheat; stroke: black;"/>11
  <text x="2202" y="193">DOMESTIC HOT WATER LOOP DEMAND MIXER</text>
  <rect x="700" y="140" width="200" height="20" style="fill:orange; stroke: black;"/>12
  <text x="702" y="153">RES WH</text>
  <rect x="450" y="100" width="200" height="20" style="fill:wheat; stroke: black;"/>13
  <text  x="452" y="108">DOMESTIC HOT WATER LOOP SUPPLY
  <tspan x="452" y="116">SPLITTER</tspan></text>
  <rect x="950" y="140" width="200" height="20" style="fill:wheat; stroke: black;"/>14
  <text x="952" y="153">DOMESTIC HOT WATER LOOP SUPPLY MIXER</text>
  <rect x="700" y="20" width="200" height="20" style="fill:silver; stroke: black;"/>15
  <text  x="702" y="28">RES ROOM AC LIVING ZONE CLG SUPPLY
  <tspan x="702" y="36">FAN</tspan></text>
  <rect x="450" y="20" width="200" height="20" style="fill:salmon; stroke: black;"/>16
  <text x="452" y="33">RES ROOM AC ALWAYS OFF HEATING COIL</text>
  <rect x="200" y="20" width="200" height="20" style="fill:skyblue; stroke: black;"/>17
  <text x="202" y="33">RES ROOM AC COOLING COIL</text>
  <rect x="200" y="100" width="200" height="20" style="fill:springgreen; stroke: black;"/>18
  <text x="202" y="113">PUMP VARIABLE SPEED 1</text>
  <line x1="900" y1="110" x2="950" y2="150" style="stroke:black;"/>
  <line x1="1400" y1="150" x2="1450" y2="150" style="stroke:black;"/>
  <line x1="1650" y1="150" x2="1700" y2="150" style="stroke:black;"/>
  <line x1="2150" y1="190" x2="2200" y2="190" style="stroke:black;"/>
  <line x1="2150" y1="150" x2="2200" y2="190" style="stroke:black;"/>
  <line x1="1900" y1="150" x2="1950" y2="150" style="stroke:black;"/>
  <line x1="1900" y1="150" x2="1950" y2="190" style="stroke:black;"/>
  <line x1="2400" y1="190" x2="2450" y2="190" style="stroke:black;"/>
  <line x1="900" y1="150" x2="950" y2="150" style="stroke:black;"/>
  <line x1="650" y1="110" x2="700" y2="110" style="stroke:black;"/>
  <line x1="650" y1="110" x2="700" y2="150" style="stroke:black;"/>
  <line x1="1150" y1="150" x2="1200" y2="150" style="stroke:black;"/>
  <line x1="900" y1="30" x2="950" y2="30" style="stroke:black;"/>
  <line x1="650" y1="30" x2="700" y2="30" style="stroke:black;"/>
  <line x1="400" y1="30" x2="450" y2="30" style="stroke:black;"/>
  <line x1="400" y1="110" x2="450" y2="110" style="stroke:black;"/>
  <line x1="200" y1="30" x2="175" y2="30" style="stroke:black;"/>
  <line x1="175" y1="30" x2="175" y2="0" style="stroke:black;"/>
  <line x1="175" y1="0" x2="1175" y2="0" style="stroke:black;"/>
  <line x1="1175" y1="0" x2="1175" y2="30" style="stroke:black;"/>
  <line x1="1175" y1="30" x2="1150" y2="30" style="stroke:black;"/>
  <line x1="200" y1="110" x2="175" y2="110" style="stroke:black;"/>
  <line x1="175" y1="110" x2="175" y2="80" style="stroke:black;"/>
  <line x1="175" y1="80" x2="2675" y2="80" style="stroke:black;"/>
  <line x1="2675" y1="80" x2="2675" y2="190" style="stroke:black;"/>
  <line x1="2675" y1="190" x2="2650" y2="190" style="stroke:black;"/>
  <text x="200" y="240">Unused Non-Parent Objects:</text>
  <text x="220" y="260">OutdoorAir:Node</text>
  <text x="220" y="280">SETPOINT MANAGER SCHEDULED 1</text>
  <text x="200" y="320">
The following are not supported: objects related to controls or ZoneHVAC:IdealLoadsAirSystem</text>
</g>
</svg>
