<?xml version="1.0"?>
<svg width="250mm" height="200mm" viewBox="0 0 2500 1500"
     xmlns="http://www.w3.org/2000/svg"
     xmlns:xlink="http://www.w3.org/1999/xlink"
     xmlns:ev="http://www.w3.org/2001/xml-events">
<g font-family="Verdana" font-size="8">
  <text x="1" y="1">ERROR - COULD NOT COMPLETE DRAWING! Examine ERR file for possible explanation. Last error message is:   "Error: No node connection found after the following object: HEAT PUMP WATER HEATER FAN_UNIT1"</text>
  <rect x="200" y="20" width="1" height="1" style="fill:aliceblue; stroke: black;"/>4
  <text  x="202" y="9">HEAT PUMP WATER HEATER
  <tspan x="202" y="17">EVAPORATOR_UNIT1</tspan></text>
  <rect x="200" y="20" width="1" height="1" style="fill:silver; stroke: black;"/>11
  <text x="202" y="14">HEAT PUMP WATER HEATER FAN_UNIT1</text>
  <line x1="201" y1="20" x2="200" y2="20" style="stroke:black;"/>
  <text x="200" y="61">Unused Non-Parent Objects:</text>
  <text x="220" y="81">LIVING_UNIT1</text>
  <text x="220" y="101">DX COOLING COIL_UNIT1</text>
  <text x="220" y="121">MAIN DX HEATING COIL_UNIT1</text>
  <text x="220" y="141">OutdoorAir:NodeList</text>
  <text x="220" y="161">OutdoorAir:Node</text>
  <text x="220" y="181">SUPPLY FAN_UNIT1</text>
  <text x="220" y="201">OASUPPLYFAN_UNIT1</text>
  <text x="220" y="221">OAEXHAUSTFAN_UNIT1</text>
  <text x="220" y="241">WATER HEATER_TANK_UNIT1</text>
  <text x="220" y="261">WATER HEATER_TANK_UNIT1</text>
  <text x="220" y="281">DHW LOOP SETPOINT MANAGER_UNIT1</text>
  <text x="220" y="301">DHW SUPPLY OUTLET PIPE_UNIT1</text>
  <text x="220" y="321">MAINS MAKEUP PIPE_UNIT1</text>
  <text x="220" y="341">DHW DEMAND INLET PIPE_UNIT1</text>
  <text x="220" y="361">DHW SINKS_UNIT1</text>
  <text x="220" y="381">DHW SHOWERS_UNIT1</text>
  <text x="220" y="401">DHW CLOTHESWASHER_UNIT1</text>
  <text x="220" y="421">DHW DISHWASHER_UNIT1</text>
  <text x="220" y="441">DHW BATHS_UNIT1</text>
  <text x="220" y="461">DHW DEMAND SPLITTER_UNIT1</text>
  <text x="220" y="481">DHW DEMAND MIXER_UNIT1</text>
  <text x="220" y="501">DHW SUPPLY SPLITTER_UNIT1</text>
  <text x="220" y="521">DHW SUPPLY MIXER_UNIT1</text>
  <text x="220" y="541">ZONE SUPPLY AIR SPLITTER_UNIT1</text>
  <text x="220" y="561">OA_HEAT_RECOVERY_UNIT1</text>
  <text x="220" y="581">OA_HEAT_RECOVERY_UNIT1</text>
  <text x="220" y="601">ZONEDIRECTAIR_UNIT1</text>
  <text x="220" y="621">ZONE RETURN AIR MIXER_UNIT1</text>
  <text x="220" y="641">SUPP HEATING COIL_UNIT1</text>
  <text x="220" y="661">MAINS PRESSURE_UNIT1</text>
  <text x="200" y="701">
The following are not supported: objects related to controls or ZoneHVAC:IdealLoadsAirSystem</text>
</g>
</svg>
