  0
SECTION
  2
ENTITIES
999
DXF created from WinEPDraw
999
Program Version,EPDraw, Version 3.0
999
Polygon Action,TRIANGULATE 3DFACE
999
Text - True North
  0
TEXT
  8
1
  6
Continuous
 62
  3
 10
      -11.00000
 20
        3.00000
 30
        0.10000
 40
 .25
  1
True North
 41
 0.0
  7
MONOTXT
210
0.0
220
0.0
230
1.0
999
Text - Building Title
  0
TEXT
  8
1
  6
Continuous
 62
  3
 10
      -14.00000
 20
       -1.00000
 30
        0.10000
 40
 .4
  1
Building - US+SF+CZ5B+HP+SLAB+IECC_2021
 41
 0.0
  7
MONOTXT
210
0.0
220
0.0
230
1.0
999
North Arrow Stem
  0
3DFACE
  8
1
 62
  3
 10
      -10.00000
 20
        3.00000
 30
        0.10000
 11
      -10.00000
 21
        3.00000
 31
        0.00000
 12
      -10.00000
 22
        0.00000
 32
        0.00000
 13
      -10.00000
 23
        0.00000
 33
        0.10000
999
North Arrow Head 1
  0
3DFACE
  8
1
 62
  3
 10
      -10.00000
 20
        3.00000
 30
        0.10000
 11
      -10.00000
 21
        3.00000
 31
        0.00000
 12
      -10.50000
 22
        2.13397
 32
        0.00000
 13
      -10.50000
 23
        2.13397
 33
        0.10000
999
North Arrow Head 2
  0
3DFACE
  8
1
 62
  3
 10
      -10.00000
 20
        3.00000
 30
        0.10000
 11
      -10.00000
 21
        3.00000
 31
        0.00000
 12
       -9.50000
 22
        2.13397
 32
        0.00000
 13
       -9.50000
 23
        2.13397
 33
        0.10000
999
North Arrow Side 1
  0
3DFACE
  8
1
 62
  3
 10
      -10.50000
 20
        4.50000
 30
        0.10000
 11
      -10.50000
 21
        4.50000
 31
        0.00000
 12
      -10.50000
 22
        3.50000
 32
        0.00000
 13
      -10.50000
 23
        3.50000
 33
        0.10000
999
North Arrow Side 2
  0
3DFACE
  8
1
 62
  3
 10
      -10.50000
 20
        4.50000
 30
        0.10000
 11
      -10.50000
 21
        4.50000
 31
        0.00000
 12
       -9.50000
 22
        3.50000
 32
        0.00000
 13
       -9.50000
 23
        3.50000
 33
        0.10000
999
North Arrow Side 3
  0
3DFACE
  8
1
 62
  3
 10
       -9.50000
 20
        4.50000
 30
        0.10000
 11
       -9.50000
 21
        4.50000
 31
        0.00000
 12
       -9.50000
 22
        3.50000
 32
        0.00000
 13
       -9.50000
 23
        3.50000
 33
        0.10000
999
Zone Names
999
Zone=1:LIVING_UNIT1
999
Zone=2:ATTIC_UNIT1
999
LIVING_UNIT1:WALL_LDF_1.UNIT1
  0
3DFACE
  8
LIVING_UNIT1
 62
 43
 10
        0.00000
 20
        0.00000
 30
        2.60156
 11
        0.00000
 21
        0.00000
 31
        0.01010
 12
       12.13309
 22
        0.00000
 32
        0.01010
 13
       12.13309
 23
        0.00000
 33
        2.60156
999
LIVING_UNIT1:WINDOW_LDF_1.UNIT1
  0
3DFACE
  8
LIVING_UNIT1
 62
143
 10
        1.00000
 20
        0.00000
 30
        2.44912
 11
        1.00000
 21
        0.00000
 31
        0.92473
 12
        3.70720
 22
        0.00000
 32
        0.92473
 13
        3.70720
 23
        0.00000
 33
        2.44912
999
LIVING_UNIT1:WALL_SDR_1.UNIT1
  0
3DFACE
  8
LIVING_UNIT1
 62
 43
 10
       12.13309
 20
        0.00000
 30
        2.60156
 11
       12.13309
 21
        0.00000
 31
        0.01010
 12
       12.13309
 22
        9.09982
 32
        0.01010
 13
       12.13309
 23
        9.09982
 33
        2.60156
999
LIVING_UNIT1:WINDOW_SDR_1.UNIT1
  0
3DFACE
  8
LIVING_UNIT1
 62
143
 10
       12.13309
 20
        1.00000
 30
        2.44912
 11
       12.13309
 21
        1.00000
 31
        0.92473
 12
       12.13309
 22
        3.70720
 32
        0.92473
 13
       12.13309
 23
        3.70720
 33
        2.44912
999
LIVING_UNIT1:WALL_LDB_1.UNIT1
  0
3DFACE
  8
LIVING_UNIT1
 62
 43
 10
       12.13309
 20
        9.09982
 30
        2.60156
 11
       12.13309
 21
        9.09982
 31
        0.01010
 12
        0.00000
 22
        9.09982
 32
        0.01010
 13
        0.00000
 23
        9.09982
 33
        2.60156
999
LIVING_UNIT1:WINDOW_LDB_1.UNIT1
  0
3DFACE
  8
LIVING_UNIT1
 62
143
 10
        9.39119
 20
        9.09982
 30
        2.44912
 11
        9.39119
 21
        9.09982
 31
        0.92473
 12
        6.68399
 22
        9.09982
 32
        0.92473
 13
        6.68399
 23
        9.09982
 33
        2.44912
999
LIVING_UNIT1:DOOR_LDB_UNIT1
  0
3DFACE
  8
LIVING_UNIT1
 62
 45
 10
       11.63309
 20
        9.09982
 30
        2.14425
 11
       11.63309
 21
        9.09982
 31
        0.01010
 12
        9.89119
 22
        9.09982
 32
        0.01010
 13
        9.89119
 23
        9.09982
 33
        2.14425
999
LIVING_UNIT1:WALL_SDL_1.UNIT1
  0
3DFACE
  8
LIVING_UNIT1
 62
 43
 10
        0.00000
 20
        9.09982
 30
        2.60156
 11
        0.00000
 21
        9.09982
 31
        0.01010
 12
        0.00000
 22
        0.00000
 32
        0.01010
 13
        0.00000
 23
        0.00000
 33
        2.60156
999
LIVING_UNIT1:WINDOW_SDL_1.UNIT1
  0
3DFACE
  8
LIVING_UNIT1
 62
143
 10
        0.00000
 20
        8.09982
 30
        2.44912
 11
        0.00000
 21
        8.09982
 31
        0.92473
 12
        0.00000
 22
        5.39262
 32
        0.92473
 13
        0.00000
 23
        5.39262
 33
        2.44912
999
LIVING_UNIT1:WALL_LDF_2.UNIT1
  0
3DFACE
  8
LIVING_UNIT1
 62
 43
 10
        0.00000
 20
        0.00000
 30
        5.19303
 11
        0.00000
 21
        0.00000
 31
        2.60156
 12
       12.13309
 22
        0.00000
 32
        2.60156
 13
       12.13309
 23
        0.00000
 33
        5.19303
999
LIVING_UNIT1:WINDOW_LDF_2.UNIT1
  0
3DFACE
  8
LIVING_UNIT1
 62
143
 10
        1.00000
 20
        0.00000
 30
        5.04059
 11
        1.00000
 21
        0.00000
 31
        3.51620
 12
        3.70720
 22
        0.00000
 32
        3.51620
 13
        3.70720
 23
        0.00000
 33
        5.04059
999
LIVING_UNIT1:WALL_SDR_2.UNIT1
  0
3DFACE
  8
LIVING_UNIT1
 62
 43
 10
       12.13309
 20
        0.00000
 30
        5.19303
 11
       12.13309
 21
        0.00000
 31
        2.60156
 12
       12.13309
 22
        9.09982
 32
        2.60156
 13
       12.13309
 23
        9.09982
 33
        5.19303
999
LIVING_UNIT1:WINDOW_SDR_2.UNIT1
  0
3DFACE
  8
LIVING_UNIT1
 62
143
 10
       12.13309
 20
        1.00000
 30
        5.04059
 11
       12.13309
 21
        1.00000
 31
        3.51620
 12
       12.13309
 22
        3.70720
 32
        3.51620
 13
       12.13309
 23
        3.70720
 33
        5.04059
999
LIVING_UNIT1:WALL_LDB_2.UNIT1
  0
3DFACE
  8
LIVING_UNIT1
 62
 43
 10
       12.13309
 20
        9.09982
 30
        5.19303
 11
       12.13309
 21
        9.09982
 31
        2.60156
 12
        0.00000
 22
        9.09982
 32
        2.60156
 13
        0.00000
 23
        9.09982
 33
        5.19303
999
LIVING_UNIT1:WINDOW_LDB_2.UNIT1
  0
3DFACE
  8
LIVING_UNIT1
 62
143
 10
        9.39119
 20
        9.09982
 30
        5.04059
 11
        9.39119
 21
        9.09982
 31
        3.51620
 12
        6.68399
 22
        9.09982
 32
        3.51620
 13
        6.68399
 23
        9.09982
 33
        5.04059
999
LIVING_UNIT1:WALL_SDL_2.UNIT1
  0
3DFACE
  8
LIVING_UNIT1
 62
 43
 10
        0.00000
 20
        9.09982
 30
        5.19303
 11
        0.00000
 21
        9.09982
 31
        2.60156
 12
        0.00000
 22
        0.00000
 32
        2.60156
 13
        0.00000
 23
        0.00000
 33
        5.19303
999
LIVING_UNIT1:WINDOW_SDL_2.UNIT1
  0
3DFACE
  8
LIVING_UNIT1
 62
143
 10
        0.00000
 20
        8.09982
 30
        5.04059
 11
        0.00000
 21
        8.09982
 31
        3.51620
 12
        0.00000
 22
        5.39262
 32
        3.51620
 13
        0.00000
 23
        5.39262
 33
        5.04059
999
LIVING_UNIT1:INTER ZONE FLOOR 1
  0
3DFACE
  8
LIVING_UNIT1
 62
  8
 10
       12.13309
 20
        0.00000
 30
        2.60156
 11
        0.00000
 21
        0.00000
 31
        2.60156
 12
        0.00000
 22
        9.09982
 32
        2.60156
 13
       12.13309
 23
        9.09982
 33
        2.60156
999
LIVING_UNIT1:FLOOR_UNIT1
  0
3DFACE
  8
LIVING_UNIT1
 62
  8
 10
       12.13309
 20
        0.00000
 30
        0.01010
 11
        0.00000
 21
        0.00000
 31
        0.01010
 12
        0.00000
 22
        9.09982
 32
        0.01010
 13
       12.13309
 23
        9.09982
 33
        0.01010
999
LIVING_UNIT1:CEILING_UNIT1
  0
3DFACE
  8
LIVING_UNIT1
 62
 15
 10
        0.00000
 20
        9.09982
 30
        5.19303
 11
        0.00000
 21
        0.00000
 31
        5.19303
 12
       12.13309
 22
        0.00000
 32
        5.19303
 13
       12.13309
 23
        9.09982
 33
        5.19303
999
LIVING_UNIT1:OVERHANG_SDR_1.UNIT1
  0
3DFACE
  8
LIVING_UNIT1
 62
 13
 10
       12.14833
 20
        1.00000
 30
        2.44912
 11
       12.13309
 21
        1.00000
 31
        2.44912
 12
       12.13309
 22
        3.70720
 32
        2.44912
 13
       12.14833
 23
        3.70720
 33
        2.44912
999
LIVING_UNIT1:OVERHANG_SDR_2.UNIT1
  0
3DFACE
  8
LIVING_UNIT1
 62
 13
 10
       12.14833
 20
        1.00000
 30
        5.04059
 11
       12.13309
 21
        1.00000
 31
        5.04059
 12
       12.13309
 22
        3.70720
 32
        5.04059
 13
       12.14833
 23
        3.70720
 33
        5.04059
999
ATTIC_UNIT1:ROOF_RIGHT_UNIT1
  0
3DFACE
  8
ATTIC_UNIT1
 62
 43
 10
       12.13309
 20
        4.54991
 30
        6.69956
 11
       12.13309
 21
        0.00000
 31
        5.19303
 12
       12.13309
 22
        9.09982
 32
        5.19303
 13
       12.13309
 23
        9.09982
 33
        5.19303
999
ATTIC_UNIT1:ROOF_LEFT_UNIT1
  0
3DFACE
  8
ATTIC_UNIT1
 62
 43
 10
        0.00000
 20
        4.54991
 30
        6.69956
 11
        0.00000
 21
        9.09982
 31
        5.19303
 12
        0.00000
 22
        0.00000
 32
        5.19303
 13
        0.00000
 23
        0.00000
 33
        5.19303
999
ATTIC_UNIT1:ROOF_FRONT_UNIT1
  0
3DFACE
  8
ATTIC_UNIT1
 62
 15
 10
        0.00000
 20
        4.54991
 30
        6.69956
 11
        0.00000
 21
        0.00000
 31
        5.19303
 12
       12.13309
 22
        0.00000
 32
        5.19303
 13
       12.13309
 23
        4.54991
 33
        6.69956
999
ATTIC_UNIT1:ROOF_BACK_UNIT1
  0
3DFACE
  8
ATTIC_UNIT1
 62
 15
 10
       12.13309
 20
        4.54991
 30
        6.69956
 11
       12.13309
 21
        9.09982
 31
        5.19303
 12
        0.00000
 22
        9.09982
 32
        5.19303
 13
        0.00000
 23
        4.54991
 33
        6.69956
  0
ENDSEC
  0
EOF
