  0
SECTION
  2
ENTITIES
999
DXF created from WinEPDraw
999
Program Version,EPDraw, Version 3.0
999
Polygon Action,TRIANGULATE 3DFACE
999
Text - True North
  0
TEXT
  8
1
  6
Continuous
 62
  3
 10
      -32.18542
 20
      -71.10000
 30
        0.10000
 40
 .25
  1
True North
 41
 0.0
  7
MONOTXT
210
0.0
220
0.0
230
1.0
999
Text - Building Title
  0
TEXT
  8
1
  6
Continuous
 62
  3
 10
      -35.18542
 20
      -75.10000
 30
        0.10000
 40
 .4
  1
Building - BUILDING 1
 41
 0.0
  7
MONOTXT
210
0.0
220
0.0
230
1.0
999
North Arrow Stem
  0
3DFACE
  8
1
 62
  3
 10
      -31.18542
 20
      -71.10000
 30
        0.10000
 11
      -31.18542
 21
      -71.10000
 31
        0.00000
 12
      -31.18542
 22
      -74.10000
 32
        0.00000
 13
      -31.18542
 23
      -74.10000
 33
        0.10000
999
North Arrow Head 1
  0
3DFACE
  8
1
 62
  3
 10
      -31.18542
 20
      -71.10000
 30
        0.10000
 11
      -31.18542
 21
      -71.10000
 31
        0.00000
 12
      -31.68542
 22
      -71.96602
 32
        0.00000
 13
      -31.68542
 23
      -71.96602
 33
        0.10000
999
North Arrow Head 2
  0
3DFACE
  8
1
 62
  3
 10
      -31.18542
 20
      -71.10000
 30
        0.10000
 11
      -31.18542
 21
      -71.10000
 31
        0.00000
 12
      -30.68542
 22
      -71.96602
 32
        0.00000
 13
      -30.68542
 23
      -71.96602
 33
        0.10000
999
North Arrow Side 1
  0
3DFACE
  8
1
 62
  3
 10
      -31.68542
 20
      -69.60000
 30
        0.10000
 11
      -31.68542
 21
      -69.60000
 31
        0.00000
 12
      -31.68542
 22
      -70.60000
 32
        0.00000
 13
      -31.68542
 23
      -70.60000
 33
        0.10000
999
North Arrow Side 2
  0
3DFACE
  8
1
 62
  3
 10
      -31.68542
 20
      -69.60000
 30
        0.10000
 11
      -31.68542
 21
      -69.60000
 31
        0.00000
 12
      -30.68542
 22
      -70.60000
 32
        0.00000
 13
      -30.68542
 23
      -70.60000
 33
        0.10000
999
North Arrow Side 3
  0
3DFACE
  8
1
 62
  3
 10
      -30.68542
 20
      -69.60000
 30
        0.10000
 11
      -30.68542
 21
      -69.60000
 31
        0.00000
 12
      -30.68542
 22
      -70.60000
 32
        0.00000
 13
      -30.68542
 23
      -70.60000
 33
        0.10000
999
Zone Names
999
Zone=1:GARAGE_ZONE
999
Zone=2:LIVING_ZONE
999
Zone=3:RES_DS_RES_AC_ASYS_RET_AIR_ZONE
999
Zone=4:RES_DS_RES_FUR_ELECTRIC_ASYS_RET_AIR_ZONE
999
Zone=5:UNFINISHED_ATTIC_ZONE
999
Building Shading:SURFACE 25 - RES EAVES
  0
3DFACE
  8
Building Shading
 62
195
 10
        0.60960
 20
       -9.22968
 30
        5.18160
 11
        0.60960
 21
       -4.61484
 31
        7.48902
 12
        0.00000
 22
       -4.61484
 32
        7.48902
 13
        0.00000
 23
       -9.22968
 33
        5.18160
999
Building Shading:SURFACE 25 - RES EAVES 1
  0
3DFACE
  8
Building Shading
 62
195
 10
      -17.22302
 20
       -4.61484
 30
        7.48902
 11
      -17.22302
 21
       -9.22968
 31
        5.18160
 12
      -16.61342
 22
       -9.22968
 32
        5.18160
 13
      -16.61342
 23
       -4.61484
 33
        7.48902
999
Building Shading:SURFACE 25 - RES EAVES 2
  0
3DFACE
  8
Building Shading
 62
195
 10
      -16.61342
 20
       -9.83928
 30
        4.87680
 11
        0.00000
 21
       -9.83928
 31
        4.87680
 12
        0.00000
 22
       -9.22968
 32
        5.18160
 13
      -16.61342
 23
       -9.22968
 33
        5.18160
999
Building Shading:SURFACE 31 - RES EAVES
  0
3DFACE
  8
Building Shading
 62
195
 10
       -5.03102
 20
       -0.00000
 30
        4.87680
 11
       -5.03102
 21
        3.65760
 31
        4.87680
 12
       -5.64062
 22
        3.65760
 32
        5.13207
 13
       -5.64062
 23
       -0.00000
 33
        5.13207
999
Building Shading:SURFACE 31 - RES EAVES 1
  0
3DFACE
  8
Building Shading
 62
195
 10
       -5.64062
 20
        4.26720
 30
        5.13207
 11
      -11.12702
 21
        4.26720
 31
        7.42949
 12
      -11.12702
 22
        3.65760
 32
        7.42949
 13
       -5.64062
 23
        3.65760
 33
        5.13207
999
Building Shading:SURFACE 32 - RES EAVES
  0
3DFACE
  8
Building Shading
 62
195
 10
      -17.22302
 20
        3.65760
 30
        4.87680
 11
      -17.22302
 21
       -0.00000
 31
        4.87680
 12
      -16.61342
 22
       -0.00000
 32
        5.13207
 13
      -16.61342
 23
        3.65760
 33
        5.13207
999
Building Shading:SURFACE 32 - RES EAVES 1
  0
3DFACE
  8
Building Shading
 62
195
 10
      -11.12702
 20
        4.26720
 30
        7.42949
 11
      -16.61342
 21
        4.26720
 31
        5.13207
 12
      -16.61342
 22
        3.65760
 32
        5.13207
 13
      -11.12702
 23
        3.65760
 33
        7.42949
999
Building Shading:SURFACE 35 - RES EAVES
  0
3DFACE
  8
Building Shading
 62
195
 10
        0.60960
 20
       -4.61484
 30
        7.48902
 11
        0.60960
 21
        0.00000
 31
        5.18160
 12
       -0.00000
 22
        0.00000
 32
        5.18160
 13
        0.00000
 23
       -4.61484
 33
        7.48902
999
Building Shading:SURFACE 35 - RES EAVES 1
  0
3DFACE
  8
Building Shading
 62
195
 10
       -0.00000
 20
        0.60960
 30
        4.87680
 11
       -5.64062
 21
        0.60960
 31
        4.87680
 12
       -5.64062
 22
       -0.00000
 32
        5.18160
 13
       -0.00000
 23
        0.00000
 33
        5.18160
999
Building Shading:SURFACE 35 - RES EAVES 2
  0
3DFACE
  8
Building Shading
 62
195
 10
      -17.22302
 20
       -0.00000
 30
        5.18160
 11
      -17.22302
 21
       -4.61484
 31
        7.48902
 12
      -16.61342
 22
       -4.61484
 32
        7.48902
 13
      -16.61342
 23
       -0.00000
 33
        5.18160
999
Building Shading:RES NEIGHBORS LEFT
  0
3DFACE
  8
Building Shading
 62
195
 10
        4.57200
 20
        3.65760
 30
        0.00000
 11
        4.57200
 21
        3.65760
 31
        7.18422
 12
        4.57200
 22
       -9.22968
 32
        7.18422
 13
        4.57200
 23
       -9.22968
 33
        0.00000
999
Building Shading:RES NEIGHBORS RIGHT
  0
3DFACE
  8
Building Shading
 62
195
 10
      -21.18542
 20
       -9.22968
 30
        0.00000
 11
      -21.18542
 21
       -9.22968
 31
        7.18422
 12
      -21.18542
 22
        3.65760
 32
        7.18422
 13
      -21.18542
 23
        3.65760
 33
        0.00000
999
Building Shading:SURFACE 10 - WINDOW 1 SHADING SURFACE
  0
3DFACE
  8
Building Shading
 62
195
 10
      -16.61342
 20
       -4.61015
 30
        2.13360
 11
      -16.61342
 21
       -4.61015
 31
        0.96811
 12
      -16.61342
 22
       -5.48448
 32
        0.96811
 13
      -16.61342
 23
       -5.48448
 33
        2.13360
999
Building Shading:SURFACE 10 - WINDOW 2 SHADING SURFACE
  0
3DFACE
  8
Building Shading
 62
195
 10
      -16.61342
 20
       -5.54544
 30
        2.13360
 11
      -16.61342
 21
       -5.54544
 31
        0.96811
 12
      -16.61342
 22
       -6.41977
 32
        0.96811
 13
      -16.61342
 23
       -6.41977
 33
        2.13360
999
Building Shading:SURFACE 10 - WINDOW 3 SHADING SURFACE
  0
3DFACE
  8
Building Shading
 62
195
 10
      -16.61342
 20
       -6.46751
 30
        2.13360
 11
      -16.61342
 21
       -6.46751
 31
        0.96811
 12
      -16.61342
 22
       -7.34184
 32
        0.96811
 13
      -16.61342
 23
       -7.34184
 33
        2.13360
999
Building Shading:SURFACE 10 - WINDOW 4 SHADING SURFACE
  0
3DFACE
  8
Building Shading
 62
195
 10
      -16.61342
 20
       -7.40280
 30
        2.13360
 11
      -16.61342
 21
       -7.40280
 31
        0.96811
 12
      -16.61342
 22
       -8.27713
 32
        0.96811
 13
      -16.61342
 23
       -8.27713
 33
        2.13360
999
Building Shading:SURFACE 13 - WINDOW 1 SHADING SURFACE
  0
3DFACE
  8
Building Shading
 62
195
 10
       -1.73572
 20
       -0.00000
 30
        2.13360
 11
       -1.73572
 21
       -0.00000
 31
        1.04973
 12
       -2.54883
 22
       -0.00000
 32
        1.04973
 13
       -2.54883
 23
       -0.00000
 33
        2.13360
999
Building Shading:SURFACE 13 - WINDOW 2 SHADING SURFACE
  0
3DFACE
  8
Building Shading
 62
195
 10
       -2.60979
 20
       -0.00000
 30
        2.13360
 11
       -2.60979
 21
       -0.00000
 31
        1.04973
 12
       -3.42290
 22
       -0.00000
 32
        1.04973
 13
       -3.42290
 23
       -0.00000
 33
        2.13360
999
Building Shading:SURFACE 13 - WINDOW 3 SHADING SURFACE
  0
3DFACE
  8
Building Shading
 62
195
 10
       -3.26638
 20
       -0.00000
 30
        2.13360
 11
       -3.26638
 21
       -0.00000
 31
        1.04973
 12
       -4.07948
 22
       -0.00000
 32
        1.04973
 13
       -4.07948
 23
       -0.00000
 33
        2.13360
999
Building Shading:SURFACE 13 - WINDOW 4 SHADING SURFACE
  0
3DFACE
  8
Building Shading
 62
195
 10
       -4.14044
 20
       -0.00000
 30
        2.13360
 11
       -4.14044
 21
       -0.00000
 31
        1.04973
 12
       -4.95355
 22
       -0.00000
 32
        1.04973
 13
       -4.95355
 23
       -0.00000
 33
        2.13360
999
Building Shading:SURFACE 16 - WINDOW 1 SHADING SURFACE
  0
3DFACE
  8
Building Shading
 62
195
 10
        0.00000
 20
       -8.26485
 30
        4.57200
 11
        0.00000
 21
       -8.26485
 31
        3.43811
 12
        0.00000
 22
       -7.41422
 32
        3.43811
 13
        0.00000
 23
       -7.41422
 33
        4.57200
999
Building Shading:SURFACE 16 - WINDOW 2 SHADING SURFACE
  0
3DFACE
  8
Building Shading
 62
195
 10
        0.00000
 20
       -7.35326
 30
        4.57200
 11
        0.00000
 21
       -7.35326
 31
        3.43811
 12
        0.00000
 22
       -6.50263
 32
        3.43811
 13
        0.00000
 23
       -6.50263
 33
        4.57200
999
Building Shading:SURFACE 16 - WINDOW 3 SHADING SURFACE
  0
3DFACE
  8
Building Shading
 62
195
 10
        0.00000
 20
       -6.41892
 30
        4.57200
 11
        0.00000
 21
       -6.41892
 31
        3.43811
 12
        0.00000
 22
       -5.56829
 32
        3.43811
 13
        0.00000
 23
       -5.56829
 33
        4.57200
999
Building Shading:SURFACE 16 - WINDOW 4 SHADING SURFACE
  0
3DFACE
  8
Building Shading
 62
195
 10
        0.00000
 20
       -5.50733
 30
        4.57200
 11
        0.00000
 21
       -5.50733
 31
        3.43811
 12
        0.00000
 22
       -4.65669
 32
        3.43811
 13
        0.00000
 23
       -4.65669
 33
        4.57200
999
Building Shading:SURFACE 16 - WINDOW 5 SHADING SURFACE
  0
3DFACE
  8
Building Shading
 62
195
 10
        0.00000
 20
       -4.57298
 30
        4.57200
 11
        0.00000
 21
       -4.57298
 31
        3.43811
 12
        0.00000
 22
       -3.72235
 32
        3.43811
 13
        0.00000
 23
       -3.72235
 33
        4.57200
999
Building Shading:SURFACE 16 - WINDOW 6 SHADING SURFACE
  0
3DFACE
  8
Building Shading
 62
195
 10
        0.00000
 20
       -3.66139
 30
        4.57200
 11
        0.00000
 21
       -3.66139
 31
        3.43811
 12
        0.00000
 22
       -2.81076
 32
        3.43811
 13
        0.00000
 23
       -2.81076
 33
        4.57200
999
Building Shading:SURFACE 16 - WINDOW 7 SHADING SURFACE
  0
3DFACE
  8
Building Shading
 62
195
 10
        0.00000
 20
       -2.27125
 30
        4.57200
 11
        0.00000
 21
       -2.27125
 31
        3.43811
 12
        0.00000
 22
       -1.42062
 32
        3.43811
 13
        0.00000
 23
       -1.42062
 33
        4.57200
999
Building Shading:SURFACE 17 - WINDOW 1 SHADING SURFACE
  0
3DFACE
  8
Building Shading
 62
195
 10
      -15.18095
 20
       -9.22968
 30
        4.57200
 11
      -15.18095
 21
       -9.22968
 31
        3.35844
 12
      -14.27055
 22
       -9.22968
 32
        3.35844
 13
      -14.27055
 23
       -9.22968
 33
        4.57200
999
Building Shading:SURFACE 17 - WINDOW 10 SHADING SURFACE
  0
3DFACE
  8
Building Shading
 62
195
 10
       -4.71621
 20
       -9.22968
 30
        4.57200
 11
       -4.71621
 21
       -9.22968
 31
        3.35844
 12
       -3.80581
 22
       -9.22968
 32
        3.35844
 13
       -3.80581
 23
       -9.22968
 33
        4.57200
999
Building Shading:SURFACE 17 - WINDOW 11 SHADING SURFACE
  0
3DFACE
  8
Building Shading
 62
195
 10
       -2.82854
 20
       -9.22968
 30
        4.57200
 11
       -2.82854
 21
       -9.22968
 31
        3.35844
 12
       -1.91815
 22
       -9.22968
 32
        3.35844
 13
       -1.91815
 23
       -9.22968
 33
        4.57200
999
Building Shading:SURFACE 17 - WINDOW 2 SHADING SURFACE
  0
3DFACE
  8
Building Shading
 62
195
 10
      -14.20959
 20
       -9.22968
 30
        4.57200
 11
      -14.20959
 21
       -9.22968
 31
        3.35844
 12
      -13.29919
 22
       -9.22968
 32
        3.35844
 13
      -13.29919
 23
       -9.22968
 33
        4.57200
999
Building Shading:SURFACE 17 - WINDOW 3 SHADING SURFACE
  0
3DFACE
  8
Building Shading
 62
195
 10
      -12.80760
 20
       -9.22968
 30
        4.57200
 11
      -12.80760
 21
       -9.22968
 31
        3.35844
 12
      -11.89721
 22
       -9.22968
 32
        3.35844
 13
      -11.89721
 23
       -9.22968
 33
        4.57200
999
Building Shading:SURFACE 17 - WINDOW 4 SHADING SURFACE
  0
3DFACE
  8
Building Shading
 62
195
 10
      -11.83625
 20
       -9.22968
 30
        4.57200
 11
      -11.83625
 21
       -9.22968
 31
        3.35844
 12
      -10.92585
 22
       -9.22968
 32
        3.35844
 13
      -10.92585
 23
       -9.22968
 33
        4.57200
999
Building Shading:SURFACE 17 - WINDOW 5 SHADING SURFACE
  0
3DFACE
  8
Building Shading
 62
195
 10
      -10.43426
 20
       -9.22968
 30
        4.57200
 11
      -10.43426
 21
       -9.22968
 31
        3.35844
 12
       -9.52386
 22
       -9.22968
 32
        3.35844
 13
       -9.52386
 23
       -9.22968
 33
        4.57200
999
Building Shading:SURFACE 17 - WINDOW 6 SHADING SURFACE
  0
3DFACE
  8
Building Shading
 62
195
 10
       -9.46290
 20
       -9.22968
 30
        4.57200
 11
       -9.46290
 21
       -9.22968
 31
        3.35844
 12
       -8.55250
 22
       -9.22968
 32
        3.35844
 13
       -8.55250
 23
       -9.22968
 33
        4.57200
999
Building Shading:SURFACE 17 - WINDOW 7 SHADING SURFACE
  0
3DFACE
  8
Building Shading
 62
195
 10
       -8.06091
 20
       -9.22968
 30
        4.57200
 11
       -8.06091
 21
       -9.22968
 31
        3.35844
 12
       -7.15052
 22
       -9.22968
 32
        3.35844
 13
       -7.15052
 23
       -9.22968
 33
        4.57200
999
Building Shading:SURFACE 17 - WINDOW 8 SHADING SURFACE
  0
3DFACE
  8
Building Shading
 62
195
 10
       -7.08956
 20
       -9.22968
 30
        4.57200
 11
       -7.08956
 21
       -9.22968
 31
        3.35844
 12
       -6.17916
 22
       -9.22968
 32
        3.35844
 13
       -6.17916
 23
       -9.22968
 33
        4.57200
999
Building Shading:SURFACE 17 - WINDOW 9 SHADING SURFACE
  0
3DFACE
  8
Building Shading
 62
195
 10
       -5.68757
 20
       -9.22968
 30
        4.57200
 11
       -5.68757
 21
       -9.22968
 31
        3.35844
 12
       -4.77717
 22
       -9.22968
 32
        3.35844
 13
       -4.77717
 23
       -9.22968
 33
        4.57200
999
Building Shading:SURFACE 18 - WINDOW 1 SHADING SURFACE
  0
3DFACE
  8
Building Shading
 62
195
 10
      -16.61342
 20
        2.42666
 30
        4.57200
 11
      -16.61342
 21
        2.42666
 31
        3.39035
 12
      -16.61342
 22
        1.54020
 32
        3.39035
 13
      -16.61342
 23
        1.54020
 33
        4.57200
999
Building Shading:SURFACE 18 - WINDOW 2 SHADING SURFACE
  0
3DFACE
  8
Building Shading
 62
195
 10
      -16.61342
 20
        1.47924
 30
        4.57200
 11
      -16.61342
 21
        1.47924
 31
        3.39035
 12
      -16.61342
 22
        0.59278
 32
        3.39035
 13
      -16.61342
 23
        0.59278
 33
        4.57200
999
Building Shading:SURFACE 18 - WINDOW 3 SHADING SURFACE
  0
3DFACE
  8
Building Shading
 62
195
 10
      -16.61342
 20
        0.27878
 30
        4.57200
 11
      -16.61342
 21
        0.27878
 31
        3.39035
 12
      -16.61342
 22
       -0.60768
 32
        3.39035
 13
      -16.61342
 23
       -0.60768
 33
        4.57200
999
Building Shading:SURFACE 18 - WINDOW 4 SHADING SURFACE
  0
3DFACE
  8
Building Shading
 62
195
 10
      -16.61342
 20
       -0.66864
 30
        4.57200
 11
      -16.61342
 21
       -0.66864
 31
        3.39035
 12
      -16.61342
 22
       -1.55510
 32
        3.39035
 13
      -16.61342
 23
       -1.55510
 33
        4.57200
999
Building Shading:SURFACE 18 - WINDOW 5 SHADING SURFACE
  0
3DFACE
  8
Building Shading
 62
195
 10
      -16.61342
 20
       -1.86910
 30
        4.57200
 11
      -16.61342
 21
       -1.86910
 31
        3.39035
 12
      -16.61342
 22
       -2.75556
 32
        3.39035
 13
      -16.61342
 23
       -2.75556
 33
        4.57200
999
Building Shading:SURFACE 18 - WINDOW 6 SHADING SURFACE
  0
3DFACE
  8
Building Shading
 62
195
 10
      -16.61342
 20
       -2.81652
 30
        4.57200
 11
      -16.61342
 21
       -2.81652
 31
        3.39035
 12
      -16.61342
 22
       -3.70297
 32
        3.39035
 13
      -16.61342
 23
       -3.70297
 33
        4.57200
999
Building Shading:SURFACE 18 - WINDOW 7 SHADING SURFACE
  0
3DFACE
  8
Building Shading
 62
195
 10
      -16.61342
 20
       -4.01698
 30
        4.57200
 11
      -16.61342
 21
       -4.01698
 31
        3.39035
 12
      -16.61342
 22
       -4.90344
 32
        3.39035
 13
      -16.61342
 23
       -4.90344
 33
        4.57200
999
Building Shading:SURFACE 18 - WINDOW 8 SHADING SURFACE
  0
3DFACE
  8
Building Shading
 62
195
 10
      -16.61342
 20
       -4.96440
 30
        4.57200
 11
      -16.61342
 21
       -4.96440
 31
        3.39035
 12
      -16.61342
 22
       -5.85085
 32
        3.39035
 13
      -16.61342
 23
       -5.85085
 33
        4.57200
999
Building Shading:SURFACE 18 - WINDOW 9 SHADING SURFACE
  0
3DFACE
  8
Building Shading
 62
195
 10
      -16.61342
 20
       -6.63857
 30
        4.57200
 11
      -16.61342
 21
       -6.63857
 31
        3.39035
 12
      -16.61342
 22
       -7.52503
 32
        3.39035
 13
      -16.61342
 23
       -7.52503
 33
        4.57200
999
Building Shading:SURFACE 19 - WINDOW 1 SHADING SURFACE
  0
3DFACE
  8
Building Shading
 62
195
 10
       -6.91592
 20
        3.65760
 30
        4.57200
 11
       -6.91592
 21
        3.65760
 31
        3.38726
 12
       -7.80470
 22
        3.65760
 32
        3.38726
 13
       -7.80470
 23
        3.65760
 33
        4.57200
999
Building Shading:SURFACE 19 - WINDOW 2 SHADING SURFACE
  0
3DFACE
  8
Building Shading
 62
195
 10
       -7.86566
 20
        3.65760
 30
        4.57200
 11
       -7.86566
 21
        3.65760
 31
        3.38726
 12
       -8.75443
 22
        3.65760
 32
        3.38726
 13
       -8.75443
 23
        3.65760
 33
        4.57200
999
Building Shading:SURFACE 19 - WINDOW 3 SHADING SURFACE
  0
3DFACE
  8
Building Shading
 62
195
 10
       -9.11048
 20
        3.65760
 30
        4.57200
 11
       -9.11048
 21
        3.65760
 31
        3.38726
 12
       -9.99926
 22
        3.65760
 32
        3.38726
 13
       -9.99926
 23
        3.65760
 33
        4.57200
999
Building Shading:SURFACE 19 - WINDOW 4 SHADING SURFACE
  0
3DFACE
  8
Building Shading
 62
195
 10
      -10.06022
 20
        3.65760
 30
        4.57200
 11
      -10.06022
 21
        3.65760
 31
        3.38726
 12
      -10.94899
 22
        3.65760
 32
        3.38726
 13
      -10.94899
 23
        3.65760
 33
        4.57200
999
Building Shading:SURFACE 19 - WINDOW 5 SHADING SURFACE
  0
3DFACE
  8
Building Shading
 62
195
 10
      -11.30504
 20
        3.65760
 30
        4.57200
 11
      -11.30504
 21
        3.65760
 31
        3.38726
 12
      -12.19382
 22
        3.65760
 32
        3.38726
 13
      -12.19382
 23
        3.65760
 33
        4.57200
999
Building Shading:SURFACE 19 - WINDOW 6 SHADING SURFACE
  0
3DFACE
  8
Building Shading
 62
195
 10
      -12.25478
 20
        3.65760
 30
        4.57200
 11
      -12.25478
 21
        3.65760
 31
        3.38726
 12
      -13.14355
 22
        3.65760
 32
        3.38726
 13
      -13.14355
 23
        3.65760
 33
        4.57200
999
Building Shading:SURFACE 19 - WINDOW 7 SHADING SURFACE
  0
3DFACE
  8
Building Shading
 62
195
 10
      -13.49960
 20
        3.65760
 30
        4.57200
 11
      -13.49960
 21
        3.65760
 31
        3.38726
 12
      -14.38838
 22
        3.65760
 32
        3.38726
 13
      -14.38838
 23
        3.65760
 33
        4.57200
999
Building Shading:SURFACE 19 - WINDOW 8 SHADING SURFACE
  0
3DFACE
  8
Building Shading
 62
195
 10
      -14.44934
 20
        3.65760
 30
        4.57200
 11
      -14.44934
 21
        3.65760
 31
        3.38726
 12
      -15.33811
 22
        3.65760
 32
        3.38726
 13
      -15.33811
 23
        3.65760
 33
        4.57200
999
Building Shading:SURFACE 20 - WINDOW 1 SHADING SURFACE
  0
3DFACE
  8
Building Shading
 62
195
 10
       -5.64062
 20
        0.37075
 30
        4.57200
 11
       -5.64062
 21
        0.37075
 31
        3.48165
 12
       -5.64062
 22
        1.18872
 32
        3.48165
 13
       -5.64062
 23
        1.18872
 33
        4.57200
999
Building Shading:SURFACE 20 - WINDOW 2 SHADING SURFACE
  0
3DFACE
  8
Building Shading
 62
195
 10
       -5.64062
 20
        1.24968
 30
        4.57200
 11
       -5.64062
 21
        1.24968
 31
        3.48165
 12
       -5.64062
 22
        2.06765
 32
        3.48165
 13
       -5.64062
 23
        2.06765
 33
        4.57200
999
Building Shading:SURFACE 20 - WINDOW 3 SHADING SURFACE
  0
3DFACE
  8
Building Shading
 62
195
 10
       -5.64062
 20
        2.02942
 30
        4.57200
 11
       -5.64062
 21
        2.02942
 31
        3.48165
 12
       -5.64062
 22
        2.84738
 32
        3.48165
 13
       -5.64062
 23
        2.84738
 33
        4.57200
999
Building Shading:SURFACE 21 - WINDOW 1 SHADING SURFACE
  0
3DFACE
  8
Building Shading
 62
195
 10
       -0.94854
 20
       -0.00000
 30
        4.57200
 11
       -0.94854
 21
       -0.00000
 31
        3.37072
 12
       -1.84973
 22
       -0.00000
 32
        3.37072
 13
       -1.84973
 23
       -0.00000
 33
        4.57200
999
Building Shading:SURFACE 21 - WINDOW 2 SHADING SURFACE
  0
3DFACE
  8
Building Shading
 62
195
 10
       -1.91069
 20
       -0.00000
 30
        4.57200
 11
       -1.91069
 21
       -0.00000
 31
        3.37072
 12
       -2.81187
 22
       -0.00000
 32
        3.37072
 13
       -2.81187
 23
       -0.00000
 33
        4.57200
999
Building Shading:SURFACE 21 - WINDOW 3 SHADING SURFACE
  0
3DFACE
  8
Building Shading
 62
195
 10
       -2.82875
 20
       -0.00000
 30
        4.57200
 11
       -2.82875
 21
       -0.00000
 31
        3.37072
 12
       -3.72993
 22
       -0.00000
 32
        3.37072
 13
       -3.72993
 23
       -0.00000
 33
        4.57200
999
Building Shading:SURFACE 21 - WINDOW 4 SHADING SURFACE
  0
3DFACE
  8
Building Shading
 62
195
 10
       -3.79089
 20
       -0.00000
 30
        4.57200
 11
       -3.79089
 21
       -0.00000
 31
        3.37072
 12
       -4.69207
 22
       -0.00000
 32
        3.37072
 13
       -4.69207
 23
       -0.00000
 33
        4.57200
999
Building Shading:SURFACE 8 - WINDOW 1 SHADING SURFACE
  0
3DFACE
  8
Building Shading
 62
195
 10
        0.00000
 20
       -8.26485
 30
        2.13360
 11
        0.00000
 21
       -8.26485
 31
        0.99971
 12
        0.00000
 22
       -7.41422
 32
        0.99971
 13
        0.00000
 23
       -7.41422
 33
        2.13360
999
Building Shading:SURFACE 8 - WINDOW 2 SHADING SURFACE
  0
3DFACE
  8
Building Shading
 62
195
 10
        0.00000
 20
       -7.35326
 30
        2.13360
 11
        0.00000
 21
       -7.35326
 31
        0.99971
 12
        0.00000
 22
       -6.50263
 32
        0.99971
 13
        0.00000
 23
       -6.50263
 33
        2.13360
999
Building Shading:SURFACE 8 - WINDOW 3 SHADING SURFACE
  0
3DFACE
  8
Building Shading
 62
195
 10
        0.00000
 20
       -6.41892
 30
        2.13360
 11
        0.00000
 21
       -6.41892
 31
        0.99971
 12
        0.00000
 22
       -5.56829
 32
        0.99971
 13
        0.00000
 23
       -5.56829
 33
        2.13360
999
Building Shading:SURFACE 8 - WINDOW 4 SHADING SURFACE
  0
3DFACE
  8
Building Shading
 62
195
 10
        0.00000
 20
       -5.50733
 30
        2.13360
 11
        0.00000
 21
       -5.50733
 31
        0.99971
 12
        0.00000
 22
       -4.65669
 32
        0.99971
 13
        0.00000
 23
       -4.65669
 33
        2.13360
999
Building Shading:SURFACE 8 - WINDOW 5 SHADING SURFACE
  0
3DFACE
  8
Building Shading
 62
195
 10
        0.00000
 20
       -4.57298
 30
        2.13360
 11
        0.00000
 21
       -4.57298
 31
        0.99971
 12
        0.00000
 22
       -3.72235
 32
        0.99971
 13
        0.00000
 23
       -3.72235
 33
        2.13360
999
Building Shading:SURFACE 8 - WINDOW 6 SHADING SURFACE
  0
3DFACE
  8
Building Shading
 62
195
 10
        0.00000
 20
       -3.66139
 30
        2.13360
 11
        0.00000
 21
       -3.66139
 31
        0.99971
 12
        0.00000
 22
       -2.81076
 32
        0.99971
 13
        0.00000
 23
       -2.81076
 33
        2.13360
999
Building Shading:SURFACE 8 - WINDOW 7 SHADING SURFACE
  0
3DFACE
  8
Building Shading
 62
195
 10
        0.00000
 20
       -2.27125
 30
        2.13360
 11
        0.00000
 21
       -2.27125
 31
        0.99971
 12
        0.00000
 22
       -1.42062
 32
        0.99971
 13
        0.00000
 23
       -1.42062
 33
        2.13360
999
Building Shading:SURFACE 9 - WINDOW 1 SHADING SURFACE
  0
3DFACE
  8
Building Shading
 62
195
 10
      -15.18095
 20
       -9.22968
 30
        2.13360
 11
      -15.18095
 21
       -9.22968
 31
        0.92004
 12
      -14.27055
 22
       -9.22968
 32
        0.92004
 13
      -14.27055
 23
       -9.22968
 33
        2.13360
999
Building Shading:SURFACE 9 - WINDOW 10 SHADING SURFACE
  0
3DFACE
  8
Building Shading
 62
195
 10
       -4.71621
 20
       -9.22968
 30
        2.13360
 11
       -4.71621
 21
       -9.22968
 31
        0.92004
 12
       -3.80581
 22
       -9.22968
 32
        0.92004
 13
       -3.80581
 23
       -9.22968
 33
        2.13360
999
Building Shading:SURFACE 9 - WINDOW 11 SHADING SURFACE
  0
3DFACE
  8
Building Shading
 62
195
 10
       -2.82854
 20
       -9.22968
 30
        2.13360
 11
       -2.82854
 21
       -9.22968
 31
        0.92004
 12
       -1.91815
 22
       -9.22968
 32
        0.92004
 13
       -1.91815
 23
       -9.22968
 33
        2.13360
999
Building Shading:SURFACE 9 - WINDOW 2 SHADING SURFACE
  0
3DFACE
  8
Building Shading
 62
195
 10
      -14.20959
 20
       -9.22968
 30
        2.13360
 11
      -14.20959
 21
       -9.22968
 31
        0.92004
 12
      -13.29919
 22
       -9.22968
 32
        0.92004
 13
      -13.29919
 23
       -9.22968
 33
        2.13360
999
Building Shading:SURFACE 9 - WINDOW 3 SHADING SURFACE
  0
3DFACE
  8
Building Shading
 62
195
 10
      -12.80760
 20
       -9.22968
 30
        2.13360
 11
      -12.80760
 21
       -9.22968
 31
        0.92004
 12
      -11.89721
 22
       -9.22968
 32
        0.92004
 13
      -11.89721
 23
       -9.22968
 33
        2.13360
999
Building Shading:SURFACE 9 - WINDOW 4 SHADING SURFACE
  0
3DFACE
  8
Building Shading
 62
195
 10
      -11.83625
 20
       -9.22968
 30
        2.13360
 11
      -11.83625
 21
       -9.22968
 31
        0.92004
 12
      -10.92585
 22
       -9.22968
 32
        0.92004
 13
      -10.92585
 23
       -9.22968
 33
        2.13360
999
Building Shading:SURFACE 9 - WINDOW 5 SHADING SURFACE
  0
3DFACE
  8
Building Shading
 62
195
 10
      -10.43426
 20
       -9.22968
 30
        2.13360
 11
      -10.43426
 21
       -9.22968
 31
        0.92004
 12
       -9.52386
 22
       -9.22968
 32
        0.92004
 13
       -9.52386
 23
       -9.22968
 33
        2.13360
999
Building Shading:SURFACE 9 - WINDOW 6 SHADING SURFACE
  0
3DFACE
  8
Building Shading
 62
195
 10
       -9.46290
 20
       -9.22968
 30
        2.13360
 11
       -9.46290
 21
       -9.22968
 31
        0.92004
 12
       -8.55250
 22
       -9.22968
 32
        0.92004
 13
       -8.55250
 23
       -9.22968
 33
        2.13360
999
Building Shading:SURFACE 9 - WINDOW 7 SHADING SURFACE
  0
3DFACE
  8
Building Shading
 62
195
 10
       -8.06091
 20
       -9.22968
 30
        2.13360
 11
       -8.06091
 21
       -9.22968
 31
        0.92004
 12
       -7.15052
 22
       -9.22968
 32
        0.92004
 13
       -7.15052
 23
       -9.22968
 33
        2.13360
999
Building Shading:SURFACE 9 - WINDOW 8 SHADING SURFACE
  0
3DFACE
  8
Building Shading
 62
195
 10
       -7.08956
 20
       -9.22968
 30
        2.13360
 11
       -7.08956
 21
       -9.22968
 31
        0.92004
 12
       -6.17916
 22
       -9.22968
 32
        0.92004
 13
       -6.17916
 23
       -9.22968
 33
        2.13360
999
Building Shading:SURFACE 9 - WINDOW 9 SHADING SURFACE
  0
3DFACE
  8
Building Shading
 62
195
 10
       -5.68757
 20
       -9.22968
 30
        2.13360
 11
       -5.68757
 21
       -9.22968
 31
        0.92004
 12
       -4.77717
 22
       -9.22968
 32
        0.92004
 13
       -4.77717
 23
       -9.22968
 33
        2.13360
999
GARAGE ZONE:SURFACE 2
  0
3DFACE
  8
GARAGE_ZONE
 62
 43
 10
       -5.64062
 20
       -3.65760
 30
        2.43840
 11
       -5.64062
 21
       -3.65760
 31
        0.00000
 12
       -5.64062
 22
       -0.00000
 32
        0.00000
 13
       -5.64062
 23
       -0.00000
 33
        2.43840
999
GARAGE ZONE:SURFACE 28
  0
3DFACE
  8
GARAGE_ZONE
 62
 43
 10
       -5.64062
 20
       -0.00000
 30
        2.43840
 11
       -5.64062
 21
       -0.00000
 31
        0.00000
 12
       -5.64062
 22
        3.65760
 32
        0.00000
 13
       -5.64062
 23
        3.65760
 33
        2.43840
999
GARAGE ZONE:SURFACE 3
  0
3DFACE
  8
GARAGE_ZONE
 62
 43
 10
      -16.61342
 20
       -3.65760
 30
        2.43840
 11
      -16.61342
 21
       -3.65760
 31
        0.00000
 12
       -5.64062
 22
       -3.65760
 32
        0.00000
 13
       -5.64062
 23
       -3.65760
 33
        2.43840
999
GARAGE ZONE:SURFACE 4
  0
3DFACE
  8
GARAGE_ZONE
 62
 43
 10
      -16.61342
 20
        3.65760
 30
        2.43840
 11
      -16.61342
 21
        3.65760
 31
        0.00000
 12
      -16.61342
 22
       -3.65760
 32
        0.00000
 13
      -16.61342
 23
       -3.65760
 33
        2.43840
999
GARAGE ZONE:SURFACE 5
  0
3DFACE
  8
GARAGE_ZONE
 62
 43
 10
       -5.64062
 20
        3.65760
 30
        2.43840
 11
       -5.64062
 21
        3.65760
 31
        0.00000
 12
      -16.61342
 22
        3.65760
 32
        0.00000
 13
      -16.61342
 23
        3.65760
 33
        2.43840
999
GARAGE ZONE:SURFACE 1
  0
3DFACE
  8
GARAGE_ZONE
 62
  8
 10
       -5.64062
 20
        3.65760
 30
        0.00000
 11
       -5.64062
 21
       -3.65760
 31
        0.00000
 12
      -16.61342
 22
       -3.65760
 32
        0.00000
 13
      -16.61342
 23
        3.65760
 33
        0.00000
999
GARAGE ZONE:SURFACE 6
  0
3DFACE
  8
GARAGE_ZONE
 62
 15
 10
      -16.61342
 20
        3.65760
 30
        2.43840
 11
      -16.61342
 21
       -3.65760
 31
        2.43840
 12
       -5.64062
 22
       -3.65760
 32
        2.43840
 13
       -5.64062
 23
        3.65760
 33
        2.43840
999
LIVING ZONE:SURFACE 10
  0
3DFACE
  8
LIVING_ZONE
 62
 43
 10
      -16.61342
 20
       -3.65760
 30
        2.43840
 11
      -16.61342
 21
       -3.65760
 31
        0.00000
 12
      -16.61342
 22
       -9.22968
 32
        0.00000
 13
      -16.61342
 23
       -9.22968
 33
        2.43840
999
LIVING ZONE:SURFACE 10 - WINDOW 1
  0
3DFACE
  8
LIVING_ZONE
 62
143
 10
      -16.61342
 20
       -4.61015
 30
        2.13360
 11
      -16.61342
 21
       -4.61015
 31
        0.96811
 12
      -16.61342
 22
       -5.48448
 32
        0.96811
 13
      -16.61342
 23
       -5.48448
 33
        2.13360
999
LIVING ZONE:SURFACE 10 - WINDOW 2
  0
3DFACE
  8
LIVING_ZONE
 62
143
 10
      -16.61342
 20
       -5.54544
 30
        2.13360
 11
      -16.61342
 21
       -5.54544
 31
        0.96811
 12
      -16.61342
 22
       -6.41977
 32
        0.96811
 13
      -16.61342
 23
       -6.41977
 33
        2.13360
999
LIVING ZONE:SURFACE 10 - WINDOW 3
  0
3DFACE
  8
LIVING_ZONE
 62
143
 10
      -16.61342
 20
       -6.46751
 30
        2.13360
 11
      -16.61342
 21
       -6.46751
 31
        0.96811
 12
      -16.61342
 22
       -7.34184
 32
        0.96811
 13
      -16.61342
 23
       -7.34184
 33
        2.13360
999
LIVING ZONE:SURFACE 10 - WINDOW 4
  0
3DFACE
  8
LIVING_ZONE
 62
143
 10
      -16.61342
 20
       -7.40280
 30
        2.13360
 11
      -16.61342
 21
       -7.40280
 31
        0.96811
 12
      -16.61342
 22
       -8.27713
 32
        0.96811
 13
      -16.61342
 23
       -8.27713
 33
        2.13360
999
LIVING ZONE:SURFACE 11
  0
3DFACE
  8
LIVING_ZONE
 62
 43
 10
       -5.64062
 20
       -3.65760
 30
        2.43840
 11
       -5.64062
 21
       -3.65760
 31
        0.00000
 12
      -16.61342
 22
       -3.65760
 32
        0.00000
 13
      -16.61342
 23
       -3.65760
 33
        2.43840
999
LIVING ZONE:SURFACE 12
  0
3DFACE
  8
LIVING_ZONE
 62
 43
 10
       -5.64062
 20
       -0.00000
 30
        2.43840
 11
       -5.64062
 21
       -0.00000
 31
        0.00000
 12
       -5.64062
 22
       -3.65760
 32
        0.00000
 13
       -5.64062
 23
       -3.65760
 33
        2.43840
999
LIVING ZONE:SURFACE 13
  0
3DFACE
  8
LIVING_ZONE
 62
 43
 10
       -1.04866
 20
       -0.00000
 30
        0.00000
 11
       -5.64062
 21
       -0.00000
 31
        0.00000
 12
       -5.64062
 22
       -0.00000
 32
        2.43840
 13
       -1.04866
 23
       -0.00000
 33
        2.43840
999
LIVING ZONE:SURFACE 13 - WINDOW 1
  0
3DFACE
  8
LIVING_ZONE
 62
143
 10
       -1.73572
 20
       -0.00000
 30
        2.13360
 11
       -1.73572
 21
       -0.00000
 31
        1.04973
 12
       -2.54883
 22
       -0.00000
 32
        1.04973
 13
       -2.54883
 23
       -0.00000
 33
        2.13360
999
LIVING ZONE:SURFACE 13 - WINDOW 2
  0
3DFACE
  8
LIVING_ZONE
 62
143
 10
       -2.60979
 20
       -0.00000
 30
        2.13360
 11
       -2.60979
 21
       -0.00000
 31
        1.04973
 12
       -3.42290
 22
       -0.00000
 32
        1.04973
 13
       -3.42290
 23
       -0.00000
 33
        2.13360
999
LIVING ZONE:SURFACE 13 - WINDOW 3
  0
3DFACE
  8
LIVING_ZONE
 62
143
 10
       -3.26638
 20
       -0.00000
 30
        2.13360
 11
       -3.26638
 21
       -0.00000
 31
        1.04973
 12
       -4.07948
 22
       -0.00000
 32
        1.04973
 13
       -4.07948
 23
       -0.00000
 33
        2.13360
999
LIVING ZONE:SURFACE 13 - WINDOW 4
  0
3DFACE
  8
LIVING_ZONE
 62
143
 10
       -4.14044
 20
       -0.00000
 30
        2.13360
 11
       -4.14044
 21
       -0.00000
 31
        1.04973
 12
       -4.95355
 22
       -0.00000
 32
        1.04973
 13
       -4.95355
 23
       -0.00000
 33
        2.13360
999
LIVING ZONE:SURFACE 16
  0
3DFACE
  8
LIVING_ZONE
 62
 43
 10
        0.00000
 20
       -9.22968
 30
        4.87680
 11
        0.00000
 21
       -9.22968
 31
        2.43840
 12
        0.00000
 22
        0.00000
 32
        2.43840
 13
        0.00000
 23
        0.00000
 33
        4.87680
999
LIVING ZONE:SURFACE 16 - WINDOW 1
  0
3DFACE
  8
LIVING_ZONE
 62
143
 10
        0.00000
 20
       -8.26485
 30
        4.57200
 11
        0.00000
 21
       -8.26485
 31
        3.43811
 12
        0.00000
 22
       -7.41422
 32
        3.43811
 13
        0.00000
 23
       -7.41422
 33
        4.57200
999
LIVING ZONE:SURFACE 16 - WINDOW 2
  0
3DFACE
  8
LIVING_ZONE
 62
143
 10
        0.00000
 20
       -7.35326
 30
        4.57200
 11
        0.00000
 21
       -7.35326
 31
        3.43811
 12
        0.00000
 22
       -6.50263
 32
        3.43811
 13
        0.00000
 23
       -6.50263
 33
        4.57200
999
LIVING ZONE:SURFACE 16 - WINDOW 3
  0
3DFACE
  8
LIVING_ZONE
 62
143
 10
        0.00000
 20
       -6.41892
 30
        4.57200
 11
        0.00000
 21
       -6.41892
 31
        3.43811
 12
        0.00000
 22
       -5.56829
 32
        3.43811
 13
        0.00000
 23
       -5.56829
 33
        4.57200
999
LIVING ZONE:SURFACE 16 - WINDOW 4
  0
3DFACE
  8
LIVING_ZONE
 62
143
 10
        0.00000
 20
       -5.50733
 30
        4.57200
 11
        0.00000
 21
       -5.50733
 31
        3.43811
 12
        0.00000
 22
       -4.65669
 32
        3.43811
 13
        0.00000
 23
       -4.65669
 33
        4.57200
999
LIVING ZONE:SURFACE 16 - WINDOW 5
  0
3DFACE
  8
LIVING_ZONE
 62
143
 10
        0.00000
 20
       -4.57298
 30
        4.57200
 11
        0.00000
 21
       -4.57298
 31
        3.43811
 12
        0.00000
 22
       -3.72235
 32
        3.43811
 13
        0.00000
 23
       -3.72235
 33
        4.57200
999
LIVING ZONE:SURFACE 16 - WINDOW 6
  0
3DFACE
  8
LIVING_ZONE
 62
143
 10
        0.00000
 20
       -3.66139
 30
        4.57200
 11
        0.00000
 21
       -3.66139
 31
        3.43811
 12
        0.00000
 22
       -2.81076
 32
        3.43811
 13
        0.00000
 23
       -2.81076
 33
        4.57200
999
LIVING ZONE:SURFACE 16 - WINDOW 7
  0
3DFACE
  8
LIVING_ZONE
 62
143
 10
        0.00000
 20
       -2.27125
 30
        4.57200
 11
        0.00000
 21
       -2.27125
 31
        3.43811
 12
        0.00000
 22
       -1.42062
 32
        3.43811
 13
        0.00000
 23
       -1.42062
 33
        4.57200
999
LIVING ZONE:SURFACE 17
  0
3DFACE
  8
LIVING_ZONE
 62
 43
 10
      -16.61342
 20
       -9.22968
 30
        4.87680
 11
      -16.61342
 21
       -9.22968
 31
        2.43840
 12
        0.00000
 22
       -9.22968
 32
        2.43840
 13
        0.00000
 23
       -9.22968
 33
        4.87680
999
LIVING ZONE:SURFACE 17 - WINDOW 1
  0
3DFACE
  8
LIVING_ZONE
 62
143
 10
      -15.18095
 20
       -9.22968
 30
        4.57200
 11
      -15.18095
 21
       -9.22968
 31
        3.35844
 12
      -14.27055
 22
       -9.22968
 32
        3.35844
 13
      -14.27055
 23
       -9.22968
 33
        4.57200
999
LIVING ZONE:SURFACE 17 - WINDOW 10
  0
3DFACE
  8
LIVING_ZONE
 62
143
 10
       -4.71621
 20
       -9.22968
 30
        4.57200
 11
       -4.71621
 21
       -9.22968
 31
        3.35844
 12
       -3.80581
 22
       -9.22968
 32
        3.35844
 13
       -3.80581
 23
       -9.22968
 33
        4.57200
999
LIVING ZONE:SURFACE 17 - WINDOW 11
  0
3DFACE
  8
LIVING_ZONE
 62
143
 10
       -2.82854
 20
       -9.22968
 30
        4.57200
 11
       -2.82854
 21
       -9.22968
 31
        3.35844
 12
       -1.91815
 22
       -9.22968
 32
        3.35844
 13
       -1.91815
 23
       -9.22968
 33
        4.57200
999
LIVING ZONE:SURFACE 17 - WINDOW 2
  0
3DFACE
  8
LIVING_ZONE
 62
143
 10
      -14.20959
 20
       -9.22968
 30
        4.57200
 11
      -14.20959
 21
       -9.22968
 31
        3.35844
 12
      -13.29919
 22
       -9.22968
 32
        3.35844
 13
      -13.29919
 23
       -9.22968
 33
        4.57200
999
LIVING ZONE:SURFACE 17 - WINDOW 3
  0
3DFACE
  8
LIVING_ZONE
 62
143
 10
      -12.80760
 20
       -9.22968
 30
        4.57200
 11
      -12.80760
 21
       -9.22968
 31
        3.35844
 12
      -11.89721
 22
       -9.22968
 32
        3.35844
 13
      -11.89721
 23
       -9.22968
 33
        4.57200
999
LIVING ZONE:SURFACE 17 - WINDOW 4
  0
3DFACE
  8
LIVING_ZONE
 62
143
 10
      -11.83625
 20
       -9.22968
 30
        4.57200
 11
      -11.83625
 21
       -9.22968
 31
        3.35844
 12
      -10.92585
 22
       -9.22968
 32
        3.35844
 13
      -10.92585
 23
       -9.22968
 33
        4.57200
999
LIVING ZONE:SURFACE 17 - WINDOW 5
  0
3DFACE
  8
LIVING_ZONE
 62
143
 10
      -10.43426
 20
       -9.22968
 30
        4.57200
 11
      -10.43426
 21
       -9.22968
 31
        3.35844
 12
       -9.52386
 22
       -9.22968
 32
        3.35844
 13
       -9.52386
 23
       -9.22968
 33
        4.57200
999
LIVING ZONE:SURFACE 17 - WINDOW 6
  0
3DFACE
  8
LIVING_ZONE
 62
143
 10
       -9.46290
 20
       -9.22968
 30
        4.57200
 11
       -9.46290
 21
       -9.22968
 31
        3.35844
 12
       -8.55250
 22
       -9.22968
 32
        3.35844
 13
       -8.55250
 23
       -9.22968
 33
        4.57200
999
LIVING ZONE:SURFACE 17 - WINDOW 7
  0
3DFACE
  8
LIVING_ZONE
 62
143
 10
       -8.06091
 20
       -9.22968
 30
        4.57200
 11
       -8.06091
 21
       -9.22968
 31
        3.35844
 12
       -7.15052
 22
       -9.22968
 32
        3.35844
 13
       -7.15052
 23
       -9.22968
 33
        4.57200
999
LIVING ZONE:SURFACE 17 - WINDOW 8
  0
3DFACE
  8
LIVING_ZONE
 62
143
 10
       -7.08956
 20
       -9.22968
 30
        4.57200
 11
       -7.08956
 21
       -9.22968
 31
        3.35844
 12
       -6.17916
 22
       -9.22968
 32
        3.35844
 13
       -6.17916
 23
       -9.22968
 33
        4.57200
999
LIVING ZONE:SURFACE 17 - WINDOW 9
  0
3DFACE
  8
LIVING_ZONE
 62
143
 10
       -5.68757
 20
       -9.22968
 30
        4.57200
 11
       -5.68757
 21
       -9.22968
 31
        3.35844
 12
       -4.77717
 22
       -9.22968
 32
        3.35844
 13
       -4.77717
 23
       -9.22968
 33
        4.57200
999
LIVING ZONE:SURFACE 18
  0
3DFACE
  8
LIVING_ZONE
 62
 43
 10
      -16.61342
 20
        3.65760
 30
        4.87680
 11
      -16.61342
 21
        3.65760
 31
        2.43840
 12
      -16.61342
 22
       -9.22968
 32
        2.43840
 13
      -16.61342
 23
       -9.22968
 33
        4.87680
999
LIVING ZONE:SURFACE 18 - WINDOW 1
  0
3DFACE
  8
LIVING_ZONE
 62
143
 10
      -16.61342
 20
        2.42666
 30
        4.57200
 11
      -16.61342
 21
        2.42666
 31
        3.39035
 12
      -16.61342
 22
        1.54020
 32
        3.39035
 13
      -16.61342
 23
        1.54020
 33
        4.57200
999
LIVING ZONE:SURFACE 18 - WINDOW 2
  0
3DFACE
  8
LIVING_ZONE
 62
143
 10
      -16.61342
 20
        1.47924
 30
        4.57200
 11
      -16.61342
 21
        1.47924
 31
        3.39035
 12
      -16.61342
 22
        0.59278
 32
        3.39035
 13
      -16.61342
 23
        0.59278
 33
        4.57200
999
LIVING ZONE:SURFACE 18 - WINDOW 3
  0
3DFACE
  8
LIVING_ZONE
 62
143
 10
      -16.61342
 20
        0.27878
 30
        4.57200
 11
      -16.61342
 21
        0.27878
 31
        3.39035
 12
      -16.61342
 22
       -0.60768
 32
        3.39035
 13
      -16.61342
 23
       -0.60768
 33
        4.57200
999
LIVING ZONE:SURFACE 18 - WINDOW 4
  0
3DFACE
  8
LIVING_ZONE
 62
143
 10
      -16.61342
 20
       -0.66864
 30
        4.57200
 11
      -16.61342
 21
       -0.66864
 31
        3.39035
 12
      -16.61342
 22
       -1.55510
 32
        3.39035
 13
      -16.61342
 23
       -1.55510
 33
        4.57200
999
LIVING ZONE:SURFACE 18 - WINDOW 5
  0
3DFACE
  8
LIVING_ZONE
 62
143
 10
      -16.61342
 20
       -1.86910
 30
        4.57200
 11
      -16.61342
 21
       -1.86910
 31
        3.39035
 12
      -16.61342
 22
       -2.75556
 32
        3.39035
 13
      -16.61342
 23
       -2.75556
 33
        4.57200
999
LIVING ZONE:SURFACE 18 - WINDOW 6
  0
3DFACE
  8
LIVING_ZONE
 62
143
 10
      -16.61342
 20
       -2.81652
 30
        4.57200
 11
      -16.61342
 21
       -2.81652
 31
        3.39035
 12
      -16.61342
 22
       -3.70297
 32
        3.39035
 13
      -16.61342
 23
       -3.70297
 33
        4.57200
999
LIVING ZONE:SURFACE 18 - WINDOW 7
  0
3DFACE
  8
LIVING_ZONE
 62
143
 10
      -16.61342
 20
       -4.01698
 30
        4.57200
 11
      -16.61342
 21
       -4.01698
 31
        3.39035
 12
      -16.61342
 22
       -4.90344
 32
        3.39035
 13
      -16.61342
 23
       -4.90344
 33
        4.57200
999
LIVING ZONE:SURFACE 18 - WINDOW 8
  0
3DFACE
  8
LIVING_ZONE
 62
143
 10
      -16.61342
 20
       -4.96440
 30
        4.57200
 11
      -16.61342
 21
       -4.96440
 31
        3.39035
 12
      -16.61342
 22
       -5.85085
 32
        3.39035
 13
      -16.61342
 23
       -5.85085
 33
        4.57200
999
LIVING ZONE:SURFACE 18 - WINDOW 9
  0
3DFACE
  8
LIVING_ZONE
 62
143
 10
      -16.61342
 20
       -6.63857
 30
        4.57200
 11
      -16.61342
 21
       -6.63857
 31
        3.39035
 12
      -16.61342
 22
       -7.52503
 32
        3.39035
 13
      -16.61342
 23
       -7.52503
 33
        4.57200
999
LIVING ZONE:SURFACE 19
  0
3DFACE
  8
LIVING_ZONE
 62
 43
 10
       -5.64062
 20
        3.65760
 30
        4.87680
 11
       -5.64062
 21
        3.65760
 31
        2.43840
 12
      -16.61342
 22
        3.65760
 32
        2.43840
 13
      -16.61342
 23
        3.65760
 33
        4.87680
999
LIVING ZONE:SURFACE 19 - WINDOW 1
  0
3DFACE
  8
LIVING_ZONE
 62
143
 10
       -6.91592
 20
        3.65760
 30
        4.57200
 11
       -6.91592
 21
        3.65760
 31
        3.38726
 12
       -7.80470
 22
        3.65760
 32
        3.38726
 13
       -7.80470
 23
        3.65760
 33
        4.57200
999
LIVING ZONE:SURFACE 19 - WINDOW 2
  0
3DFACE
  8
LIVING_ZONE
 62
143
 10
       -7.86566
 20
        3.65760
 30
        4.57200
 11
       -7.86566
 21
        3.65760
 31
        3.38726
 12
       -8.75443
 22
        3.65760
 32
        3.38726
 13
       -8.75443
 23
        3.65760
 33
        4.57200
999
LIVING ZONE:SURFACE 19 - WINDOW 3
  0
3DFACE
  8
LIVING_ZONE
 62
143
 10
       -9.11048
 20
        3.65760
 30
        4.57200
 11
       -9.11048
 21
        3.65760
 31
        3.38726
 12
       -9.99926
 22
        3.65760
 32
        3.38726
 13
       -9.99926
 23
        3.65760
 33
        4.57200
999
LIVING ZONE:SURFACE 19 - WINDOW 4
  0
3DFACE
  8
LIVING_ZONE
 62
143
 10
      -10.06022
 20
        3.65760
 30
        4.57200
 11
      -10.06022
 21
        3.65760
 31
        3.38726
 12
      -10.94899
 22
        3.65760
 32
        3.38726
 13
      -10.94899
 23
        3.65760
 33
        4.57200
999
LIVING ZONE:SURFACE 19 - WINDOW 5
  0
3DFACE
  8
LIVING_ZONE
 62
143
 10
      -11.30504
 20
        3.65760
 30
        4.57200
 11
      -11.30504
 21
        3.65760
 31
        3.38726
 12
      -12.19382
 22
        3.65760
 32
        3.38726
 13
      -12.19382
 23
        3.65760
 33
        4.57200
999
LIVING ZONE:SURFACE 19 - WINDOW 6
  0
3DFACE
  8
LIVING_ZONE
 62
143
 10
      -12.25478
 20
        3.65760
 30
        4.57200
 11
      -12.25478
 21
        3.65760
 31
        3.38726
 12
      -13.14355
 22
        3.65760
 32
        3.38726
 13
      -13.14355
 23
        3.65760
 33
        4.57200
999
LIVING ZONE:SURFACE 19 - WINDOW 7
  0
3DFACE
  8
LIVING_ZONE
 62
143
 10
      -13.49960
 20
        3.65760
 30
        4.57200
 11
      -13.49960
 21
        3.65760
 31
        3.38726
 12
      -14.38838
 22
        3.65760
 32
        3.38726
 13
      -14.38838
 23
        3.65760
 33
        4.57200
999
LIVING ZONE:SURFACE 19 - WINDOW 8
  0
3DFACE
  8
LIVING_ZONE
 62
143
 10
      -14.44934
 20
        3.65760
 30
        4.57200
 11
      -14.44934
 21
        3.65760
 31
        3.38726
 12
      -15.33811
 22
        3.65760
 32
        3.38726
 13
      -15.33811
 23
        3.65760
 33
        4.57200
999
LIVING ZONE:SURFACE 20
  0
3DFACE
  8
LIVING_ZONE
 62
 43
 10
       -5.64062
 20
       -0.00000
 30
        4.87680
 11
       -5.64062
 21
       -0.00000
 31
        2.43840
 12
       -5.64062
 22
        3.65760
 32
        2.43840
 13
       -5.64062
 23
        3.65760
 33
        4.87680
999
LIVING ZONE:SURFACE 20 - WINDOW 1
  0
3DFACE
  8
LIVING_ZONE
 62
143
 10
       -5.64062
 20
        0.37075
 30
        4.57200
 11
       -5.64062
 21
        0.37075
 31
        3.48165
 12
       -5.64062
 22
        1.18872
 32
        3.48165
 13
       -5.64062
 23
        1.18872
 33
        4.57200
999
LIVING ZONE:SURFACE 20 - WINDOW 2
  0
3DFACE
  8
LIVING_ZONE
 62
143
 10
       -5.64062
 20
        1.24968
 30
        4.57200
 11
       -5.64062
 21
        1.24968
 31
        3.48165
 12
       -5.64062
 22
        2.06765
 32
        3.48165
 13
       -5.64062
 23
        2.06765
 33
        4.57200
999
LIVING ZONE:SURFACE 20 - WINDOW 3
  0
3DFACE
  8
LIVING_ZONE
 62
143
 10
       -5.64062
 20
        2.02942
 30
        4.57200
 11
       -5.64062
 21
        2.02942
 31
        3.48165
 12
       -5.64062
 22
        2.84738
 32
        3.48165
 13
       -5.64062
 23
        2.84738
 33
        4.57200
999
LIVING ZONE:SURFACE 21
  0
3DFACE
  8
LIVING_ZONE
 62
 43
 10
        0.00000
 20
        0.00000
 30
        4.87680
 11
        0.00000
 21
        0.00000
 31
        2.43840
 12
       -5.64062
 22
       -0.00000
 32
        2.43840
 13
       -5.64062
 23
       -0.00000
 33
        4.87680
999
LIVING ZONE:SURFACE 21 - WINDOW 1
  0
3DFACE
  8
LIVING_ZONE
 62
143
 10
       -0.94854
 20
       -0.00000
 30
        4.57200
 11
       -0.94854
 21
       -0.00000
 31
        3.37072
 12
       -1.84973
 22
       -0.00000
 32
        3.37072
 13
       -1.84973
 23
       -0.00000
 33
        4.57200
999
LIVING ZONE:SURFACE 21 - WINDOW 2
  0
3DFACE
  8
LIVING_ZONE
 62
143
 10
       -1.91069
 20
       -0.00000
 30
        4.57200
 11
       -1.91069
 21
       -0.00000
 31
        3.37072
 12
       -2.81187
 22
       -0.00000
 32
        3.37072
 13
       -2.81187
 23
       -0.00000
 33
        4.57200
999
LIVING ZONE:SURFACE 21 - WINDOW 3
  0
3DFACE
  8
LIVING_ZONE
 62
143
 10
       -2.82875
 20
       -0.00000
 30
        4.57200
 11
       -2.82875
 21
       -0.00000
 31
        3.37072
 12
       -3.72993
 22
       -0.00000
 32
        3.37072
 13
       -3.72993
 23
       -0.00000
 33
        4.57200
999
LIVING ZONE:SURFACE 21 - WINDOW 4
  0
3DFACE
  8
LIVING_ZONE
 62
143
 10
       -3.79089
 20
       -0.00000
 30
        4.57200
 11
       -3.79089
 21
       -0.00000
 31
        3.37072
 12
       -4.69207
 22
       -0.00000
 32
        3.37072
 13
       -4.69207
 23
       -0.00000
 33
        4.57200
999
LIVING ZONE:SURFACE 36
  0
3DFACE
  8
LIVING_ZONE
 62
 43
 10
       -0.12700
 20
       -0.00000
 30
        2.43840
 11
       -0.12700
 21
       -0.00000
 31
        0.00000
 12
       -1.04866
 22
       -0.00000
 32
        0.00000
 13
       -1.04866
 23
       -0.00000
 33
        2.43840
999
LIVING ZONE:UNIT 1 - SURFACE 13 - DOOR
  0
3DFACE
  8
LIVING_ZONE
 62
 45
 10
       -0.15240
 20
       -0.00000
 30
        2.13360
 11
       -0.15240
 21
       -0.00000
 31
        0.00000
 12
       -1.02326
 22
       -0.00000
 32
        0.00000
 13
       -1.02326
 23
       -0.00000
 33
        2.13360
999
LIVING ZONE:SURFACE 37
  0
3DFACE
  8
LIVING_ZONE
 62
 43
 10
       -0.12700
 20
       -0.00000
 30
        0.00000
 11
       -0.12700
 21
       -0.00000
 31
        2.43840
 12
        0.00000
 22
        0.00000
 32
        2.43840
 13
        0.00000
 23
        0.00000
 33
        0.00000
999
LIVING ZONE:SURFACE 8
  0
3DFACE
  8
LIVING_ZONE
 62
 43
 10
        0.00000
 20
       -9.22968
 30
        2.43840
 11
        0.00000
 21
       -9.22968
 31
        0.00000
 12
        0.00000
 22
        0.00000
 32
        0.00000
 13
        0.00000
 23
        0.00000
 33
        2.43840
999
LIVING ZONE:SURFACE 8 - WINDOW 1
  0
3DFACE
  8
LIVING_ZONE
 62
143
 10
        0.00000
 20
       -8.26485
 30
        2.13360
 11
        0.00000
 21
       -8.26485
 31
        0.99971
 12
        0.00000
 22
       -7.41422
 32
        0.99971
 13
        0.00000
 23
       -7.41422
 33
        2.13360
999
LIVING ZONE:SURFACE 8 - WINDOW 2
  0
3DFACE
  8
LIVING_ZONE
 62
143
 10
        0.00000
 20
       -7.35326
 30
        2.13360
 11
        0.00000
 21
       -7.35326
 31
        0.99971
 12
        0.00000
 22
       -6.50263
 32
        0.99971
 13
        0.00000
 23
       -6.50263
 33
        2.13360
999
LIVING ZONE:SURFACE 8 - WINDOW 3
  0
3DFACE
  8
LIVING_ZONE
 62
143
 10
        0.00000
 20
       -6.41892
 30
        2.13360
 11
        0.00000
 21
       -6.41892
 31
        0.99971
 12
        0.00000
 22
       -5.56829
 32
        0.99971
 13
        0.00000
 23
       -5.56829
 33
        2.13360
999
LIVING ZONE:SURFACE 8 - WINDOW 4
  0
3DFACE
  8
LIVING_ZONE
 62
143
 10
        0.00000
 20
       -5.50733
 30
        2.13360
 11
        0.00000
 21
       -5.50733
 31
        0.99971
 12
        0.00000
 22
       -4.65669
 32
        0.99971
 13
        0.00000
 23
       -4.65669
 33
        2.13360
999
LIVING ZONE:SURFACE 8 - WINDOW 5
  0
3DFACE
  8
LIVING_ZONE
 62
143
 10
        0.00000
 20
       -4.57298
 30
        2.13360
 11
        0.00000
 21
       -4.57298
 31
        0.99971
 12
        0.00000
 22
       -3.72235
 32
        0.99971
 13
        0.00000
 23
       -3.72235
 33
        2.13360
999
LIVING ZONE:SURFACE 8 - WINDOW 6
  0
3DFACE
  8
LIVING_ZONE
 62
143
 10
        0.00000
 20
       -3.66139
 30
        2.13360
 11
        0.00000
 21
       -3.66139
 31
        0.99971
 12
        0.00000
 22
       -2.81076
 32
        0.99971
 13
        0.00000
 23
       -2.81076
 33
        2.13360
999
LIVING ZONE:SURFACE 8 - WINDOW 7
  0
3DFACE
  8
LIVING_ZONE
 62
143
 10
        0.00000
 20
       -2.27125
 30
        2.13360
 11
        0.00000
 21
       -2.27125
 31
        0.99971
 12
        0.00000
 22
       -1.42062
 32
        0.99971
 13
        0.00000
 23
       -1.42062
 33
        2.13360
999
LIVING ZONE:SURFACE 9
  0
3DFACE
  8
LIVING_ZONE
 62
 43
 10
      -16.61342
 20
       -9.22968
 30
        2.43840
 11
      -16.61342
 21
       -9.22968
 31
        0.00000
 12
        0.00000
 22
       -9.22968
 32
        0.00000
 13
        0.00000
 23
       -9.22968
 33
        2.43840
999
LIVING ZONE:SURFACE 9 - WINDOW 1
  0
3DFACE
  8
LIVING_ZONE
 62
143
 10
      -15.18095
 20
       -9.22968
 30
        2.13360
 11
      -15.18095
 21
       -9.22968
 31
        0.92004
 12
      -14.27055
 22
       -9.22968
 32
        0.92004
 13
      -14.27055
 23
       -9.22968
 33
        2.13360
999
LIVING ZONE:SURFACE 9 - WINDOW 10
  0
3DFACE
  8
LIVING_ZONE
 62
143
 10
       -4.71621
 20
       -9.22968
 30
        2.13360
 11
       -4.71621
 21
       -9.22968
 31
        0.92004
 12
       -3.80581
 22
       -9.22968
 32
        0.92004
 13
       -3.80581
 23
       -9.22968
 33
        2.13360
999
LIVING ZONE:SURFACE 9 - WINDOW 11
  0
3DFACE
  8
LIVING_ZONE
 62
143
 10
       -2.82854
 20
       -9.22968
 30
        2.13360
 11
       -2.82854
 21
       -9.22968
 31
        0.92004
 12
       -1.91815
 22
       -9.22968
 32
        0.92004
 13
       -1.91815
 23
       -9.22968
 33
        2.13360
999
LIVING ZONE:SURFACE 9 - WINDOW 2
  0
3DFACE
  8
LIVING_ZONE
 62
143
 10
      -14.20959
 20
       -9.22968
 30
        2.13360
 11
      -14.20959
 21
       -9.22968
 31
        0.92004
 12
      -13.29919
 22
       -9.22968
 32
        0.92004
 13
      -13.29919
 23
       -9.22968
 33
        2.13360
999
LIVING ZONE:SURFACE 9 - WINDOW 3
  0
3DFACE
  8
LIVING_ZONE
 62
143
 10
      -12.80760
 20
       -9.22968
 30
        2.13360
 11
      -12.80760
 21
       -9.22968
 31
        0.92004
 12
      -11.89721
 22
       -9.22968
 32
        0.92004
 13
      -11.89721
 23
       -9.22968
 33
        2.13360
999
LIVING ZONE:SURFACE 9 - WINDOW 4
  0
3DFACE
  8
LIVING_ZONE
 62
143
 10
      -11.83625
 20
       -9.22968
 30
        2.13360
 11
      -11.83625
 21
       -9.22968
 31
        0.92004
 12
      -10.92585
 22
       -9.22968
 32
        0.92004
 13
      -10.92585
 23
       -9.22968
 33
        2.13360
999
LIVING ZONE:SURFACE 9 - WINDOW 5
  0
3DFACE
  8
LIVING_ZONE
 62
143
 10
      -10.43426
 20
       -9.22968
 30
        2.13360
 11
      -10.43426
 21
       -9.22968
 31
        0.92004
 12
       -9.52386
 22
       -9.22968
 32
        0.92004
 13
       -9.52386
 23
       -9.22968
 33
        2.13360
999
LIVING ZONE:SURFACE 9 - WINDOW 6
  0
3DFACE
  8
LIVING_ZONE
 62
143
 10
       -9.46290
 20
       -9.22968
 30
        2.13360
 11
       -9.46290
 21
       -9.22968
 31
        0.92004
 12
       -8.55250
 22
       -9.22968
 32
        0.92004
 13
       -8.55250
 23
       -9.22968
 33
        2.13360
999
LIVING ZONE:SURFACE 9 - WINDOW 7
  0
3DFACE
  8
LIVING_ZONE
 62
143
 10
       -8.06091
 20
       -9.22968
 30
        2.13360
 11
       -8.06091
 21
       -9.22968
 31
        0.92004
 12
       -7.15052
 22
       -9.22968
 32
        0.92004
 13
       -7.15052
 23
       -9.22968
 33
        2.13360
999
LIVING ZONE:SURFACE 9 - WINDOW 8
  0
3DFACE
  8
LIVING_ZONE
 62
143
 10
       -7.08956
 20
       -9.22968
 30
        2.13360
 11
       -7.08956
 21
       -9.22968
 31
        0.92004
 12
       -6.17916
 22
       -9.22968
 32
        0.92004
 13
       -6.17916
 23
       -9.22968
 33
        2.13360
999
LIVING ZONE:SURFACE 9 - WINDOW 9
  0
3DFACE
  8
LIVING_ZONE
 62
143
 10
       -5.68757
 20
       -9.22968
 30
        2.13360
 11
       -5.68757
 21
       -9.22968
 31
        0.92004
 12
       -4.77717
 22
       -9.22968
 32
        0.92004
 13
       -4.77717
 23
       -9.22968
 33
        2.13360
999
LIVING ZONE:SURFACE 15
  0
3DFACE
  8
LIVING_ZONE
 62
  8
 10
      -16.61342
 20
       -3.65760
 30
        2.43840
 11
      -16.61342
 21
        3.65760
 31
        2.43840
 12
       -5.64062
 22
        3.65760
 32
        2.43840
 13
       -5.64062
 23
       -3.65760
 33
        2.43840
999
LIVING ZONE:SURFACE 7
  0
3DFACE
  8
LIVING_ZONE
 62
  8
 10
        0.00000
 20
       -9.22968
 30
        0.00000
 11
      -16.61342
 21
       -9.22968
 31
        0.00000
 12
      -16.61342
 22
       -3.65760
 32
        0.00000
 13
      -16.61342
 23
       -3.65760
 33
        0.00000
  0
3DFACE
  8
LIVING_ZONE
 62
  8
 10
        0.00000
 20
       -9.22968
 30
        0.00000
 11
      -16.61342
 21
       -3.65760
 31
        0.00000
 12
       -5.64062
 22
       -3.65760
 32
        0.00000
 13
       -5.64062
 23
       -3.65760
 33
        0.00000
  0
3DFACE
  8
LIVING_ZONE
 62
  8
 10
        0.00000
 20
        0.00000
 30
        0.00000
 11
        0.00000
 21
       -9.22968
 31
        0.00000
 12
       -5.64062
 22
       -3.65760
 32
        0.00000
 13
       -5.64062
 23
       -3.65760
 33
        0.00000
  0
3DFACE
  8
LIVING_ZONE
 62
  8
 10
        0.00000
 20
        0.00000
 30
        0.00000
 11
       -5.64062
 21
       -3.65760
 31
        0.00000
 12
       -5.64062
 22
       -0.00000
 32
        0.00000
 13
       -5.64062
 23
       -0.00000
 33
        0.00000
999
LIVING ZONE:SURFACE 22
  0
3DFACE
  8
LIVING_ZONE
 62
 15
 10
      -16.61342
 20
       -0.00000
 30
        4.87680
 11
      -16.61342
 21
       -9.22968
 31
        4.87680
 12
        0.00000
 22
       -9.22968
 32
        4.87680
 13
        0.00000
 23
        0.00000
 33
        4.87680
999
LIVING ZONE:SURFACE 30
  0
3DFACE
  8
LIVING_ZONE
 62
 15
 10
      -16.61342
 20
        3.65760
 30
        4.87680
 11
      -16.61342
 21
       -0.00000
 31
        4.87680
 12
       -5.64062
 22
       -0.00000
 32
        4.87680
 13
       -5.64062
 23
        3.65760
 33
        4.87680
999
RES DS RES AC ASYS RET AIR ZONE:SURFACE 43
  0
3DFACE
  8
RES_DS_RES_AC_ASYS_RET_AIR_ZONE
 62
 43
 10
        0.00000
 20
      -74.10000
 30
        1.00000
 11
        0.00000
 21
      -74.10000
 31
        0.00000
 12
        0.00000
 22
      -74.00000
 32
        0.00000
 13
        0.00000
 23
      -74.00000
 33
        1.00000
999
RES DS RES AC ASYS RET AIR ZONE:SURFACE 44
  0
3DFACE
  8
RES_DS_RES_AC_ASYS_RET_AIR_ZONE
 62
 43
 10
       -0.10000
 20
      -74.10000
 30
        1.00000
 11
       -0.10000
 21
      -74.10000
 31
        0.00000
 12
        0.00000
 22
      -74.10000
 32
        0.00000
 13
        0.00000
 23
      -74.10000
 33
        1.00000
999
RES DS RES AC ASYS RET AIR ZONE:SURFACE 45
  0
3DFACE
  8
RES_DS_RES_AC_ASYS_RET_AIR_ZONE
 62
 43
 10
       -0.10000
 20
      -74.00000
 30
        1.00000
 11
       -0.10000
 21
      -74.00000
 31
        0.00000
 12
       -0.10000
 22
      -74.10000
 32
        0.00000
 13
       -0.10000
 23
      -74.10000
 33
        1.00000
999
RES DS RES AC ASYS RET AIR ZONE:SURFACE 46
  0
3DFACE
  8
RES_DS_RES_AC_ASYS_RET_AIR_ZONE
 62
 43
 10
        0.00000
 20
      -74.00000
 30
        1.00000
 11
        0.00000
 21
      -74.00000
 31
        0.00000
 12
       -0.10000
 22
      -74.00000
 32
        0.00000
 13
       -0.10000
 23
      -74.00000
 33
        1.00000
999
RES DS RES AC ASYS RET AIR ZONE:SURFACE 42
  0
3DFACE
  8
RES_DS_RES_AC_ASYS_RET_AIR_ZONE
 62
  8
 10
        0.00000
 20
      -74.00000
 30
        0.00000
 11
        0.00000
 21
      -74.10000
 31
        0.00000
 12
       -0.10000
 22
      -74.10000
 32
        0.00000
 13
       -0.10000
 23
      -74.00000
 33
        0.00000
999
RES DS RES AC ASYS RET AIR ZONE:SURFACE 47
  0
3DFACE
  8
RES_DS_RES_AC_ASYS_RET_AIR_ZONE
 62
 15
 10
       -0.10000
 20
      -74.00000
 30
        1.00000
 11
       -0.10000
 21
      -74.10000
 31
        1.00000
 12
        0.00000
 22
      -74.10000
 32
        1.00000
 13
        0.00000
 23
      -74.00000
 33
        1.00000
999
RES DS RES FUR ELECTRIC ASYS RET AIR ZONE:SURFACE 33
  0
3DFACE
  8
RES_DS_RES_FUR_ELECTRIC_ASYS_RET_AIR_ZONE
 62
 43
 10
        0.00000
 20
      -74.10000
 30
        1.00000
 11
        0.00000
 21
      -74.10000
 31
        0.00000
 12
        0.00000
 22
      -74.00000
 32
        0.00000
 13
        0.00000
 23
      -74.00000
 33
        1.00000
999
RES DS RES FUR ELECTRIC ASYS RET AIR ZONE:SURFACE 38
  0
3DFACE
  8
RES_DS_RES_FUR_ELECTRIC_ASYS_RET_AIR_ZONE
 62
 43
 10
       -0.10000
 20
      -74.10000
 30
        1.00000
 11
       -0.10000
 21
      -74.10000
 31
        0.00000
 12
        0.00000
 22
      -74.10000
 32
        0.00000
 13
        0.00000
 23
      -74.10000
 33
        1.00000
999
RES DS RES FUR ELECTRIC ASYS RET AIR ZONE:SURFACE 39
  0
3DFACE
  8
RES_DS_RES_FUR_ELECTRIC_ASYS_RET_AIR_ZONE
 62
 43
 10
       -0.10000
 20
      -74.00000
 30
        1.00000
 11
       -0.10000
 21
      -74.00000
 31
        0.00000
 12
       -0.10000
 22
      -74.10000
 32
        0.00000
 13
       -0.10000
 23
      -74.10000
 33
        1.00000
999
RES DS RES FUR ELECTRIC ASYS RET AIR ZONE:SURFACE 40
  0
3DFACE
  8
RES_DS_RES_FUR_ELECTRIC_ASYS_RET_AIR_ZONE
 62
 43
 10
        0.00000
 20
      -74.00000
 30
        1.00000
 11
        0.00000
 21
      -74.00000
 31
        0.00000
 12
       -0.10000
 22
      -74.00000
 32
        0.00000
 13
       -0.10000
 23
      -74.00000
 33
        1.00000
999
RES DS RES FUR ELECTRIC ASYS RET AIR ZONE:SURFACE 24
  0
3DFACE
  8
RES_DS_RES_FUR_ELECTRIC_ASYS_RET_AIR_ZONE
 62
  8
 10
        0.00000
 20
      -74.00000
 30
        0.00000
 11
        0.00000
 21
      -74.10000
 31
        0.00000
 12
       -0.10000
 22
      -74.10000
 32
        0.00000
 13
       -0.10000
 23
      -74.00000
 33
        0.00000
999
RES DS RES FUR ELECTRIC ASYS RET AIR ZONE:SURFACE 41
  0
3DFACE
  8
RES_DS_RES_FUR_ELECTRIC_ASYS_RET_AIR_ZONE
 62
 15
 10
       -0.10000
 20
      -74.00000
 30
        1.00000
 11
       -0.10000
 21
      -74.10000
 31
        1.00000
 12
        0.00000
 22
      -74.10000
 32
        1.00000
 13
        0.00000
 23
      -74.00000
 33
        1.00000
999
UNFINISHED ATTIC ZONE:SURFACE 26
  0
3DFACE
  8
UNFINISHED_ATTIC_ZONE
 62
 43
 10
        0.00000
 20
       -4.61484
 30
        7.18422
 11
        0.00000
 21
       -9.22968
 31
        4.87680
 12
        0.00000
 22
        0.00000
 32
        4.87680
 13
        0.00000
 23
        0.00000
 33
        4.87680
999
UNFINISHED ATTIC ZONE:SURFACE 27
  0
3DFACE
  8
UNFINISHED_ATTIC_ZONE
 62
 43
 10
      -16.61342
 20
       -4.61484
 30
        7.18422
 11
      -16.61342
 21
       -0.00000
 31
        4.87680
 12
      -16.61342
 22
       -9.22968
 32
        4.87680
 13
      -16.61342
 23
       -9.22968
 33
        4.87680
999
UNFINISHED ATTIC ZONE:SURFACE 34
  0
3DFACE
  8
UNFINISHED_ATTIC_ZONE
 62
 43
 10
       -5.64062
 20
        3.65760
 30
        4.87680
 11
      -16.61342
 21
        3.65760
 31
        4.87680
 12
      -11.12702
 22
        3.65760
 32
        7.17422
 13
      -11.12702
 23
        3.65760
 33
        7.17422
999
UNFINISHED ATTIC ZONE:SURFACE 23
  0
3DFACE
  8
UNFINISHED_ATTIC_ZONE
 62
  8
 10
      -16.61342
 20
       -9.22968
 30
        4.87680
 11
      -16.61342
 21
       -0.00000
 31
        4.87680
 12
        0.00000
 22
        0.00000
 32
        4.87680
 13
        0.00000
 23
       -9.22968
 33
        4.87680
999
UNFINISHED ATTIC ZONE:SURFACE 30 REVERSED
  0
3DFACE
  8
UNFINISHED_ATTIC_ZONE
 62
  8
 10
       -5.64062
 20
        3.65760
 30
        4.87680
 11
       -5.64062
 21
       -0.00000
 31
        4.87680
 12
      -16.61342
 22
       -0.00000
 32
        4.87680
 13
      -16.61342
 23
        3.65760
 33
        4.87680
999
UNFINISHED ATTIC ZONE:SURFACE 25
  0
3DFACE
  8
UNFINISHED_ATTIC_ZONE
 62
 15
 10
        0.00000
 20
       -4.61484
 30
        7.48902
 11
      -16.61342
 21
       -4.61484
 31
        7.48902
 12
      -16.61342
 22
       -9.22968
 32
        5.18160
 13
        0.00000
 23
       -9.22968
 33
        5.18160
999
UNFINISHED ATTIC ZONE:SURFACE 31
  0
3DFACE
  8
UNFINISHED_ATTIC_ZONE
 62
 15
 10
       -5.64062
 20
       -0.00000
 30
        5.13207
 11
       -5.64062
 21
        3.65760
 31
        5.13207
 12
      -11.12702
 22
        3.65760
 32
        7.42949
 13
      -11.12702
 23
       -4.59484
 33
        7.42949
999
UNFINISHED ATTIC ZONE:SURFACE 32
  0
3DFACE
  8
UNFINISHED_ATTIC_ZONE
 62
 15
 10
      -16.61342
 20
       -0.00000
 30
        5.13207
 11
      -11.12702
 21
       -4.59484
 31
        7.42949
 12
      -11.12702
 22
        3.65760
 32
        7.42949
 13
      -16.61342
 23
        3.65760
 33
        5.13207
999
UNFINISHED ATTIC ZONE:SURFACE 35
  0
3DFACE
  8
UNFINISHED_ATTIC_ZONE
 62
 15
 10
        0.00000
 20
       -4.61484
 30
        7.48902
 11
       -0.00000
 21
        0.00000
 31
        5.18160
 12
       -5.64062
 22
       -0.00000
 32
        5.18160
 13
       -5.64062
 23
       -0.00000
 33
        5.18160
  0
3DFACE
  8
UNFINISHED_ATTIC_ZONE
 62
 15
 10
        0.00000
 20
       -4.61484
 30
        7.48902
 11
       -5.64062
 21
       -0.00000
 31
        5.18160
 12
      -11.12702
 22
       -4.59484
 32
        7.47902
 13
      -11.12702
 23
       -4.59484
 33
        7.47902
  0
3DFACE
  8
UNFINISHED_ATTIC_ZONE
 62
 15
 10
      -11.12702
 20
       -4.59484
 30
        7.47902
 11
      -16.61342
 21
       -0.00000
 31
        5.18160
 12
      -16.61342
 22
       -4.61484
 32
        7.48902
 13
      -16.61342
 23
       -4.61484
 33
        7.48902
  0
3DFACE
  8
UNFINISHED_ATTIC_ZONE
 62
 15
 10
        0.00000
 20
       -4.61484
 30
        7.48902
 11
      -11.12702
 21
       -4.59484
 31
        7.47902
 12
      -16.61342
 22
       -4.61484
 32
        7.48902
 13
      -16.61342
 23
       -4.61484
 33
        7.48902
  0
ENDSEC
  0
EOF
